<?xml version="1.0" encoding="utf-8"?>
<!-- Generator: Adobe Illustrator 18.0.0, SVG Export Plug-In . SVG Version: 6.00 Build 0)  -->
<!DOCTYPE svg PUBLIC "-//W3C//DTD SVG 1.1//EN" "http://www.w3.org/Graphics/SVG/1.1/DTD/svg11.dtd">
<svg version="1.1" xmlns="http://www.w3.org/2000/svg" xmlns:xlink="http://www.w3.org/1999/xlink" x="0px" y="0px"
	 viewBox="0 0 150 150" enable-background="new 0 0 150 150" xml:space="preserve">
<g id="Capa_1">
</g>
<g id="Capa_5">
	<g>
		<path fill="#FFE36E" d="M137.8,74.2l-0.4-0.4c-8.3-9.4-20.3-14.9-32.9-14.9c-0.9,0-1.6,0.7-1.6,1.6l-0.4,32.1h-87
			c-0.9,0-1.6,0.7-1.6,1.6v13.1c0,0.9,0.7,1.6,1.6,1.6h126.4c0.9,0,1.6-0.7,1.6-1.6v-18C143.5,83.7,141.5,78.4,137.8,74.2z"/>
		<path fill="#214084" d="M85.3,28.6H19.1c-6.9,0-12.6,5.7-12.6,12.6v42.1c0,7,5.7,12.6,12.6,12.6h66.2c7,0,12.6-5.7,12.6-12.6V41.2
			C97.9,34.3,92.2,28.6,85.3,28.6z"/>
		<g>
			<circle fill="#214084" cx="120.9" cy="109.4" r="9.9"/>
			<path fill="#214084" d="M120.9,121.4c-6.6,0-12-5.4-12-12c0-6.6,5.4-12,12-12c6.6,0,12,5.4,12,12
				C132.9,116,127.5,121.4,120.9,121.4z M120.9,101.7c-4.3,0-7.7,3.5-7.7,7.7c0,4.3,3.5,7.7,7.7,7.7c4.3,0,7.7-3.5,7.7-7.7
				C128.6,105.1,125.2,101.7,120.9,101.7z"/>
		</g>
		<path fill="#5EB2D3" d="M85.3,28.8h-66c-6.9,0-12.6,5.5-12.6,12.3v23.2h91.2V41.1C97.9,34.3,92.2,28.8,85.3,28.8z"/>
		<path fill="#FFE36E" d="M81.8,62.8L61.2,45.2c-0.6-0.5-1.5-0.7-2.3-0.3c-0.8,0.3-1.2,1.1-1.2,1.9v8.3H24c-1.2,0-2.1,1-2.1,2.1
			v13.4c0,1.2,1,2.1,2.1,2.1h33.6v8.3c0,0.8,0.5,1.6,1.2,1.9c0.3,0.1,0.6,0.2,0.9,0.2c0.5,0,1-0.2,1.3-0.5l20.6-16.6
			c0.5-0.4,0.8-1,0.8-1.6C82.5,63.9,82.2,63.3,81.8,62.8z"/>
		<path fill="#214084" d="M142.8,83.5c-0.9-3.4-2.6-6.6-5-9.3l-0.4-0.4c-5.6-6.4-12.9-10.9-21.1-13.2c-0.5-0.1-1,0-1.4,0.3
			c-0.4,0.3-0.6,0.8-0.6,1.3v21.8c0,0.9,0.7,1.6,1.6,1.6h25.3c0.5,0,1-0.2,1.3-0.6C142.8,84.5,142.9,84,142.8,83.5z"/>
		<path fill="#214084" d="M33.5,97.4c-6.6,0-12,5.4-12,12c0,6.6,5.4,12,12,12c6.6,0,12-5.4,12-12C45.5,102.8,40.1,97.4,33.5,97.4z"
			/>
		<path fill="#214084" d="M120.9,97.4c-6.6,0-12,5.4-12,12c0,6.6,5.4,12,12,12c6.6,0,12-5.4,12-12
			C132.9,102.8,127.5,97.4,120.9,97.4z"/>
		<path fill="#FFD500" d="M21.9,64v6.7c0,1.2,1,2.1,2.1,2.1h33.6v8.3c0,0.8,0.5,1.6,1.2,1.9c0.3,0.1,0.6,0.2,0.9,0.2
			c0.5,0,1-0.2,1.3-0.5l20.6-16.6c0.5-0.4,0.8-1,0.8-1.6c0-0.2,0-0.4-0.1-0.6H21.9z"/>
		<path fill="#5EB2D3" d="M33.5,100.9c-4.7,0-8.5,3.8-8.5,8.5c0,4.7,3.8,8.5,8.5,8.5c4.7,0,8.5-3.8,8.5-8.5
			C42,104.7,38.2,100.9,33.5,100.9z"/>
		<path fill="#5EB2D3" d="M120.9,100.9c-4.7,0-8.5,3.8-8.5,8.5c0,4.7,3.8,8.5,8.5,8.5c4.7,0,8.5-3.8,8.5-8.5
			C129.4,104.7,125.6,100.9,120.9,100.9z"/>
	</g>
</g>
<g id="Capa_1_copia" display="none">
	<g display="inline">
		<path fill="#FCEA18" d="M100.2,74.7l-0.1-0.2c-3.3-3.8-8.2-6-13.2-6c-0.4,0-0.6,0.3-0.6,0.6l-0.2,12.9h-35c-0.4,0-0.6,0.3-0.6,0.6
			V88c0,0.4,0.3,0.6,0.6,0.6h50.8c0.4,0,0.6-0.3,0.6-0.6v-7.2C102.5,78.5,101.7,76.3,100.2,74.7z"/>
		<path fill="#35A8E0" d="M79.1,56.4H52.5c-2.8,0-5.1,2.3-5.1,5.1v16.9c0,2.8,2.3,5.1,5.1,5.1h26.6c2.8,0,5.1-2.3,5.1-5.1V61.4
			C84.2,58.6,81.9,56.4,79.1,56.4z"/>
		<g>
			<circle fill="#35A8E0" cx="93.4" cy="88.8" r="4"/>
			<path fill="#35A8E0" d="M93.4,93.6c-2.7,0-4.8-2.2-4.8-4.8c0-2.7,2.2-4.8,4.8-4.8c2.7,0,4.8,2.2,4.8,4.8
				C98.3,91.5,96.1,93.6,93.4,93.6z M93.4,85.7c-1.7,0-3.1,1.4-3.1,3.1c0,1.7,1.4,3.1,3.1,3.1c1.7,0,3.1-1.4,3.1-3.1
				C96.5,87.1,95.1,85.7,93.4,85.7z"/>
		</g>
		<path fill="#1D9CD8" d="M79.1,56.4H52.6c-2.8,0-5.1,2.2-5.1,4.9v9.3h36.6v-9.3C84.2,58.7,81.9,56.4,79.1,56.4z"/>
		<path fill="#FFD500" d="M77.7,70.1L69.5,63c-0.3-0.2-0.6-0.3-0.9-0.1C68.2,63,68,63.3,68,63.7V67H54.5c-0.5,0-0.9,0.4-0.9,0.9v5.4
			c0,0.5,0.4,0.9,0.9,0.9H68v3.3c0,0.3,0.2,0.6,0.5,0.8c0.1,0.1,0.2,0.1,0.4,0.1c0.2,0,0.4-0.1,0.5-0.2l8.3-6.7
			c0.2-0.2,0.3-0.4,0.3-0.7C78,70.5,77.9,70.3,77.7,70.1z"/>
		<path fill="#35A8E0" d="M102.2,78.4c-0.4-1.4-1-2.7-2-3.7l-0.1-0.2c-2.3-2.6-5.2-4.4-8.5-5.3c-0.2-0.1-0.4,0-0.6,0.1
			c-0.2,0.1-0.3,0.3-0.3,0.5v8.8c0,0.4,0.3,0.6,0.6,0.6h10.2c0.2,0,0.4-0.1,0.5-0.3C102.2,78.8,102.3,78.6,102.2,78.4z"/>
		<path fill="#35A8E0" d="M58.3,84c-2.7,0-4.8,2.2-4.8,4.8c0,2.7,2.2,4.8,4.8,4.8c2.7,0,4.8-2.2,4.8-4.8C63.1,86.2,61,84,58.3,84z"
			/>
		<path fill="#35A8E0" d="M93.4,84c-2.7,0-4.8,2.2-4.8,4.8c0,2.7,2.2,4.8,4.8,4.8c2.7,0,4.8-2.2,4.8-4.8C98.3,86.2,96.1,84,93.4,84z
			"/>
		<path fill="#FFD500" d="M53.7,70.6v2.7c0,0.5,0.4,0.9,0.9,0.9H68v3.3c0,0.3,0.2,0.6,0.5,0.8c0.1,0.1,0.2,0.1,0.4,0.1
			c0.2,0,0.4-0.1,0.5-0.2l8.3-6.7c0.2-0.2,0.3-0.4,0.3-0.7c0-0.1,0-0.1,0-0.2H53.7z"/>
		<path fill="#1D9CD8" d="M58.3,85.4c-1.9,0-3.4,1.5-3.4,3.4c0,1.9,1.5,3.4,3.4,3.4c1.9,0,3.4-1.5,3.4-3.4
			C61.7,86.9,60.2,85.4,58.3,85.4z"/>
		<path fill="#1D9CD8" d="M93.4,85.4c-1.9,0-3.4,1.5-3.4,3.4c0,1.9,1.5,3.4,3.4,3.4c1.9,0,3.4-1.5,3.4-3.4
			C96.8,86.9,95.3,85.4,93.4,85.4z"/>
	</g>
</g>
<g id="Capa_4">
</g>
<g id="Capa_2">
</g>
</svg>
