<?xml version="1.0" encoding="utf-8"?>
<!-- Generator: Adobe Illustrator 18.0.0, SVG Export Plug-In . SVG Version: 6.00 Build 0)  -->
<!DOCTYPE svg PUBLIC "-//W3C//DTD SVG 1.1//EN" "http://www.w3.org/Graphics/SVG/1.1/DTD/svg11.dtd">
<svg version="1.1" xmlns="http://www.w3.org/2000/svg" xmlns:xlink="http://www.w3.org/1999/xlink" x="0px" y="0px"
	 viewBox="0 0 150 150" enable-background="new 0 0 150 150" xml:space="preserve">
<g id="Capa_1">
</g>
<g id="Capa_5">
	<g>
		<path fill="#5EB2D3" d="M85.7,19.6H64.2c-0.8,0-1.5,0.7-1.5,1.5v13c0,0.8,0.7,1.5,1.5,1.5h21.4c0.8,0,1.5-0.7,1.5-1.5v-13
			C87.2,20.3,86.5,19.6,85.7,19.6z"/>
		<path fill="#214084" d="M96.5,40.5h-7v-6.4c0-0.8-0.7-1.5-1.5-1.5h-26c-0.8,0-1.5,0.7-1.5,1.5v6.4h-7c-0.8,0-1.5,0.7-1.5,1.5v26.8
			c0,0.8,0.7,1.5,1.5,1.5h8.5c0.8,0,1.5-0.7,1.5-1.5v-3.5h22.9v3.5c0,0.8,0.7,1.5,1.5,1.5h8.5c0.8,0,1.5-0.7,1.5-1.5V42
			C98,41.2,97.3,40.5,96.5,40.5z"/>
		<path fill="#FFD500" d="M75.9,43.5c-0.5-0.3-1.1-0.2-1.6,0.1L38.6,67.5c-0.6,0.4-0.8,1.1-0.6,1.7l14.5,44.5c0.2,0.5,0.6,0.9,1.2,1
			l9.5,1.5c0.1,0,0.2,0,0.2,0c0.1,0,0.2,0,0.4,0l11.5-2.8c0.7-0.2,1.2-0.8,1.2-1.5l0.3-67.2C76.7,44.3,76.4,43.8,75.9,43.5z"/>
		<path fill="#214084" d="M74.9,109.7c-1.9,0.3-3.7,1-5.4,2.3l0,0c-4.4,3.1-9.6,3.2-14,0.1l-0.3-0.2c-4.4-3.1-9.7-3-14,0.1l-7,5
			h40.7V109.7z"/>
		<path fill="#FFE36E" d="M111.6,67.5L75.9,43.6c-0.2-0.2-0.5-0.2-0.8-0.3v70.2c0.3-0.1,0.6-0.2,0.8-0.4c0.3,0.4,0.7,0.7,1.3,0.7
			c1.5,0,3,0.2,4.5,0.3c1.4,0.1,2.8,0.1,4.2,0.1c1.4,0.1,2.7,0.2,4.1,0.2H95c0.1,0,0.2,0,0.3,0c0.2,0.1,0.3,0.3,0.6,0.3
			c0.2,0.1,0.3,0.1,0.5,0.1c0.6,0,1.2-0.4,1.5-1.1l14.5-44.5C112.4,68.6,112.2,67.9,111.6,67.5z"/>
		<path fill="#214084" d="M139,125.4c-4.4-3.1-9.6-3.2-14-0.1l-0.3,0.2c-4.4,3.1-9.7,3-14-0.1l0,0c-4.4-3.1-9.6-3.2-14-0.1l-0.3,0.2
			c-4.4,3.1-9.7,3-14-0.1c-2.3-1.6-4.8-2.4-7.3-2.4c-2.5-0.1-5,0.7-7.3,2.4c-4.4,3.1-9.6,3.2-14,0.1l-0.3-0.2c-4.4-3.1-9.7-3-14,0.1
			l0,0c-4.4,3.1-9.6,3.2-14,0.1l-0.3-0.2c-4.4-3.1-9.7-3-14,0.1l-7,5h70.9h0.3H146L139,125.4z"/>
		<path fill="#214084" d="M108.6,111.9c-4.4-3.1-9.6-3.2-14-0.1l-0.3,0.2c-4.4,3.1-9.7,3-14-0.1c-1.7-1.2-3.5-2-5.4-2.3l0,0l0,0l0,0
			l0,0c-1.9,0.3-3.7,1-5.4,2.3c-4.4,3.1-9.6,3.2-14,0.1l-0.3-0.2c-4.4-3.1-9.7-3-14,0.1l-7,5h40.7l0,0h40.7L108.6,111.9z"/>
	</g>
</g>
<g id="Capa_1_copia" display="none">
	<g display="inline">
		<path fill="#FFEC00" d="M75,61.3c0.3,0,0.6-0.3,0.6-0.6v-4.3c0-0.2-0.1-0.3-0.2-0.5c-0.1-0.1-0.3-0.2-0.5-0.2
			c-2.3,0-4.4,1-6.1,2.6c-1.5,1.5-2.3,3.4-2.5,5.5h-7.8c-0.3,0-0.5,0.2-0.6,0.5l-8,29.2c-0.1,0.2,0,0.4,0.1,0.6
			c0.1,0.2,0.3,0.3,0.5,0.3H75c0.4,0,0.6-0.3,0.6-0.6V64.6c0-0.4-0.3-0.6-0.6-0.6h-3C72.3,62.5,73.5,61.4,75,61.3z"/>
		<path fill="#FCEA18" d="M99.9,93.5l-8-29.2c-0.1-0.3-0.3-0.5-0.6-0.5h-7.8c-0.1-2.1-1-4-2.5-5.5c-1.6-1.6-3.8-2.6-6.1-2.6
			c0,0,0,0,0,0v5.6c1.5,0.1,2.7,1.2,3,2.6h-3v30.4h24.3c0.2,0,0.4-0.1,0.5-0.3C99.9,93.9,100,93.7,99.9,93.5z"/>
		<g>
			<g>
				<path fill="#35A8E0" d="M74.8,83.9h-2.9L70,80.3l-0.8,0.5v3.1h-2.6v-9.4h2.6v4.1c0.1-0.3,0.4-0.7,0.8-1.2l2-2.9h2.8l-3,4.2
					L74.8,83.9z"/>
			</g>
			<g>
				<path fill="#35A8E0" d="M79.6,78.4h4.1v5.1C82.5,83.8,81.3,84,80,84c-1.4,0-2.6-0.4-3.4-1.3c-0.8-0.8-1.2-2-1.2-3.6
					c0-1.5,0.4-2.7,1.3-3.5c0.9-0.8,2.1-1.3,3.6-1.3c0.6,0,1.2,0.1,1.7,0.2c0.5,0.1,1,0.3,1.4,0.4l-0.8,2c-0.7-0.3-1.4-0.5-2.2-0.5
					c-0.7,0-1.3,0.2-1.7,0.7c-0.4,0.5-0.6,1.2-0.6,2.1c0,0.9,0.2,1.5,0.6,2c0.4,0.5,0.9,0.7,1.6,0.7c0.4,0,0.7,0,1-0.1v-1.5h-1.7
					V78.4z"/>
			</g>
		</g>
	</g>
</g>
<g id="Capa_4">
</g>
<g id="Capa_2">
</g>
</svg>
