<?xml version="1.0" encoding="utf-8"?>
<!-- Generator: Adobe Illustrator 18.0.0, SVG Export Plug-In . SVG Version: 6.00 Build 0)  -->
<!DOCTYPE svg PUBLIC "-//W3C//DTD SVG 1.1//EN" "http://www.w3.org/Graphics/SVG/1.1/DTD/svg11.dtd">
<svg version="1.1" xmlns="http://www.w3.org/2000/svg" xmlns:xlink="http://www.w3.org/1999/xlink" x="0px" y="0px"
	 viewBox="0 0 150 150" enable-background="new 0 0 150 150" xml:space="preserve">
<g id="Capa_1" display="none">
	<g display="inline">
		<path fill="#F8AE42" d="M96.6,64.2H53.8c-0.4,0-0.6,0.3-0.6,0.6v31.7c0,0.4,0.3,0.6,0.6,0.6h42.9c0.4,0,0.6-0.3,0.6-0.6V64.8
			C97.3,64.5,97,64.2,96.6,64.2z"/>
		<path fill="#22376C" d="M90.7,72.9H60.2c-0.4,0-0.6,0.3-0.6,0.6v23c0,0.4,0.3,0.6,0.6,0.6h30.5c0.4,0,0.6-0.3,0.6-0.6v-23
			C91.3,73.2,91,72.9,90.7,72.9z"/>
		<path fill="#F8AE42" d="M86.3,80.8H64.6c-0.5,0-0.9,0.4-0.9,0.9v14.7c0,0.5,0.4,0.9,0.9,0.9h21.7c0.5,0,0.9-0.4,0.9-0.9V81.6
			C87.2,81.2,86.8,80.8,86.3,80.8z"/>
		<path fill="#F2921E" d="M81.8,97.2h-6.3v-5.3h11.7l0,0C87.2,94.8,84.8,97.2,81.8,97.2z"/>
		<rect x="63.8" y="86.1" fill="#F2921E" width="11.7" height="5.8"/>
		<path fill="#F2921E" d="M87.1,86.1H75.5v-5.3h6.3C84.7,80.8,87.1,83.2,87.1,86.1L87.1,86.1z"/>
		<path fill="#124F9D" d="M102,67.7l-3.1-6.4c-0.1-0.2-0.2-0.3-0.4-0.3l-23.7-8.2c-0.1,0-0.3,0-0.4,0L51.8,61
			c-0.1,0.1-0.3,0.2-0.3,0.3L48,67.7c-0.1,0.2-0.1,0.4,0,0.6c0.1,0.2,0.3,0.3,0.6,0.3h52.9c0.2,0,0.4-0.1,0.5-0.3
			C102.1,68.2,102.1,67.9,102,67.7z"/>
		<path fill="#22376C" d="M102,67.7l-3.1-6.4c-0.1-0.2-0.3-0.4-0.6-0.4H52c-0.2,0-0.5,0.1-0.6,0.3L48,67.7c-0.1,0.2-0.1,0.4,0,0.6
			c0.1,0.2,0.3,0.3,0.6,0.3h52.9c0.2,0,0.4-0.1,0.5-0.3C102.1,68.2,102.1,67.9,102,67.7z"/>
	</g>
</g>
<g id="Capa_5">
	<g>
		<path fill="#5EB2D3" d="M105.8,43.2c-9.1-9.1-21.3-14.2-34.2-14.2c-12.9,0-25.1,5-34.2,14.2c-9.1,9.1-14.2,21.3-14.2,34.2
			s5,25.1,14.2,34.2c9.1,9.1,21.3,14.2,34.2,14.2c12.9,0,25.1-5,34.2-14.2c9.1-9.1,14.2-21.3,14.2-34.2S115,52.4,105.8,43.2z"/>
		<path fill="#FFE36E" d="M120.4,73.1c-1.3-7.9-2.8-13.5-7.7-21.8c-1.8-3.1-4-6-8.2-6.3l-9.6-0.6c-2.8-0.2-5.5,0.7-7.6,2.6
			c-2.1,1.8-3.3,4.4-3.5,7.2l-0.6,9.3c-0.2,2.6,0.7,5.2,2.3,7.2c1.7,2,4,3.4,6.6,3.7l2.7,0.4c2.5,0.4,4.7,2,5.8,4.3l4.8,14.8
			c0,0.1,0,0.1,0.1,0.1c0.6,1.3,1.8,2.1,3.2,2.2c0,0,0.1,0,0.1,0c1.4,0,2.6-0.8,3.3-2c0.7-1.4,1.8-2.7,2.9-4.2
			C118,86.2,121.7,81.3,120.4,73.1z"/>
		<path fill="#FFE36E" d="M78.1,29.8c-0.2-0.6-0.7-1-1.2-1c-0.3,0-6.4-0.6-10.5,0c-0.5,0.1-0.9,0.4-1.1,0.8c-0.7,1.5-2.1,5.1-0.8,7
			c0.5,0.7,1.2,1.1,2.2,1.1c3,0,9.2-4.9,11.1-6.4C78.1,31,78.3,30.3,78.1,29.8z"/>
		<path fill="#FFD500" d="M66.8,90.5c1-2,0.9-4.2-0.3-6.1c-1.2-1.9-3.2-3-5.3-3h-5c-0.4,0-0.7-0.1-1-0.2l-11.8-3.8l0,0
			c-1.8-0.6-3.8-0.3-5.4,0.8c-1.6,1.1-2.6,2.8-2.8,4.7l-0.7,8.6c-0.2,2.2,0.8,4.4,2.6,5.6l5.5,3.9c0.6,0.4,1.1,1.1,1.3,1.8l1.9,6.2
			c0.5,1.5,1.5,2.8,2.8,3.6l9.9,5.8c0.6,0.4,1.3,0.5,1.9,0.5c0.9,0,1.8-0.3,2.5-1c1.2-1.1,1.6-2.8,0.9-4.3l-3.4-7.4
			c-0.4-0.9-0.4-2,0.1-2.9L66.8,90.5z"/>
		<path fill="#FFD500" d="M59,42.7c-2.3-2.1-4.8-0.6-6.8,0.7c-1.3,0.8-2.7,1.7-4.1,1.7c-0.1,0-0.2,0-0.3,0c0.4-0.7,1.3-1.8,1.8-2.4
			c0.2-0.3,0.5-0.6,0.7-0.9c1.5-1.9,2.8-5.4,1.4-7.1c-0.3-0.3-1.3-1.3-3.1-0.4c-2.4,1.2-15.6,9.9-21.4,22.6
			c-2.5,5.5-1.3,11.3,3.2,17c3.3,4.1,7.3,6.7,7.5,6.8c0.2,0.2,0.5,0.2,0.8,0.2c0.4,0,0.8-0.1,1-0.4c0.5-0.5,0.5-1.2,0.2-1.8
			c-1.1-1.7-0.9-2.5-0.3-3.9c0.4-1,0.8-2.2,0.7-3.7c-0.1-1.1-0.4-1.9-0.8-2.7c1.7,1.1,3.2,1.9,4.5,1.5c1.7-0.5,2.5-2.9,3.7-6.2
			c0.7-1.9,1.4-4.1,2.3-5.4c1-1.4,1.9-1.5,3.6-1.6c1.1-0.1,2.4-0.2,3.8-0.8c1.8-0.8,3.2-2.8,3.7-5.6C61.4,47.2,60.7,44.2,59,42.7z"
			/>
		<g>
			<path fill="#2AA9E0" d="M106.5,61.6V25.6V61.6z"/>
			<path fill="#FFFFFF" d="M106.5,63c-0.8,0-1.4-0.6-1.4-1.4V25.6c0-0.8,0.6-1.4,1.4-1.4c0.8,0,1.4,0.6,1.4,1.4v35.9
				C107.9,62.4,107.3,63,106.5,63z"/>
		</g>
		<path fill="#FFE36E" d="M121.2,32.2l5.2-5.6c0.4-0.4,0.5-1,0.3-1.6c-0.2-0.5-0.8-0.9-1.3-0.9h-18.8c-0.8,0-1.4,0.6-1.4,1.4v13.1
			c0,0.8,0.6,1.4,1.4,1.4h18.8c0.6,0,1.1-0.3,1.3-0.9c0.2-0.5,0.1-1.1-0.3-1.6L121.2,32.2z"/>
		<path fill="#FFFFFF" d="M59.6,97c-0.5,0-1-0.3-1.3-0.7L34.5,53.9c-0.2-0.4-0.2-0.9,0-1.4l2.1-4.1c0.3-0.6,1-0.9,1.6-0.8l63.2,15.2
			c0.4,0.1,0.7,0.3,0.9,0.7l4.5,7.7c0.2,0.3,0.3,0.8,0.1,1.1c-0.1,0.4-0.4,0.7-0.7,0.9L66.7,93.8c0,0,0,0,0,0l-6.4,3
			C60.1,96.9,59.8,97,59.6,97z M37.4,53.1l22.8,40.5l5.1-2.4l38.2-19.9l-3.4-5.8L38.6,50.7L37.4,53.1z"/>
		<path fill="#214084" d="M32.7,42c-3.9,0-7.1,3.2-7.1,7.1c0,3.9,3.2,7.1,7.1,7.1c3.9,0,7.1-3.2,7.1-7.1C39.8,45.1,36.6,42,32.7,42z
			"/>
		<path fill="#214084" d="M105.6,59.7c-3.9,0-7.1,3.2-7.1,7.1c0,3.9,3.2,7.1,7.1,7.1c3.9,0,7.1-3.2,7.1-7.1
			C112.6,62.8,109.5,59.7,105.6,59.7z"/>
		<path fill="#214084" d="M61.8,88.4c-3.9,0-7.1,3.2-7.1,7.1c0,3.9,3.2,7.1,7.1,7.1c3.9,0,7.1-3.2,7.1-7.1
			C68.9,91.6,65.7,88.4,61.8,88.4z"/>
	</g>
</g>
<g id="Capa_1_copia" display="none">
	<g display="inline">
		<path fill="#FCEA18" d="M96.6,64.2H53.8c-0.4,0-0.6,0.3-0.6,0.6v31.7c0,0.4,0.3,0.6,0.6,0.6h42.9c0.4,0,0.6-0.3,0.6-0.6V64.8
			C97.3,64.5,97,64.2,96.6,64.2z"/>
		<path fill="#35A8E0" d="M90.7,72.9H60.2c-0.4,0-0.6,0.3-0.6,0.6v23c0,0.4,0.3,0.6,0.6,0.6h30.5c0.4,0,0.6-0.3,0.6-0.6v-23
			C91.3,73.2,91,72.9,90.7,72.9z"/>
		<path fill="#FCEA18" d="M86.3,80.8H64.6c-0.5,0-0.9,0.4-0.9,0.9v14.7c0,0.5,0.4,0.9,0.9,0.9h21.7c0.5,0,0.9-0.4,0.9-0.9V81.6
			C87.2,81.2,86.8,80.8,86.3,80.8z"/>
		<path fill="#FFD500" d="M81.8,97.2h-6.3v-5.3h11.7l0,0C87.2,94.8,84.8,97.2,81.8,97.2z"/>
		<rect x="63.8" y="86.1" fill="#FFD500" width="11.7" height="5.8"/>
		<path fill="#FFD500" d="M87.1,86.1H75.5v-5.3h6.3C84.7,80.8,87.1,83.2,87.1,86.1L87.1,86.1z"/>
		<path fill="#1D9CD8" d="M102,67.7l-3.1-6.4c-0.1-0.2-0.2-0.3-0.4-0.3l-23.7-8.2c-0.1,0-0.3,0-0.4,0L51.8,61
			c-0.1,0.1-0.3,0.2-0.3,0.3L48,67.7c-0.1,0.2-0.1,0.4,0,0.6c0.1,0.2,0.3,0.3,0.6,0.3h52.9c0.2,0,0.4-0.1,0.5-0.3
			C102.1,68.2,102.1,67.9,102,67.7z"/>
		<path fill="#35A8E0" d="M102,67.7l-3.1-6.4c-0.1-0.2-0.3-0.4-0.6-0.4H52c-0.2,0-0.5,0.1-0.6,0.3L48,67.7c-0.1,0.2-0.1,0.4,0,0.6
			c0.1,0.2,0.3,0.3,0.6,0.3h52.9c0.2,0,0.4-0.1,0.5-0.3C102.1,68.2,102.1,67.9,102,67.7z"/>
	</g>
</g>
<g id="Capa_4">
</g>
<g id="Capa_2">
</g>
</svg>
