<?xml version="1.0" encoding="utf-8"?>
<!-- Generator: Adobe Illustrator 18.0.0, SVG Export Plug-In . SVG Version: 6.00 Build 0)  -->
<!DOCTYPE svg PUBLIC "-//W3C//DTD SVG 1.1//EN" "http://www.w3.org/Graphics/SVG/1.1/DTD/svg11.dtd">
<svg version="1.1" xmlns="http://www.w3.org/2000/svg" xmlns:xlink="http://www.w3.org/1999/xlink" x="0px" y="0px"
	 viewBox="0 0 150 150" enable-background="new 0 0 150 150" xml:space="preserve">
<g id="Capa_1" display="none">
	<g display="inline">
		<path fill="#F8AE42" d="M83.5,60.1l-8.1-6.3c-0.2-0.2-0.5-0.2-0.7-0.1c-0.2,0.1-0.4,0.3-0.4,0.6v3.4c-9.7,0.3-17.5,8.4-17.5,18.2
			c0,0.4,0.3,0.6,0.6,0.6h4.9c0.4,0,0.6-0.3,0.6-0.6c0-6.4,5-11.7,11.4-12v3c0,0.2,0.1,0.5,0.4,0.6c0.2,0.1,0.5,0.1,0.7-0.1l8.1-6.3
			c0.2-0.1,0.2-0.3,0.2-0.5S83.6,60.2,83.5,60.1z"/>
		<path fill="#F29323" d="M92.5,75.2h-4.9c-0.4,0-0.6,0.3-0.6,0.6c0,6.6-5.4,12-12,12c-6.6,0-12-5.4-12-12c0-0.4-0.3-0.6-0.6-0.6
			h-4.9c-0.4,0-0.6,0.3-0.6,0.6C56.8,85.9,65,94,75,94c10,0,18.2-8.2,18.2-18.2C93.2,75.5,92.9,75.2,92.5,75.2z"/>
		<g>
			<path fill="#124F9D" d="M74.9,79.2h-5.7v-1.4l1.9-1.9c0.5-0.6,0.9-1,1.1-1.2c0.2-0.2,0.3-0.4,0.4-0.5c0.1-0.2,0.1-0.3,0.1-0.5
				c0-0.2-0.1-0.4-0.2-0.5c-0.1-0.1-0.3-0.2-0.6-0.2c-0.2,0-0.5,0.1-0.8,0.2c-0.3,0.1-0.5,0.4-0.9,0.6l-1.2-1.4
				c0.4-0.4,0.7-0.6,1-0.8c0.3-0.2,0.6-0.3,0.9-0.4c0.3-0.1,0.7-0.1,1.1-0.1c0.5,0,1,0.1,1.4,0.3c0.4,0.2,0.7,0.4,0.9,0.8
				c0.2,0.3,0.3,0.7,0.3,1.1c0,0.3,0,0.6-0.1,0.9c-0.1,0.3-0.2,0.5-0.4,0.8c-0.2,0.3-0.4,0.5-0.6,0.8c-0.3,0.3-0.8,0.8-1.7,1.6v0.1
				h3V79.2z"/>
			<path fill="#124F9D" d="M81.6,77.7h-0.9v1.5h-2.1v-1.5h-3.1v-1.6l3.3-4.8h2v4.8h0.9V77.7z M78.6,76.1v-0.9c0-0.2,0-0.4,0-0.7
				c0-0.3,0-0.4,0-0.5h-0.1c-0.1,0.3-0.3,0.5-0.4,0.8l-0.9,1.3H78.6z"/>
		</g>
		<g>
			<path fill="#124F9D" d="M49.1,74.1h-2.9c-0.5,0-0.9,0.4-0.9,0.9c0,0.5,0.4,0.9,0.9,0.9h2.9c0.5,0,0.9-0.4,0.9-0.9
				C50,74.5,49.6,74.1,49.1,74.1z"/>
			<path fill="#124F9D" d="M103.8,74.1h-2.9c-0.5,0-0.9,0.4-0.9,0.9c0,0.5,0.4,0.9,0.9,0.9h2.9c0.5,0,0.9-0.4,0.9-0.9
				C104.7,74.5,104.3,74.1,103.8,74.1z"/>
			<path fill="#124F9D" d="M75,45.3c-0.5,0-0.9,0.4-0.9,0.9v2.9c0,0.5,0.4,0.9,0.9,0.9c0.5,0,0.9-0.4,0.9-0.9v-2.9
				C75.9,45.7,75.5,45.3,75,45.3z"/>
			<path fill="#124F9D" d="M75,100c-0.5,0-0.9,0.4-0.9,0.9v2.9c0,0.5,0.4,0.9,0.9,0.9c0.5,0,0.9-0.4,0.9-0.9v-2.9
				C75.9,100.4,75.5,100,75,100z"/>
			<path fill="#124F9D" d="M55.2,54c-0.3-0.3-0.9-0.3-1.2,0c-0.3,0.3-0.3,0.9,0,1.2l2.1,2.1c0.2,0.2,0.4,0.3,0.6,0.3
				c0.2,0,0.4-0.1,0.6-0.3c0.3-0.3,0.3-0.9,0-1.2L55.2,54z"/>
			<path fill="#124F9D" d="M93.9,92.7c-0.3-0.3-0.9-0.3-1.2,0c-0.3,0.3-0.3,0.9,0,1.2l2.1,2.1c0.2,0.2,0.4,0.3,0.6,0.3
				c0.2,0,0.4-0.1,0.6-0.3c0.3-0.3,0.3-0.9,0-1.2L93.9,92.7z"/>
			<path fill="#124F9D" d="M94.8,54l-2.1,2.1c-0.3,0.3-0.3,0.9,0,1.2c0.2,0.2,0.4,0.3,0.6,0.3c0.2,0,0.4-0.1,0.6-0.3l2.1-2.1
				c0.3-0.3,0.3-0.9,0-1.2C95.7,53.7,95.1,53.7,94.8,54z"/>
			<path fill="#124F9D" d="M56.1,92.7L54,94.8c-0.3,0.3-0.3,0.9,0,1.2c0.2,0.2,0.4,0.3,0.6,0.3s0.4-0.1,0.6-0.3l2.1-2.1
				c0.3-0.3,0.3-0.9,0-1.2C57,92.4,56.4,92.4,56.1,92.7z"/>
		</g>
	</g>
</g>
<g id="Capa_5">
	<g>
		<path fill="#FFE36E" d="M134.5,60.7c-0.6-3.1-2.6-5.8-5.3-7.3l-0.3-0.2c-6.8-3.9-15-4.7-22.4-2.1l0,0L39.1,78.5
			c-1.2,0.5-2.5,0-3.1-1.2l-2.9-6.1l0-0.1c-1.1-2-3.4-3.1-5.7-2.6c-2.8,0.6-4.7,3.4-4.1,6.2L26,87.1c1,4.9,5.4,8.4,10.3,8.4
			c0.6,0,1.3-0.1,2-0.2l73.1-14.1c8.3-0.7,16-5,21.1-11.7C134.4,67,135.1,63.8,134.5,60.7z"/>
		<path fill="#FFD500" d="M133.6,58.1l-0.5-1l-64,19.5l-42.5,13l1.1,1.5c2,2.8,5.2,4.4,8.5,4.4c0.7,0,1.3-0.1,2-0.2l73.1-14.1
			c8.3-0.7,16-5,21.1-11.7C135,66.2,135.5,61.8,133.6,58.1z"/>
		<path fill="#5EB2D3" d="M100.7,67.5L41.1,48.6c-2.2-0.7-4.6-0.4-6.6,0.7c-2,1.2-3.4,3.1-3.9,5.4c-0.2,0.7,0.2,1.5,0.8,1.8
			l37.2,22.8c0.3,0.2,0.6,0.3,0.9,0.3c0.2,0,0.3,0,0.5-0.1l30.7-8.7c0.7-0.2,1.3-0.9,1.3-1.7C102,68.4,101.5,67.7,100.7,67.5z"/>
		<path fill="#214084" d="M133.6,58c-1-1.9-2.5-3.5-4.3-4.6l0,0l-0.3-0.2c-4.9-2.8-10.4-4-16-3.5c-0.4,0-0.8,0.3-1,0.6
			c-0.2,0.4-0.3,0.8-0.1,1.2l0,0.1c0,0,0,0,0,0l4.7,11.4c0.2,0.5,0.7,0.8,1.2,0.8c0.1,0,0.2,0,0.3,0l14.6-4c0.4-0.1,0.7-0.4,0.9-0.7
			C133.8,58.7,133.7,58.3,133.6,58z"/>
		<path fill="#214084" d="M32.4,106.3c-0.6,0-1.1-0.4-1.3-1c-0.2-0.7,0.3-1.4,1-1.6l17.8-4c0.7-0.2,1.4,0.3,1.6,1
			c0.2,0.7-0.3,1.4-1,1.6l-17.8,4C32.5,106.3,32.4,106.3,32.4,106.3z"/>
		<path fill="#214084" d="M14.1,95c-0.6,0-1.1-0.4-1.3-1c-0.2-0.7,0.3-1.4,1-1.6l28.4-6.3c0.7-0.2,1.4,0.3,1.6,1
			c0.2,0.7-0.3,1.4-1,1.6L14.4,95C14.3,95,14.2,95,14.1,95z"/>
		<path fill="#214084" d="M86.7,74.8L33,53.4c-0.8-0.3-1.8,0-2.2,0.8c-0.4,0.8-0.1,1.8,0.6,2.3l37.2,22.8c0.3,0.2,0.6,0.3,0.9,0.3
			c0.2,0,0.3,0,0.5-0.1L86.7,74.8z"/>
	</g>
</g>
<g id="Capa_1_copia" display="none">
	<g display="inline">
		<path fill="#FFD500" d="M83.5,60.1l-8.1-6.3c-0.2-0.2-0.5-0.2-0.7-0.1c-0.2,0.1-0.4,0.3-0.4,0.6v3.4c-9.7,0.3-17.5,8.4-17.5,18.2
			c0,0.4,0.3,0.6,0.6,0.6h4.9c0.4,0,0.6-0.3,0.6-0.6c0-6.4,5-11.7,11.4-12v3c0,0.2,0.1,0.5,0.4,0.6c0.2,0.1,0.5,0.1,0.7-0.1l8.1-6.3
			c0.2-0.1,0.2-0.3,0.2-0.5S83.6,60.2,83.5,60.1z"/>
		<path fill="#FFEC00" d="M92.5,75.2h-4.9c-0.4,0-0.6,0.3-0.6,0.6c0,6.6-5.4,12-12,12c-6.6,0-12-5.4-12-12c0-0.4-0.3-0.6-0.6-0.6
			h-4.9c-0.4,0-0.6,0.3-0.6,0.6C56.8,85.9,65,94,75,94c10,0,18.2-8.2,18.2-18.2C93.2,75.5,92.9,75.2,92.5,75.2z"/>
		<g>
			<path fill="#1D9CD8" d="M74.9,79.2h-5.7v-1.4l1.9-1.9c0.5-0.6,0.9-1,1.1-1.2c0.2-0.2,0.3-0.4,0.4-0.5c0.1-0.2,0.1-0.3,0.1-0.5
				c0-0.2-0.1-0.4-0.2-0.5c-0.1-0.1-0.3-0.2-0.6-0.2c-0.2,0-0.5,0.1-0.8,0.2c-0.3,0.1-0.5,0.4-0.9,0.6l-1.2-1.4
				c0.4-0.4,0.7-0.6,1-0.8c0.3-0.2,0.6-0.3,0.9-0.4c0.3-0.1,0.7-0.1,1.1-0.1c0.5,0,1,0.1,1.4,0.3c0.4,0.2,0.7,0.4,0.9,0.8
				c0.2,0.3,0.3,0.7,0.3,1.1c0,0.3,0,0.6-0.1,0.9c-0.1,0.3-0.2,0.5-0.4,0.8c-0.2,0.3-0.4,0.5-0.6,0.8c-0.3,0.3-0.8,0.8-1.7,1.6v0.1
				h3V79.2z"/>
			<path fill="#1D9CD8" d="M81.6,77.7h-0.9v1.5h-2.1v-1.5h-3.1v-1.6l3.3-4.8h2v4.8h0.9V77.7z M78.6,76.1v-0.9c0-0.2,0-0.4,0-0.7
				c0-0.3,0-0.4,0-0.5h-0.1c-0.1,0.3-0.3,0.5-0.4,0.8l-0.9,1.3H78.6z"/>
		</g>
		<g>
			<path fill="#1D9CD8" d="M49.1,74.1h-2.9c-0.5,0-0.9,0.4-0.9,0.9c0,0.5,0.4,0.9,0.9,0.9h2.9c0.5,0,0.9-0.4,0.9-0.9
				C50,74.5,49.6,74.1,49.1,74.1z"/>
			<path fill="#1D9CD8" d="M103.8,74.1h-2.9c-0.5,0-0.9,0.4-0.9,0.9c0,0.5,0.4,0.9,0.9,0.9h2.9c0.5,0,0.9-0.4,0.9-0.9
				C104.7,74.5,104.3,74.1,103.8,74.1z"/>
			<path fill="#1D9CD8" d="M75,45.3c-0.5,0-0.9,0.4-0.9,0.9v2.9c0,0.5,0.4,0.9,0.9,0.9c0.5,0,0.9-0.4,0.9-0.9v-2.9
				C75.9,45.7,75.5,45.3,75,45.3z"/>
			<path fill="#1D9CD8" d="M75,100c-0.5,0-0.9,0.4-0.9,0.9v2.9c0,0.5,0.4,0.9,0.9,0.9c0.5,0,0.9-0.4,0.9-0.9v-2.9
				C75.9,100.4,75.5,100,75,100z"/>
			<path fill="#1D9CD8" d="M55.2,54c-0.3-0.3-0.9-0.3-1.2,0c-0.3,0.3-0.3,0.9,0,1.2l2.1,2.1c0.2,0.2,0.4,0.3,0.6,0.3
				c0.2,0,0.4-0.1,0.6-0.3c0.3-0.3,0.3-0.9,0-1.2L55.2,54z"/>
			<path fill="#1D9CD8" d="M93.9,92.7c-0.3-0.3-0.9-0.3-1.2,0c-0.3,0.3-0.3,0.9,0,1.2l2.1,2.1c0.2,0.2,0.4,0.3,0.6,0.3
				c0.2,0,0.4-0.1,0.6-0.3c0.3-0.3,0.3-0.9,0-1.2L93.9,92.7z"/>
			<path fill="#1D9CD8" d="M94.8,54l-2.1,2.1c-0.3,0.3-0.3,0.9,0,1.2c0.2,0.2,0.4,0.3,0.6,0.3c0.2,0,0.4-0.1,0.6-0.3l2.1-2.1
				c0.3-0.3,0.3-0.9,0-1.2C95.7,53.7,95.1,53.7,94.8,54z"/>
			<path fill="#1D9CD8" d="M56.1,92.7L54,94.8c-0.3,0.3-0.3,0.9,0,1.2c0.2,0.2,0.4,0.3,0.6,0.3s0.4-0.1,0.6-0.3l2.1-2.1
				c0.3-0.3,0.3-0.9,0-1.2C57,92.4,56.4,92.4,56.1,92.7z"/>
		</g>
	</g>
</g>
<g id="Capa_4">
</g>
<g id="Capa_2">
</g>
</svg>
