<?xml version="1.0" encoding="utf-8"?>
<!-- Generator: Adobe Illustrator 18.0.0, SVG Export Plug-In . SVG Version: 6.00 Build 0)  -->
<!DOCTYPE svg PUBLIC "-//W3C//DTD SVG 1.1//EN" "http://www.w3.org/Graphics/SVG/1.1/DTD/svg11.dtd">
<svg version="1.1" xmlns="http://www.w3.org/2000/svg" xmlns:xlink="http://www.w3.org/1999/xlink" x="0px" y="0px"
	 viewBox="0 0 150 150" enable-background="new 0 0 150 150" xml:space="preserve">
<g id="Capa_1" display="none">
	<g display="inline">
		<path fill="#F8AE42" d="M51.8,64.4c-2.4,0-4.4,2-4.4,4.4v2.4c0,0.4,0.3,0.6,0.6,0.6h7.6c0.4,0,0.6-0.3,0.6-0.6v-2.4
			C56.3,66.4,54.3,64.4,51.8,64.4z"/>
		<path fill="#22376C" d="M97.1,64.2h-7.7c-0.4,0-0.6,0.3-0.6,0.6v11.8c0,0.4,0.3,0.6,0.6,0.6h7.7c0.4,0,0.6-0.3,0.6-0.6V64.9
			C97.7,64.5,97.4,64.2,97.1,64.2z"/>
		<rect x="88.7" y="70.3" fill="#124F9D" width="9" height="6.2"/>
		<path fill="#22376C" d="M86.9,64.2h-7.7c-0.4,0-0.6,0.3-0.6,0.6v11.8c0,0.4,0.3,0.6,0.6,0.6h7.7c0.4,0,0.6-0.3,0.6-0.6V64.9
			C87.5,64.5,87.3,64.2,86.9,64.2z"/>
		<path fill="#124F9D" d="M86.8,64.3h-7.5c-0.4,0-0.7,0.3-0.7,0.7v4.9h9V65C87.5,64.6,87.2,64.3,86.8,64.3z"/>
		<path fill="#22376C" d="M76.7,58.1H69c-0.4,0-0.6,0.3-0.6,0.6v17.9c0,0.4,0.3,0.6,0.6,0.6h7.7c0.4,0,0.6-0.3,0.6-0.6V58.8
			C77.4,58.4,77.1,58.1,76.7,58.1z"/>
		<path fill="#F29323" d="M55.9,67.1l-0.2-0.4H48l-0.2,0.4c-0.3,0.6-0.4,1.2-0.4,1.8v3h8.9v-3C56.3,68.2,56.1,67.6,55.9,67.1z"/>
		<path fill="#22376C" d="M61.1,70.6H45.8c-0.4,0-0.6,0.3-0.6,0.6v5.4c0,0.4,0.3,0.6,0.6,0.6h15.3c0.4,0,0.6-0.3,0.6-0.6v-5.4
			C61.8,70.9,61.5,70.6,61.1,70.6z"/>
		<rect x="68.4" y="70.3" fill="#124F9D" width="9" height="6.2"/>
		<path fill="#F8AE42" d="M107.3,76.4c-0.1-0.3-0.3-0.5-0.6-0.5H43.1c-0.2,0-0.4,0.1-0.5,0.3c-0.1,0.2-0.1,0.4,0,0.6l3.8,7.4
			c0.1,0.2,0.3,0.4,0.6,0.4c0.1,0,0.2,0,0.3-0.1c0.2-0.1,0.4-0.3,0.4-0.6h47.2c0,0.1,0,0.2,0.1,0.4c0.2,0.3,0.6,0.4,0.9,0.2
			l11.4-7.4C107.3,77,107.4,76.7,107.3,76.4z"/>
		<polygon fill="#F29323" points="43.6,79.1 46.4,84.7 95.6,84.7 104.2,79.1 		"/>
		<path fill="#22376C" d="M102.9,85.2L99.9,83c-1.9-1.3-4.1-1.3-5.9,0l0,0c-1.8,1.3-4.1,1.3-5.9,0L87.9,83c-1.9-1.3-4.1-1.3-5.9,0
			l0,0c-1.8,1.3-4.1,1.3-5.9,0L76,83c-1.9-1.3-4.1-1.3-5.9,0l0,0c-1.8,1.3-4.1,1.3-5.9,0L64,83c-1.9-1.3-4.1-1.3-5.9,0l0,0
			c-1.8,1.3-4.1,1.3-5.9,0L52.1,83c-1.9-1.3-4.1-1.3-5.9,0l-2.9,2.1H102.9z"/>
		<path fill="#22376C" d="M107.6,91.9l-3.1-2.2c-1.9-1.3-4.1-1.3-5.9,0l0,0c-1.8,1.3-4.1,1.3-5.9,0l-0.1-0.1c-1.9-1.3-4.1-1.3-5.9,0
			h0c-1.8,1.3-4.1,1.3-5.9,0l-0.1-0.1c-1.9-1.3-4.1-1.3-5.9,0l0,0c-1.8,1.3-4.1,1.3-5.9,0l-0.1-0.1c-1.9-1.3-4.1-1.3-5.9,0l0,0
			c-1.8,1.3-4.1,1.3-5.9,0l-0.1-0.1c-1.9-1.3-4.1-1.3-5.9,0l-2.9,2.1H107.6z"/>
		<path fill="#124F9D" d="M76.7,58.1h-7.5c-0.4,0-0.7,0.3-0.7,0.7v4.9h9v-4.9C77.4,58.4,77.1,58.1,76.7,58.1z"/>
	</g>
</g>
<g id="Capa_5">
	<g>
		<path fill="#214084" d="M73.7,39.8c-0.4,0-0.9,0-1.3-0.1v5.2c0,0.7,0.6,1.3,1.3,1.3c0.7,0,1.3-0.6,1.3-1.3v-5.2
			C74.6,39.7,74.2,39.8,73.7,39.8z"/>
		<g>
			<path fill="#214084" d="M73.7,41.1c-4.5,0-8.1-3.6-8.1-8.1s3.6-8.1,8.1-8.1c4.5,0,8.1,3.6,8.1,8.1S78.2,41.1,73.7,41.1z
				 M73.7,27.5c-3,0-5.5,2.5-5.5,5.5c0,3,2.5,5.5,5.5,5.5c3,0,5.5-2.5,5.5-5.5C79.2,30,76.7,27.5,73.7,27.5z"/>
		</g>
		<path fill="#214084" d="M57.2,52.1l-5.1-6.9c-0.4-0.6-1.3-0.7-1.8-0.3l-6,4.5c-0.3,0.2-0.5,0.5-0.5,0.9c-0.1,0.3,0,0.7,0.2,1
			l5.1,6.9c0.3,0.3,0.7,0.5,1.1,0.5c0.3,0,0.5-0.1,0.8-0.3l6-4.5c0.3-0.2,0.5-0.5,0.5-0.9C57.5,52.7,57.4,52.4,57.2,52.1z"/>
		<path fill="#214084" d="M103.3,49.4l-6-4.5c-0.3-0.2-0.6-0.3-1-0.2c-0.3,0.1-0.7,0.2-0.9,0.5l-5.1,6.9c-0.4,0.6-0.3,1.4,0.3,1.8
			l6,4.5c0.2,0.2,0.5,0.3,0.8,0.3c0.1,0,0.1,0,0.2,0c0.3-0.1,0.7-0.2,0.9-0.5l5.1-6.9C104,50.7,103.9,49.9,103.3,49.4z"/>
		<path fill="#5EB2D3" d="M102.4,56c-7.7-7.7-17.8-11.9-28.6-11.9c-10.8,0-21,4.2-28.6,11.9c-7.7,7.7-11.9,17.8-11.9,28.6
			c0,10.8,4.2,21,11.9,28.6c7.7,7.7,17.8,11.9,28.6,11.9c10.8,0,21-4.2,28.6-11.9c7.7-7.7,11.9-17.8,11.9-28.6
			C114.2,73.8,110,63.6,102.4,56z"/>
		<g>
			<circle fill="#FFFFFF" cx="73.7" cy="84.6" r="29.5"/>
			<path fill="#214084" d="M73.7,115.5c-17,0-30.8-13.8-30.8-30.8c0-17,13.8-30.8,30.8-30.8c17,0,30.8,13.8,30.8,30.8
				C104.6,101.6,90.7,115.5,73.7,115.5z M73.7,56.4c-15.6,0-28.2,12.7-28.2,28.2c0,15.6,12.7,28.2,28.2,28.2
				c15.6,0,28.2-12.7,28.2-28.2C101.9,69.1,89.3,56.4,73.7,56.4z"/>
		</g>
		<path fill="#214084" d="M73.7,53.8c-0.7,0-1.3,0.6-1.3,1.3V63c0,0.7,0.6,1.3,1.3,1.3c0.7,0,1.3-0.6,1.3-1.3v-7.9
			C75,54.4,74.4,53.8,73.7,53.8z"/>
		<path fill="#214084" d="M73.7,104.9c-0.7,0-1.3,0.6-1.3,1.3v7.9c0,0.7,0.6,1.3,1.3,1.3c0.7,0,1.3-0.6,1.3-1.3v-7.9
			C75,105.5,74.4,104.9,73.7,104.9z"/>
		<path fill="#214084" d="M103.2,83.3h-7.9c-0.7,0-1.3,0.6-1.3,1.3c0,0.7,0.6,1.3,1.3,1.3h7.9c0.7,0,1.3-0.6,1.3-1.3
			C104.6,83.9,104,83.3,103.2,83.3z"/>
		<path fill="#214084" d="M52.1,83.3h-7.9c-0.7,0-1.3,0.6-1.3,1.3c0,0.7,0.6,1.3,1.3,1.3h7.9c0.7,0,1.3-0.6,1.3-1.3
			C53.4,83.9,52.8,83.3,52.1,83.3z"/>
		<path fill="#FFD500" d="M91.6,65.5c-0.3-0.3-0.8-0.4-1.3-0.3c-11.1,3.6-17.5,18.3-17.8,18.9c-0.2,0.5-0.1,1.1,0.3,1.5
			c0.2,0.2,0.6,0.3,0.9,0.3c0.2,0,0.4-0.1,0.6-0.2c0.2-0.1,3.9-2.1,7.9-5.4c5.5-4.5,8.8-9.1,9.7-13.7C92.1,66.2,91.9,65.8,91.6,65.5
			z"/>
		<g>
			<path fill="#FFE36E" d="M142.4,88.6l-7.8-7.8c-0.2-0.2-0.6-0.4-0.9-0.4s-0.7,0.1-0.9,0.4l-26.1,26.1L94.8,95.1
				c-0.5-0.5-1.3-0.5-1.9,0l-7.1,7.1c-0.5,0.5-0.5,1.3,0,1.9l20.5,20.5c0.3,0.3,0.6,0.4,0.9,0.4c0.3,0,0.7-0.1,0.9-0.4l34.2-34.2
				C142.9,89.9,142.9,89.1,142.4,88.6z"/>
			<path fill="#FFD500" d="M107,106.9c-0.1,0-0.2,0-0.3,0.1L94.8,95.1c-0.5-0.5-1.3-0.5-1.9,0l-7.1,7.1c-0.5,0.5-0.5,1.3,0,1.9
				l20.4,20.4c0.2,0.2,0.4,0.3,0.7,0.4V106.9z"/>
		</g>
	</g>
</g>
<g id="Capa_1_copia" display="none">
	<g display="inline">
		<path fill="#FCEA18" d="M51.8,64.4c-2.4,0-4.4,2-4.4,4.4v2.4c0,0.4,0.3,0.6,0.6,0.6h7.6c0.4,0,0.6-0.3,0.6-0.6v-2.4
			C56.3,66.4,54.3,64.4,51.8,64.4z"/>
		<path fill="#FFD500" d="M97.1,64.2h-7.7c-0.4,0-0.6,0.3-0.6,0.6v11.8c0,0.4,0.3,0.6,0.6,0.6h7.7c0.4,0,0.6-0.3,0.6-0.6V64.9
			C97.7,64.5,97.4,64.2,97.1,64.2z"/>
		<rect x="88.7" y="70.3" fill="#1D9CD8" width="9" height="6.2"/>
		<path fill="#FFD500" d="M86.9,64.2h-7.7c-0.4,0-0.6,0.3-0.6,0.6v11.8c0,0.4,0.3,0.6,0.6,0.6h7.7c0.4,0,0.6-0.3,0.6-0.6V64.9
			C87.5,64.5,87.3,64.2,86.9,64.2z"/>
		<path fill="#1D9CD8" d="M86.8,64.3h-7.5c-0.4,0-0.7,0.3-0.7,0.7v4.9h9V65C87.5,64.6,87.2,64.3,86.8,64.3z"/>
		<path fill="#FFD500" d="M76.7,58.1H69c-0.4,0-0.6,0.3-0.6,0.6v17.9c0,0.4,0.3,0.6,0.6,0.6h7.7c0.4,0,0.6-0.3,0.6-0.6V58.8
			C77.4,58.4,77.1,58.1,76.7,58.1z"/>
		<path fill="#FFEC00" d="M55.9,67.1l-0.2-0.4H48l-0.2,0.4c-0.3,0.6-0.4,1.2-0.4,1.8v3h8.9v-3C56.3,68.2,56.1,67.6,55.9,67.1z"/>
		<path fill="#35A8E0" d="M61.1,70.6H45.8c-0.4,0-0.6,0.3-0.6,0.6v5.4c0,0.4,0.3,0.6,0.6,0.6h15.3c0.4,0,0.6-0.3,0.6-0.6v-5.4
			C61.8,70.9,61.5,70.6,61.1,70.6z"/>
		<rect x="68.4" y="70.3" fill="#1D9CD8" width="9" height="6.2"/>
		<path fill="#FCEA18" d="M107.3,76.4c-0.1-0.3-0.3-0.5-0.6-0.5H43.1c-0.2,0-0.4,0.1-0.5,0.3c-0.1,0.2-0.1,0.4,0,0.6l3.8,7.4
			c0.1,0.2,0.3,0.4,0.6,0.4c0.1,0,0.2,0,0.3-0.1c0.2-0.1,0.4-0.3,0.4-0.6h47.2c0,0.1,0,0.2,0.1,0.4c0.2,0.3,0.6,0.4,0.9,0.2
			l11.4-7.4C107.3,77,107.4,76.7,107.3,76.4z"/>
		<polygon fill="#FFEC00" points="43.6,79.1 46.4,84.7 95.6,84.7 104.2,79.1 		"/>
		<path fill="#35A8E0" d="M102.9,85.2L99.9,83c-1.9-1.3-4.1-1.3-5.9,0l0,0c-1.8,1.3-4.1,1.3-5.9,0L87.9,83c-1.9-1.3-4.1-1.3-5.9,0
			l0,0c-1.8,1.3-4.1,1.3-5.9,0L76,83c-1.9-1.3-4.1-1.3-5.9,0l0,0c-1.8,1.3-4.1,1.3-5.9,0L64,83c-1.9-1.3-4.1-1.3-5.9,0l0,0
			c-1.8,1.3-4.1,1.3-5.9,0L52.1,83c-1.9-1.3-4.1-1.3-5.9,0l-2.9,2.1H102.9z"/>
		<path fill="#35A8E0" d="M107.6,91.9l-3.1-2.2c-1.9-1.3-4.1-1.3-5.9,0l0,0c-1.8,1.3-4.1,1.3-5.9,0l-0.1-0.1c-1.9-1.3-4.1-1.3-5.9,0
			h0c-1.8,1.3-4.1,1.3-5.9,0l-0.1-0.1c-1.9-1.3-4.1-1.3-5.9,0l0,0c-1.8,1.3-4.1,1.3-5.9,0l-0.1-0.1c-1.9-1.3-4.1-1.3-5.9,0l0,0
			c-1.8,1.3-4.1,1.3-5.9,0l-0.1-0.1c-1.9-1.3-4.1-1.3-5.9,0l-2.9,2.1H107.6z"/>
		<path fill="#1D9CD8" d="M76.7,58.1h-7.5c-0.4,0-0.7,0.3-0.7,0.7v4.9h9v-4.9C77.4,58.4,77.1,58.1,76.7,58.1z"/>
	</g>
</g>
<g id="Capa_4">
</g>
<g id="Capa_2">
</g>
</svg>
