<?xml version="1.0" encoding="utf-8"?>
<!-- Generator: Adobe Illustrator 18.0.0, SVG Export Plug-In . SVG Version: 6.00 Build 0)  -->
<!DOCTYPE svg PUBLIC "-//W3C//DTD SVG 1.1//EN" "http://www.w3.org/Graphics/SVG/1.1/DTD/svg11.dtd">
<svg version="1.1" xmlns="http://www.w3.org/2000/svg" xmlns:xlink="http://www.w3.org/1999/xlink" x="0px" y="0px"
	 viewBox="0 0 150 150" enable-background="new 0 0 150 150" xml:space="preserve">
<g id="Capa_1" display="none">
</g>
<g id="Capa_5">
	<g>
		<path fill="#214084" d="M52.7,55c-0.6-0.3-1.2-0.4-1.8-0.1L27.5,66.2c-0.6,0.3-1.1,1-1.1,1.7v56.7c0,0.7,0.3,1.3,0.9,1.6
			c0.3,0.2,0.7,0.3,1,0.3c0.3,0,0.6-0.1,0.8-0.2L52.5,115c0.6-0.3,1.1-1,1.1-1.7V56.6C53.5,55.9,53.2,55.3,52.7,55z"/>
		<path fill="#214084" d="M99.3,55c-0.6-0.3-1.2-0.4-1.8-0.1L74.2,66.2c-0.6,0.3-1.1,1-1.1,1.7v56.7c0,0.7,0.3,1.3,0.9,1.6
			c0.3,0.2,0.7,0.3,1,0.3c0.3,0,0.6-0.1,0.8-0.2L99.2,115c0.6-0.3,1.1-1,1.1-1.7V56.6C100.2,55.9,99.9,55.3,99.3,55z"/>
		<path fill="#FFE36E" d="M96.6,44.9c0-11.8-9.6-21.5-21.5-21.5c-11.8,0-21.4,9.6-21.4,21.5c0,0-0.5,21.6,21.4,43.6
			C97.1,66.5,96.6,44.9,96.6,44.9z"/>
		<path fill="#5EB2D3" d="M122.5,66.2L99.2,54.9c-0.3-0.1-0.5-0.2-0.8-0.2v60.7l22.5,11c0.3,0.1,0.5,0.2,0.8,0.2
			c0.3,0,0.7-0.1,1-0.3c0.6-0.3,0.9-0.9,0.9-1.6V67.9C123.6,67.2,123.2,66.6,122.5,66.2z"/>
		<path fill="#5EB2D3" d="M75,65.8l-22.5-11c-0.1-0.1-0.2-0.1-0.3-0.1v60.5l22,11.1c0.3,0.1,0.5,0.2,0.8,0.2l0,0V65.8z"/>
		<path fill="#FFD500" d="M75.4,23.4c-0.1,0-0.2,0-0.3,0c-11.8,0-21.4,9.6-21.4,21.5c0,0-0.5,21.6,21.4,43.6
			c0.1-0.1,0.2-0.2,0.3-0.3V23.4z"/>
		<circle fill="#FFFFFF" cx="75.1" cy="44.8" r="8.8"/>
	</g>
</g>
<g id="Capa_1_copia" display="none">
	<g display="inline">
		<path fill="#35A8E0" d="M66.3,59.7c-0.3-0.2-0.6-0.2-0.8,0l-10.6,5.2c-0.3,0.1-0.5,0.4-0.5,0.8v25.9c0,0.3,0.2,0.6,0.4,0.7
			c0.1,0.1,0.3,0.1,0.5,0.1c0.1,0,0.3,0,0.4-0.1L66.2,87c0.3-0.1,0.5-0.4,0.5-0.8V60.4C66.7,60.1,66.6,59.8,66.3,59.7z"/>
		<path fill="#35A8E0" d="M87.6,59.7c-0.3-0.2-0.6-0.2-0.8,0l-10.6,5.2c-0.3,0.1-0.5,0.4-0.5,0.8v25.9c0,0.3,0.2,0.6,0.4,0.7
			c0.1,0.1,0.3,0.1,0.5,0.1c0.1,0,0.3,0,0.4-0.1L87.5,87c0.3-0.1,0.5-0.4,0.5-0.8V60.4C88,60.1,87.8,59.8,87.6,59.7z"/>
		<path fill="#FCEA18" d="M86.3,55.1c0-5.4-4.4-9.8-9.8-9.8c-5.4,0-9.8,4.4-9.8,9.8c0,0-0.2,9.8,9.8,19.9
			C86.6,64.9,86.3,55.1,86.3,55.1z"/>
		<path fill="#1D9CD8" d="M98.1,64.8l-10.6-5.2c-0.1-0.1-0.2-0.1-0.4-0.1v27.7l10.3,5c0.1,0.1,0.2,0.1,0.4,0.1c0.2,0,0.3,0,0.5-0.1
			c0.3-0.2,0.4-0.4,0.4-0.7V65.6C98.6,65.3,98.4,65,98.1,64.8z"/>
		<path fill="#1D9CD8" d="M76.5,64.6l-10.3-5c0,0-0.1,0-0.2-0.1v27.6l10,5.1c0.1,0.1,0.2,0.1,0.4,0.1l0,0V64.6z"/>
		<path fill="#FFEC00" d="M76.7,45.3c0,0-0.1,0-0.1,0c-5.4,0-9.8,4.4-9.8,9.8c0,0-0.2,9.8,9.8,19.9c0,0,0.1-0.1,0.1-0.1V45.3z"/>
		<circle fill="#FFFFFF" cx="76.5" cy="55.1" r="4"/>
	</g>
</g>
<g id="Capa_4">
</g>
<g id="Capa_2">
</g>
</svg>
