<?xml version="1.0" encoding="utf-8"?>
<!-- Generator: Adobe Illustrator 18.0.0, SVG Export Plug-In . SVG Version: 6.00 Build 0)  -->
<!DOCTYPE svg PUBLIC "-//W3C//DTD SVG 1.1//EN" "http://www.w3.org/Graphics/SVG/1.1/DTD/svg11.dtd">
<svg version="1.1" xmlns="http://www.w3.org/2000/svg" xmlns:xlink="http://www.w3.org/1999/xlink" x="0px" y="0px"
	 viewBox="0 0 150 150" enable-background="new 0 0 150 150" xml:space="preserve">
<g id="Capa_1" display="none">
</g>
<g id="Capa_5">
	<g>
		<path fill="#274587" d="M75.3,22.4c12.7,0,25.5,0,38.2,0c10.5,0,16.5,6,16.5,16.5c0,17.7,0,35.4,0,53.2c0,9.8-5.9,16.2-15.8,16.3
			c-26.1,0.1-52.2,0.1-78.3,0c-9.7,0-15.8-6.4-15.9-16.3c-0.1-17.9-0.1-35.8,0-53.6c0.1-9.8,6.3-15.9,16.1-16
			C49.2,22.4,62.3,22.4,75.3,22.4z M75.2,88.3c14.3,0,28.7-0.1,43,0.1c3.2,0,4.1-0.8,4.1-4c-0.2-13.8-0.1-27.7,0-41.5
			c0-3-0.5-4.2-3.9-4.2c-28.8,0.1-57.6,0.1-86.5,0c-3,0-3.8,0.8-3.8,3.8c0.1,13.8,0.2,27.7,0,41.5c-0.1,3.8,1.3,4.5,4.7,4.4
			C46.9,88.2,61.1,88.3,75.2,88.3z"/>
		<path fill="#2B4989" d="M75.1,131.6c-7.1,0-14.2,0-21.2,0c-2.5,0-4.6-0.3-4.5-3.5c0.1-3,2.2-3,4.4-3.1c5.4-0.3,7.2-2,6.8-7.6
			c-0.4-4.8,1.2-6.1,5.9-5.8c6.2,0.4,12.6,0.3,18.8,0c3.4-0.1,4.4,1,4.3,4.4c-0.1,7.3,0.8,8.2,8,9c2.1,0.2,3.5,0.8,3.5,3.1
			c0,2.4-1.4,3.5-3.7,3.5C89.9,131.6,82.5,131.6,75.1,131.6z"/>
		<path fill="#FDFDFD" d="M75.2,88.3c-14.2,0-28.3-0.1-42.5,0.1c-3.4,0-4.7-0.6-4.7-4.4c0.3-13.8,0.2-27.7,0-41.5
			c0-3,0.9-3.8,3.8-3.8c28.8,0.1,57.6,0.1,86.5,0c3.4,0,3.9,1.2,3.9,4.2c-0.1,13.8-0.2,27.7,0,41.5c0,3.2-0.9,4.1-4.1,4
			C103.9,88.2,89.6,88.3,75.2,88.3z M77.6,71.6c18.7-0.4,13.3,2.8,21.5-13.6c0.1-0.3,0.3-0.6,0.4-0.9c2.3-5.1,1.6-6.3-4-6.4
			c-10.8-0.1-21.6,0-32.3-0.1c-1.6,0-3.9,0.8-4.6-1.5c-1.6-5.3-5.7-4.7-9.7-4.7c-1.9,0-3.7,0.2-3.6,2.7c0.1,2.1,1.8,2.7,3.5,2.4
			c3.7-0.6,5.2,1.4,6.3,4.4c0.5,1.4,1.2,2.6,1.8,4C64.5,74.7,59.8,71.2,77.6,71.6z M64.3,78.3c0.1,3.9,3.6,5.9,6.8,3.9
			c4.5-2.8,8.9-2.7,13.3-0.1c2.2,1.3,4.3,1.3,6-0.8c1.6-2,1.7-4.2,0-6.1c-1.7-2-3.9-2-6.1-0.6c-4.4,2.9-8.8,3-13.2-0.1
			c-1.6-1.1-3.3-1-5,0C64.7,75.3,64.1,76.8,64.3,78.3z"/>
		<path fill="#FED70F" d="M77.6,71.6c-17.9-0.4-13.1,3-20.9-13.5c-0.6-1.3-1.3-2.6-1.8-4c-1-3-2.6-5-6.3-4.4
			c-1.7,0.3-3.4-0.3-3.5-2.4c-0.1-2.5,1.7-2.7,3.6-2.7c4,0,8.2-0.7,9.7,4.7c0.7,2.3,3,1.5,4.6,1.5c10.8,0.1,21.6,0,32.3,0.1
			c5.6,0,6.3,1.3,4,6.4c-0.1,0.3-0.3,0.6-0.4,0.9C90.9,74.5,96.4,71.3,77.6,71.6z M72.1,61.5c0-1.3,0-2.5,0-3.8
			c0-1.8-1.2-2.3-2.5-1.9c-3.5,1-1.5,4-1.8,6c-0.2,1.6-1.2,4.1,1.9,4.5c1.5,0.2,2.5-0.3,2.4-2C72,63.4,72.1,62.5,72.1,61.5z
			 M79.8,61c0-0.8,0-1.6,0-2.4c0-1.5,0.1-3-2.2-2.8c-1.9,0.1-1.8,1.5-1.8,2.8c0,1.9,0,3.9,0,5.8c0,1.3,0.5,2.1,1.9,2.1
			c1.4,0,2-0.6,2-2C79.8,63.3,79.8,62.2,79.8,61z M87.7,61.4c0-1,0-1.9,0-2.9c0-1.3,0.1-2.6-1.8-2.7c-2.2-0.1-2.1,1.4-2.1,2.9
			c0,1.9,0,3.9,0,5.8c0,1.4,0.6,2,2,2c1.5,0,2-0.8,1.9-2.1C87.7,63.3,87.7,62.4,87.7,61.4z"/>
		<path fill="#65B5D4" d="M64.3,78.3c-0.1-1.5,0.4-3,2-3.9c1.6-1,3.4-1.1,5,0c4.4,3.1,8.7,3,13.2,0.1c2.1-1.4,4.3-1.4,6.1,0.6
			c1.7,2,1.6,4.2,0,6.1c-1.7,2.1-3.8,2.1-6,0.8c-4.5-2.6-8.8-2.8-13.3,0.1C67.8,84.2,64.4,82.2,64.3,78.3z"/>
		<path fill="#FDFDFD" d="M72.1,61.5c0,1,0,1.9,0,2.9c0.1,1.8-0.9,2.2-2.4,2c-3.1-0.4-2-2.9-1.9-4.5c0.2-2.1-1.7-5,1.8-6
			c1.3-0.4,2.6,0,2.5,1.9C72.1,59,72.1,60.3,72.1,61.5z"/>
		<path fill="#FDFDFD" d="M79.8,61c0,1.1,0,2.2,0,3.4c0,1.4-0.6,2.1-2,2c-1.5,0-2-0.8-1.9-2.1c0-1.9,0-3.9,0-5.8
			c0-1.3-0.1-2.6,1.8-2.8c2.2-0.1,2.2,1.3,2.2,2.8C79.8,59.4,79.8,60.2,79.8,61z"/>
		<path fill="#FDFDFD" d="M87.7,61.4c0,1,0,1.9,0,2.9c0,1.3-0.5,2.1-1.9,2.1c-1.4,0-2-0.6-2-2c0-1.9,0-3.9,0-5.8
			c0-1.5-0.1-3,2.1-2.9c1.9,0.1,1.8,1.4,1.8,2.7C87.7,59.5,87.7,60.5,87.7,61.4z"/>
	</g>
</g>
<g id="Capa_1_copia" display="none">
	<g display="inline">
		<path fill="#35A8E0" d="M68,57.7c-0.2,0-0.4,0-0.6-0.1v2.6c0,0.4,0.3,0.6,0.6,0.6c0.4,0,0.6-0.3,0.6-0.6v-2.6
			C68.4,57.7,68.2,57.7,68,57.7z"/>
		<g>
			<path fill="#35A8E0" d="M68,58.3c-2.2,0-4-1.8-4-4s1.8-4,4-4c2.2,0,4,1.8,4,4S70.2,58.3,68,58.3z M68,51.6
				c-1.5,0-2.7,1.2-2.7,2.7c0,1.5,1.2,2.7,2.7,2.7c1.5,0,2.7-1.2,2.7-2.7C70.7,52.8,69.5,51.6,68,51.6z"/>
		</g>
		<path fill="#35A8E0" d="M59.9,63.7l-2.5-3.4c-0.2-0.3-0.6-0.3-0.9-0.1l-3,2.2c-0.1,0.1-0.2,0.3-0.3,0.4c0,0.2,0,0.3,0.1,0.5
			l2.5,3.4c0.1,0.2,0.3,0.3,0.5,0.3c0.1,0,0.3,0,0.4-0.1l3-2.2c0.1-0.1,0.2-0.3,0.3-0.4C60,64.1,60,63.9,59.9,63.7z"/>
		<path fill="#35A8E0" d="M82.5,62.4l-3-2.2c-0.1-0.1-0.3-0.1-0.5-0.1c-0.2,0-0.3,0.1-0.4,0.3l-2.5,3.4c-0.2,0.3-0.2,0.7,0.1,0.9
			l3,2.2c0.1,0.1,0.2,0.1,0.4,0.1c0,0,0.1,0,0.1,0c0.2,0,0.3-0.1,0.4-0.3l2.5-3.4C82.9,63.1,82.8,62.6,82.5,62.4z"/>
		<path fill="#1D9CD8" d="M82.1,65.6c-3.8-3.8-8.8-5.8-14.1-5.8c-5.3,0-10.3,2.1-14.1,5.8c-3.8,3.8-5.8,8.8-5.8,14.1
			c0,5.3,2.1,10.3,5.8,14.1c3.8,3.8,8.8,5.8,14.1,5.8c5.3,0,10.3-2.1,14.1-5.8c3.8-3.8,5.8-8.8,5.8-14.1
			C87.9,74.4,85.8,69.4,82.1,65.6z"/>
		<g>
			<circle fill="#FFFFFF" cx="68" cy="79.7" r="14.5"/>
			<path fill="#35A8E0" d="M68,94.9c-8.4,0-15.2-6.8-15.2-15.2c0-8.4,6.8-15.2,15.2-15.2c8.4,0,15.2,6.8,15.2,15.2
				C83.1,88.1,76.3,94.9,68,94.9z M68,65.9c-7.6,0-13.9,6.2-13.9,13.9c0,7.6,6.2,13.9,13.9,13.9c7.6,0,13.9-6.2,13.9-13.9
				C81.8,72.1,75.6,65.9,68,65.9z"/>
		</g>
		<path fill="#35A8E0" d="M68,64.6c-0.4,0-0.6,0.3-0.6,0.6v3.9c0,0.4,0.3,0.6,0.6,0.6c0.4,0,0.6-0.3,0.6-0.6v-3.9
			C68.6,64.9,68.3,64.6,68,64.6z"/>
		<path fill="#35A8E0" d="M68,89.7c-0.4,0-0.6,0.3-0.6,0.6v3.9c0,0.4,0.3,0.6,0.6,0.6c0.4,0,0.6-0.3,0.6-0.6v-3.9
			C68.6,90,68.3,89.7,68,89.7z"/>
		<path fill="#35A8E0" d="M82.5,79.1h-3.9c-0.4,0-0.6,0.3-0.6,0.6c0,0.4,0.3,0.6,0.6,0.6h3.9c0.4,0,0.6-0.3,0.6-0.6
			C83.1,79.4,82.8,79.1,82.5,79.1z"/>
		<path fill="#35A8E0" d="M57.3,79.1h-3.9c-0.4,0-0.6,0.3-0.6,0.6c0,0.4,0.3,0.6,0.6,0.6h3.9c0.4,0,0.6-0.3,0.6-0.6
			C58,79.4,57.7,79.1,57.3,79.1z"/>
		<path fill="#FFEC00" d="M76.8,70.3c-0.2-0.2-0.4-0.2-0.6-0.1c-5.4,1.8-8.6,9-8.7,9.3c-0.1,0.3,0,0.5,0.2,0.7
			c0.1,0.1,0.3,0.2,0.4,0.2c0.1,0,0.2,0,0.3-0.1c0.1,0,1.9-1,3.9-2.7c2.7-2.2,4.3-4.5,4.8-6.7C77,70.7,76.9,70.5,76.8,70.3z"/>
		<g>
			<path fill="#FCEA18" d="M101.8,81.7l-3.8-3.8c-0.1-0.1-0.3-0.2-0.5-0.2s-0.3,0.1-0.5,0.2L84.2,90.7l-5.8-5.8
				c-0.3-0.3-0.7-0.3-0.9,0l-3.5,3.5c-0.3,0.3-0.3,0.7,0,0.9L84,99.4c0.1,0.1,0.3,0.2,0.5,0.2c0.2,0,0.3-0.1,0.5-0.2l16.8-16.8
				C102,82.3,102,81.9,101.8,81.7z"/>
			<path fill="#FFEC00" d="M84.3,90.7c0,0-0.1,0-0.1,0l-5.8-5.8c-0.3-0.3-0.7-0.3-0.9,0l-3.5,3.5c-0.3,0.3-0.3,0.7,0,0.9L84,99.3
				c0.1,0.1,0.2,0.2,0.3,0.2V90.7z"/>
		</g>
	</g>
</g>
<g id="Capa_4">
</g>
<g id="Capa_2">
</g>
</svg>
