<?xml version="1.0" encoding="utf-8"?>
<!-- Generator: Adobe Illustrator 18.0.0, SVG Export Plug-In . SVG Version: 6.00 Build 0)  -->
<!DOCTYPE svg PUBLIC "-//W3C//DTD SVG 1.1//EN" "http://www.w3.org/Graphics/SVG/1.1/DTD/svg11.dtd">
<svg version="1.1" xmlns="http://www.w3.org/2000/svg" xmlns:xlink="http://www.w3.org/1999/xlink" x="0px" y="0px"
	 viewBox="0 0 150 150" enable-background="new 0 0 150 150" xml:space="preserve">
<g id="Capa_1" display="none">
	<g display="inline">
		<path fill="#22376C" d="M90.1,78.6c0,0.3,0,0.6,0,0.9c-0.2,4.2-1.7,8.1-4.5,11.3c-0.3,0.4-0.7,0.7-1,1.1c-0.1,0.1-0.2,0.2-0.2,0.2
			c-2.1,2-4.6,3.5-7.4,4.4h0c-0.9,0.3-1.8,0.5-2.7,0.6h0c-0.7,0.1-1.4,0.2-2.1,0.2c-0.3,0-0.6,0-0.9,0s-0.6,0-0.9,0
			c-0.6,0-1.2-0.1-1.8-0.2c-0.9-0.1-1.8-0.3-2.6-0.6h0c-2.9-0.8-5.5-2.4-7.7-4.5c-0.1-0.1-0.1-0.1-0.2-0.2c-0.4-0.4-0.7-0.7-1-1.1
			c-2.7-3.2-4.3-7.1-4.4-11.3c0-0.3,0-0.6,0-0.9c0-0.3,0-0.6,0-0.9c0.2-4.1,1.7-8,4.4-11.2c0.4-0.4,0.7-0.8,1.1-1.2
			c0,0,0.1-0.1,0.1-0.1c2.1-2.1,4.7-3.6,7.5-4.5c0.9-0.3,1.8-0.5,2.7-0.6h0c0.7-0.1,1.4-0.2,2.1-0.2c0.3,0,0.6,0,0.9,0s0.6,0,0.9,0
			c0.8,0,1.6,0.1,2.4,0.3c0.9,0.2,1.9,0.4,2.8,0.7c2.7,0.9,5.1,2.4,7.2,4.4c0,0,0.1,0.1,0.1,0.1c0.4,0.4,0.8,0.8,1.1,1.2
			c2.6,3.1,4.2,7,4.3,11.1C90,78,90.1,78.3,90.1,78.6z"/>
		<path fill="#124F9D" d="M84.6,91.8c3.5-3.5,5.5-8.2,5.5-13.2c0-5-1.9-9.7-5.5-13.2c-3.5-3.5-8.2-5.5-13.2-5.5v37.4
			C76.3,97.3,81,95.4,84.6,91.8z"/>
		<g>
			<path fill="#FFFFFF" d="M72.2,59.9v37.4c-0.3,0-0.6,0-0.9,0s-0.6,0-0.9,0V59.9c0.3,0,0.6,0,0.9,0S71.9,59.9,72.2,59.9z"/>
		</g>
		<g>
			<path fill="#FFFFFF" d="M90.1,78.6c0,0.3,0,0.6,0,0.9H52.6c0-0.3,0-0.6,0-0.9l0-0.9H90C90,78,90.1,78.3,90.1,78.6z"/>
		</g>
		<path fill="#FFFFFF" d="M68.7,97.1c-0.9-0.1-1.8-0.3-2.6-0.6h0c-1.5-2-2.8-4.1-3.8-6.2v0c-0.3-0.5-0.5-1.1-0.7-1.6
			c-0.8-1.9-1.3-3.8-1.7-5.7c-0.2-1.2-0.4-2.5-0.4-3.7c0-0.6,0-1.1,0-1.7c0.1-2.5,0.5-4.9,1.3-7.4c0.2-0.7,0.5-1.4,0.7-2
			c0.2-0.6,0.4-1.1,0.7-1.6c1.2-2.5,2.5-4.6,3.6-6c0.9-0.3,1.8-0.5,2.7-0.6c-0.4,0.5-1.2,1.4-2,2.6c-0.8,1.2-1.7,2.7-2.6,4.5
			c-0.2,0.5-0.5,1-0.7,1.6c-0.3,0.7-0.5,1.4-0.7,2.1c-0.7,2.3-1.1,4.6-1.2,6.8c0,0.6,0,1.1,0,1.7c0,1.1,0.2,2.3,0.4,3.4
			c0.3,1.8,0.9,3.6,1.6,5.4c0.2,0.5,0.5,1.1,0.7,1.6C65.1,92.4,66.7,94.8,68.7,97.1z"/>
		<path fill="#FFFFFF" d="M83.4,79.5c0,1.2-0.2,2.5-0.4,3.7c-0.4,2-0.9,4-1.8,5.9c-0.2,0.5-0.5,1.1-0.7,1.6c-1,2-2.2,3.9-3.6,5.8h0
			c-0.9,0.3-1.8,0.5-2.7,0.6c1.9-2.3,3.4-4.6,4.6-6.9c0.3-0.5,0.5-1.1,0.7-1.6c0.8-1.9,1.4-3.8,1.7-5.7c0.2-1.1,0.3-2.3,0.4-3.4
			c0-0.6,0-1.1,0-1.7c-0.1-2.3-0.5-4.6-1.2-6.8c-0.2-0.7-0.4-1.3-0.7-2c-0.2-0.6-0.4-1.1-0.7-1.6c-1.7-3.6-3.7-6.2-4.6-7.2
			c0.9,0.2,1.9,0.4,2.8,0.7c1.1,1.4,2.4,3.5,3.5,6c0.2,0.5,0.5,1,0.7,1.6c0.2,0.6,0.5,1.2,0.7,1.9c0.8,2.5,1.2,4.9,1.3,7.4
			C83.4,78.3,83.4,78.9,83.4,79.5z"/>
		<path fill="#FFFFFF" d="M85.7,66.6c-1.4,0.7-2.8,1.3-4.2,1.8c-0.5,0.2-1.1,0.4-1.6,0.5c-1.5,0.4-3,0.7-4.5,0.9
			c-1,0.1-2.1,0.2-3.2,0.2c-0.1,0-0.2,0-0.2,0c-0.2,0-0.4,0-0.6,0c-0.3,0-0.6,0-0.9,0c-1.6-0.1-3.1-0.3-4.7-0.6
			c-0.9-0.2-1.8-0.4-2.6-0.6c-0.6-0.2-1.1-0.3-1.7-0.5c-2.1-0.7-3.6-1.4-4.5-1.8c0.4-0.4,0.7-0.8,1.1-1.2c0,0,0.1-0.1,0.1-0.1
			c0.4,0.2,0.9,0.4,1.5,0.6c0.7,0.3,1.5,0.6,2.5,0.9c0.5,0.2,1.1,0.3,1.7,0.5c0.7,0.2,1.5,0.4,2.3,0.5c1.5,0.3,2.9,0.4,4.3,0.5
			c0.3,0,0.6,0,0.9,0c0.3,0,0.6,0,0.9,0c1,0,2-0.1,3-0.2c1.3-0.2,2.7-0.4,3.9-0.8c0.6-0.2,1.1-0.3,1.7-0.5c1.3-0.4,2.5-0.9,3.7-1.6
			c0,0,0.1,0.1,0.1,0.1C85,65.8,85.3,66.2,85.7,66.6z"/>
		<path fill="#FFFFFF" d="M58.3,92c1.3-0.7,2.6-1.2,4-1.6v0c0.6-0.2,1.1-0.3,1.7-0.5c1.1-0.3,2.3-0.5,3.5-0.6c1-0.1,2-0.2,3-0.2
			c0.6,0,1.1,0,1.7,0c1.4,0.1,2.9,0.2,4.3,0.5c0.8,0.2,1.6,0.3,2.3,0.5c0.6,0.2,1.2,0.3,1.7,0.5c1.6,0.5,2.9,1,3.8,1.4
			c0.1-0.1,0.2-0.2,0.2-0.2c0.4-0.4,0.7-0.7,1-1.1c-0.8-0.4-2.3-1.1-4.3-1.7c-0.5-0.2-1.1-0.3-1.7-0.5c-0.8-0.2-1.7-0.4-2.7-0.6
			c-1.6-0.3-3.2-0.5-4.7-0.6c-0.6,0-1.2,0-1.7,0c-1.1,0-2.1,0.1-3.2,0.2c-1.4,0.2-2.7,0.4-4.1,0.8c-0.6,0.1-1.1,0.3-1.7,0.5
			c-1.5,0.5-3,1.1-4.5,1.9L58.3,92z"/>
		<path fill="#F8AE42" d="M97.3,65.7c-0.1-0.3-0.4-0.5-0.8-0.5h-4.8V53.6c0-0.5-0.4-0.9-0.9-0.9h-7.3c-0.5,0-0.9,0.4-0.9,0.9v11.6
			h-4.8c-0.3,0-0.6,0.2-0.8,0.5c-0.1,0.3-0.1,0.7,0.1,0.9l9.1,11.2c0.2,0.2,0.4,0.3,0.7,0.3c0,0,0,0,0,0c0.3,0,0.5-0.1,0.7-0.3
			l9.6-11.2C97.4,66.4,97.5,66,97.3,65.7z"/>
		<path fill="#F29323" d="M86.8,52.7h-3.2c-0.5,0-0.9,0.4-0.9,0.9v11.6h-4.8c-0.3,0-0.7,0.2-0.8,0.5c-0.1,0.3-0.1,0.7,0.1,1l9,11.2
			c0.1,0.2,0.4,0.3,0.6,0.3V52.7z"/>
	</g>
</g>
<g id="Capa_5">
	<g>
		<path fill="#5EB2D3" d="M112.2,46.3H36c-0.7,0-1.3,0.6-1.3,1.3v67.5c0,0.7,0.6,1.3,1.3,1.3h76.3c0.7,0,1.3-0.6,1.3-1.3V47.6
			C113.6,46.9,113,46.3,112.2,46.3z"/>
		<path fill="#214084" d="M113.2,46.6l-12.3-12c-0.2-0.2-0.6-0.4-0.9-0.4H48.3c-0.3,0-0.7,0.1-0.9,0.4L35,46.6
			c-0.4,0.4-0.5,0.9-0.3,1.4c0.2,0.5,0.7,0.8,1.2,0.8h76.3c0.5,0,1-0.3,1.2-0.8C113.7,47.6,113.6,47,113.2,46.6z"/>
		<g>
			<path fill="#FFD500" d="M97.6,97.7c-3.8,0-6.9-3.1-6.9-6.9v-8.9c0-0.7,0.6-1.3,1.3-1.3h11.2c0.7,0,1.3,0.6,1.3,1.3v8.9
				C104.5,94.6,101.4,97.7,97.6,97.7z M93.3,83.2v7.6c0,2.4,1.9,4.3,4.3,4.3l0,0c2.4,0,4.3-1.9,4.3-4.3v-7.6H93.3z"/>
			<path fill="#FFD500" d="M103.2,109H92c-0.7,0-1.3-0.6-1.3-1.3c0-0.7,0.6-1.3,1.3-1.3h11.2c0.7,0,1.3,0.6,1.3,1.3
				C104.5,108.4,103.9,109,103.2,109z"/>
			<path fill="#FFD500" d="M97.6,109c-0.7,0-1.3-0.6-1.3-1.3V96.4c0-0.7,0.6-1.3,1.3-1.3c0.7,0,1.3,0.6,1.3,1.3v11.2
				C98.9,108.4,98.3,109,97.6,109z"/>
		</g>
		<rect x="67.2" y="48.8" fill="#FFE36E" width="13.6" height="67.7"/>
		<g>
			<g>
				<path fill="#FFD500" d="M51.5,96.6l11.7,11.7L51.5,96.6z"/>
				<path fill="#FFFFFF" d="M63.2,109.6c-0.3,0-0.7-0.1-0.9-0.4L50.6,97.5c-0.5-0.5-0.5-1.4,0-1.9c0.5-0.5,1.4-0.5,1.9,0l11.7,11.7
					c0.5,0.5,0.5,1.4,0,1.9C63.9,109.5,63.6,109.6,63.2,109.6z"/>
			</g>
			<path fill="#214084" d="M79.1,117.1l-13.3-13.3c-2-2-5.3-2-7.4,0c-1,1-1.5,2.3-1.5,3.7c0,1.4,0.5,2.7,1.5,3.7l13.3,13.3
				c1,1,2.3,1.5,3.7,1.5c1.3,0,2.7-0.5,3.7-1.5C81.2,122.4,81.2,119.1,79.1,117.1z"/>
			<path fill="#FFD500" d="M34.7,67.1c0.7,0,1.3-0.6,1.3-1.3l0-6.9c0-0.4-0.1-0.7-0.4-0.9c-0.3-0.2-0.6-0.4-1-0.4
				c-5.9,0.2-11.4,2.5-15.5,6.7c-8.9,8.9-8.9,23.4,0,32.3c4.1,4.1,9.7,6.5,15.5,6.7c0,0,0,0,0,0c0.3,0,0.7-0.1,0.9-0.4
				c0.3-0.2,0.4-0.6,0.4-0.9V95c0-0.7-0.6-1.3-1.3-1.3c-3.3-0.1-6.5-1.5-8.8-3.9c-5.2-5.2-5.2-13.6,0-18.8
				C28.2,68.6,31.4,67.2,34.7,67.1z"/>
			<path fill="#FFE36E" d="M51.4,64.2c-4.5-4.5-10.5-6.9-16.8-6.7l0,0l0,9.6c0,0,0.1,0,0.1,0c3.7-0.2,7.3,1.3,9.9,3.9
				c5.2,5.2,5.2,13.6,0,18.8c-2.6,2.6-6.2,4-9.9,3.9c0,0-0.1,0-0.1,0v9.6h0c0.2,0,0.4,0,0.7,0c6.1,0,11.8-2.4,16.1-6.7
				C60.3,87.6,60.3,73.1,51.4,64.2z"/>
		</g>
		<polygon fill="#FFD500" points="78,34.3 70,34.3 67.2,48.8 80.8,48.8 		"/>
	</g>
</g>
<g id="Capa_1_copia" display="none">
	<g display="inline">
		<path fill="#35A8E0" d="M90.1,78.6c0,0.3,0,0.6,0,0.9c-0.2,4.2-1.7,8.1-4.5,11.3c-0.3,0.4-0.7,0.7-1,1.1c-0.1,0.1-0.2,0.2-0.2,0.2
			c-2.1,2-4.6,3.5-7.4,4.4h0c-0.9,0.3-1.8,0.5-2.7,0.6h0c-0.7,0.1-1.4,0.2-2.1,0.2c-0.3,0-0.6,0-0.9,0s-0.6,0-0.9,0
			c-0.6,0-1.2-0.1-1.8-0.2c-0.9-0.1-1.8-0.3-2.6-0.6h0c-2.9-0.8-5.5-2.4-7.7-4.5c-0.1-0.1-0.1-0.1-0.2-0.2c-0.4-0.4-0.7-0.7-1-1.1
			c-2.7-3.2-4.3-7.1-4.4-11.3c0-0.3,0-0.6,0-0.9c0-0.3,0-0.6,0-0.9c0.2-4.1,1.7-8,4.4-11.2c0.4-0.4,0.7-0.8,1.1-1.2
			c0,0,0.1-0.1,0.1-0.1c2.1-2.1,4.7-3.6,7.5-4.5c0.9-0.3,1.8-0.5,2.7-0.6h0c0.7-0.1,1.4-0.2,2.1-0.2c0.3,0,0.6,0,0.9,0s0.6,0,0.9,0
			c0.8,0,1.6,0.1,2.4,0.3c0.9,0.2,1.9,0.4,2.8,0.7c2.7,0.9,5.1,2.4,7.2,4.4c0,0,0.1,0.1,0.1,0.1c0.4,0.4,0.8,0.8,1.1,1.2
			c2.6,3.1,4.2,7,4.3,11.1C90,78,90.1,78.3,90.1,78.6z"/>
		<path fill="#1D9CD8" d="M84.6,91.8c3.5-3.5,5.5-8.2,5.5-13.2c0-5-1.9-9.7-5.5-13.2c-3.5-3.5-8.2-5.5-13.2-5.5v37.4
			C76.3,97.3,81,95.4,84.6,91.8z"/>
		<g>
			<path fill="#FFFFFF" d="M72.2,59.9v37.4c-0.3,0-0.6,0-0.9,0s-0.6,0-0.9,0V59.9c0.3,0,0.6,0,0.9,0S71.9,59.9,72.2,59.9z"/>
		</g>
		<g>
			<path fill="#FFFFFF" d="M90.1,78.6c0,0.3,0,0.6,0,0.9H52.6c0-0.3,0-0.6,0-0.9l0-0.9H90C90,78,90.1,78.3,90.1,78.6z"/>
		</g>
		<path fill="#FFFFFF" d="M68.7,97.1c-0.9-0.1-1.8-0.3-2.6-0.6h0c-1.5-2-2.8-4.1-3.8-6.2v0c-0.3-0.5-0.5-1.1-0.7-1.6
			c-0.8-1.9-1.3-3.8-1.7-5.7c-0.2-1.2-0.4-2.5-0.4-3.7c0-0.6,0-1.1,0-1.7c0.1-2.5,0.5-4.9,1.3-7.4c0.2-0.7,0.5-1.4,0.7-2
			c0.2-0.6,0.4-1.1,0.7-1.6c1.2-2.5,2.5-4.6,3.6-6c0.9-0.3,1.8-0.5,2.7-0.6c-0.4,0.5-1.2,1.4-2,2.6c-0.8,1.2-1.7,2.7-2.6,4.5
			c-0.2,0.5-0.5,1-0.7,1.6c-0.3,0.7-0.5,1.4-0.7,2.1c-0.7,2.3-1.1,4.6-1.2,6.8c0,0.6,0,1.1,0,1.7c0,1.1,0.2,2.3,0.4,3.4
			c0.3,1.8,0.9,3.6,1.6,5.4c0.2,0.5,0.5,1.1,0.7,1.6C65.1,92.4,66.7,94.8,68.7,97.1z"/>
		<path fill="#FFFFFF" d="M83.4,79.5c0,1.2-0.2,2.5-0.4,3.7c-0.4,2-0.9,4-1.8,5.9c-0.2,0.5-0.5,1.1-0.7,1.6c-1,2-2.2,3.9-3.6,5.8h0
			c-0.9,0.3-1.8,0.5-2.7,0.6c1.9-2.3,3.4-4.6,4.6-6.9c0.3-0.5,0.5-1.1,0.7-1.6c0.8-1.9,1.4-3.8,1.7-5.7c0.2-1.1,0.3-2.3,0.4-3.4
			c0-0.6,0-1.1,0-1.7c-0.1-2.3-0.5-4.6-1.2-6.8c-0.2-0.7-0.4-1.3-0.7-2c-0.2-0.6-0.4-1.1-0.7-1.6c-1.7-3.6-3.7-6.2-4.6-7.2
			c0.9,0.2,1.9,0.4,2.8,0.7c1.1,1.4,2.4,3.5,3.5,6c0.2,0.5,0.5,1,0.7,1.6c0.2,0.6,0.5,1.2,0.7,1.9c0.8,2.5,1.2,4.9,1.3,7.4
			C83.4,78.3,83.4,78.9,83.4,79.5z"/>
		<path fill="#FFFFFF" d="M85.7,66.6c-1.4,0.7-2.8,1.3-4.2,1.8c-0.5,0.2-1.1,0.4-1.6,0.5c-1.5,0.4-3,0.7-4.5,0.9
			c-1,0.1-2.1,0.2-3.2,0.2c-0.1,0-0.2,0-0.2,0c-0.2,0-0.4,0-0.6,0c-0.3,0-0.6,0-0.9,0c-1.6-0.1-3.1-0.3-4.7-0.6
			c-0.9-0.2-1.8-0.4-2.6-0.6c-0.6-0.2-1.1-0.3-1.7-0.5c-2.1-0.7-3.6-1.4-4.5-1.8c0.4-0.4,0.7-0.8,1.1-1.2c0,0,0.1-0.1,0.1-0.1
			c0.4,0.2,0.9,0.4,1.5,0.6c0.7,0.3,1.5,0.6,2.5,0.9c0.5,0.2,1.1,0.3,1.7,0.5c0.7,0.2,1.5,0.4,2.3,0.5c1.5,0.3,2.9,0.4,4.3,0.5
			c0.3,0,0.6,0,0.9,0c0.3,0,0.6,0,0.9,0c1,0,2-0.1,3-0.2c1.3-0.2,2.7-0.4,3.9-0.8c0.6-0.2,1.1-0.3,1.7-0.5c1.3-0.4,2.5-0.9,3.7-1.6
			c0,0,0.1,0.1,0.1,0.1C85,65.8,85.3,66.2,85.7,66.6z"/>
		<path fill="#FFFFFF" d="M58.3,92c1.3-0.7,2.6-1.2,4-1.6v0c0.6-0.2,1.1-0.3,1.7-0.5c1.1-0.3,2.3-0.5,3.5-0.6c1-0.1,2-0.2,3-0.2
			c0.6,0,1.1,0,1.7,0c1.4,0.1,2.9,0.2,4.3,0.5c0.8,0.2,1.6,0.3,2.3,0.5c0.6,0.2,1.2,0.3,1.7,0.5c1.6,0.5,2.9,1,3.8,1.4
			c0.1-0.1,0.2-0.2,0.2-0.2c0.4-0.4,0.7-0.7,1-1.1c-0.8-0.4-2.3-1.1-4.3-1.7c-0.5-0.2-1.1-0.3-1.7-0.5c-0.8-0.2-1.7-0.4-2.7-0.6
			c-1.6-0.3-3.2-0.5-4.7-0.6c-0.6,0-1.2,0-1.7,0c-1.1,0-2.1,0.1-3.2,0.2c-1.4,0.2-2.7,0.4-4.1,0.8c-0.6,0.1-1.1,0.3-1.7,0.5
			c-1.5,0.5-3,1.1-4.5,1.9L58.3,92z"/>
		<path fill="#FCEA18" d="M97.3,65.7c-0.1-0.3-0.4-0.5-0.8-0.5h-4.8V53.6c0-0.5-0.4-0.9-0.9-0.9h-7.3c-0.5,0-0.9,0.4-0.9,0.9v11.6
			h-4.8c-0.3,0-0.6,0.2-0.8,0.5c-0.1,0.3-0.1,0.7,0.1,0.9l9.1,11.2c0.2,0.2,0.4,0.3,0.7,0.3c0,0,0,0,0,0c0.3,0,0.5-0.1,0.7-0.3
			l9.6-11.2C97.4,66.4,97.5,66,97.3,65.7z"/>
		<path fill="#FFEC00" d="M86.8,52.7h-3.2c-0.5,0-0.9,0.4-0.9,0.9v11.6h-4.8c-0.3,0-0.7,0.2-0.8,0.5c-0.1,0.3-0.1,0.7,0.1,1l9,11.2
			c0.1,0.2,0.4,0.3,0.6,0.3V52.7z"/>
	</g>
</g>
<g id="Capa_4">
</g>
<g id="Capa_2">
</g>
</svg>
