<?xml version="1.0" encoding="utf-8"?>
<!-- Generator: Adobe Illustrator 18.0.0, SVG Export Plug-In . SVG Version: 6.00 Build 0)  -->
<!DOCTYPE svg PUBLIC "-//W3C//DTD SVG 1.1//EN" "http://www.w3.org/Graphics/SVG/1.1/DTD/svg11.dtd">
<svg version="1.1" xmlns="http://www.w3.org/2000/svg" xmlns:xlink="http://www.w3.org/1999/xlink" x="0px" y="0px"
	 viewBox="0 0 150 150" enable-background="new 0 0 150 150" xml:space="preserve">
<g id="Capa_1" display="none">
	<g display="inline">
		<path fill="#22376C" d="M90.6,50.5H54.2c-0.4,0-0.6,0.3-0.6,0.6v42.6c0,0.4,0.3,0.6,0.6,0.6h36.4c0.4,0,0.6-0.3,0.6-0.6V51.1
			C91.3,50.7,91,50.5,90.6,50.5z"/>
		<path fill="#FFFFFF" d="M86.6,53.8H58.8c-0.4,0-0.6,0.3-0.6,0.6v33.9c0,0.4,0.3,0.6,0.6,0.6h27.8c0.4,0,0.6-0.3,0.6-0.6V54.4
			C87.2,54.1,86.9,53.8,86.6,53.8z"/>
		<path fill="#124F9D" d="M83.3,48.5H77c-0.3-2.3-2.3-4-4.6-4c-2.3,0-4.3,1.7-4.6,4h-6.2c-0.4,0-0.6,0.3-0.6,0.6V56
			c0,0.4,0.3,0.6,0.6,0.6h21.7c0.4,0,0.6-0.3,0.6-0.6v-6.9C83.9,48.8,83.6,48.5,83.3,48.5z"/>
		<circle fill="#F8AE42" cx="63.5" cy="60.8" r="1.7"/>
		<g>
			<path fill="#22376C" d="M68.3,60.8h14H68.3z"/>
			<path fill="#22376C" d="M82.3,61.4h-14c-0.4,0-0.6-0.3-0.6-0.6c0-0.4,0.3-0.6,0.6-0.6h14c0.4,0,0.6,0.3,0.6,0.6
				C82.9,61.2,82.7,61.4,82.3,61.4z"/>
		</g>
		<circle fill="#F8AE42" cx="63.5" cy="66.4" r="1.7"/>
		<g>
			<path fill="#22376C" d="M68.3,66.4h14H68.3z"/>
			<path fill="#22376C" d="M82.3,67.1h-14c-0.4,0-0.6-0.3-0.6-0.6c0-0.4,0.3-0.6,0.6-0.6h14c0.4,0,0.6,0.3,0.6,0.6
				C82.9,66.8,82.7,67.1,82.3,67.1z"/>
		</g>
		<circle fill="#F8AE42" cx="63.5" cy="72" r="1.7"/>
		<g>
			<path fill="#22376C" d="M68.3,72h14H68.3z"/>
			<path fill="#22376C" d="M82.3,72.7h-14c-0.4,0-0.6-0.3-0.6-0.6c0-0.4,0.3-0.6,0.6-0.6h14c0.4,0,0.6,0.3,0.6,0.6
				C82.9,72.4,82.7,72.7,82.3,72.7z"/>
		</g>
		<circle fill="#F8AE42" cx="63.5" cy="77.7" r="1.7"/>
		<g>
			<path fill="#22376C" d="M68.3,77.7h14H68.3z"/>
			<path fill="#22376C" d="M82.3,78.3h-14c-0.4,0-0.6-0.3-0.6-0.6c0-0.4,0.3-0.6,0.6-0.6h14c0.4,0,0.6,0.3,0.6,0.6
				C82.9,78,82.7,78.3,82.3,78.3z"/>
		</g>
		<g>
			<path fill="#F8AE42" d="M90.1,71.1c0-0.2-0.1-0.3-0.3-0.4l-2.5-1.8c-0.3-0.2-0.7-0.1-0.9,0.2L79,79.8c-0.1,0.1-0.1,0.3-0.1,0.5
				c0,0.2,0.1,0.3,0.3,0.4l2.5,1.8c0.1,0.1,0.2,0.1,0.4,0.1c0.2,0,0.4-0.1,0.5-0.3L90,71.6C90.1,71.4,90.1,71.3,90.1,71.1z"/>
			<path fill="#F29323" d="M98.6,55.2c-0.6-0.4-1.4-0.6-2.1-0.4c-0.7,0.1-1.4,0.5-1.8,1.2l-8.9,12.9c-0.1,0.1-0.1,0.3-0.1,0.5
				c0,0.2,0.1,0.3,0.3,0.4l3.5,2.4c0.1,0.1,0.2,0.1,0.4,0.1c0.2,0,0.4-0.1,0.5-0.3l8.9-12.9C100.2,57.8,99.9,56,98.6,55.2z"/>
			<path fill="#F29323" d="M95.5,68.3c-0.1,0-0.3,0-0.4-0.1c-0.3-0.2-0.4-0.6-0.2-0.9l4-5.7l-1-2.2c-0.1-0.3,0-0.7,0.3-0.8
				c0.3-0.1,0.7,0,0.8,0.3l1.1,2.6c0.1,0.2,0.1,0.4-0.1,0.6l-4.2,6C95.9,68.2,95.7,68.3,95.5,68.3z"/>
			<polygon fill="#F29323" points="79,79.8 77,86.6 82.6,82.3 			"/>
		</g>
	</g>
</g>
<g id="Capa_5">
	<g>
		<path fill="#214084" d="M134.6,35.7H15.4c-0.8,0-1.4,0.6-1.4,1.4v76c0,0.8,0.6,1.4,1.4,1.4h119.2c0.8,0,1.4-0.6,1.4-1.4V37
			C136,36.3,135.4,35.7,134.6,35.7z"/>
		<rect x="26.1" y="45.3" fill="#FFFFFF" width="5.3" height="59.7"/>
		<rect x="72" y="45.3" fill="#FFFFFF" width="5.3" height="59.7"/>
		<rect x="119.8" y="45.3" fill="#FFFFFF" width="5.3" height="59.7"/>
		<rect x="34.7" y="45.5" fill="#FFFFFF" width="2.6" height="54.2"/>
		<rect x="55.7" y="45.5" fill="#FFFFFF" width="2.6" height="54.2"/>
		<rect x="50.7" y="45.5" fill="#FFFFFF" width="1.3" height="54.2"/>
		<rect x="62.1" y="45.5" fill="#FFFFFF" width="3.2" height="54.2"/>
		<rect x="68.4" y="45.5" fill="#FFFFFF" width="1.3" height="54.2"/>
		<rect x="39.9" y="45.5" fill="#FFFFFF" width="1.3" height="54.2"/>
		<rect x="44" y="45.5" fill="#FFFFFF" width="3.6" height="54.2"/>
		<rect x="112.9" y="45.5" fill="#FFFFFF" width="2.6" height="54.2"/>
		<rect x="92" y="45.5" fill="#FFFFFF" width="2.6" height="54.2"/>
		<rect x="98.1" y="45.5" fill="#FFFFFF" width="1.3" height="54.2"/>
		<rect x="84.9" y="45.5" fill="#FFFFFF" width="3.2" height="54.2"/>
		<rect x="80.5" y="45.5" fill="#FFFFFF" width="1.3" height="54.2"/>
		<rect x="109" y="45.5" fill="#FFFFFF" width="1.3" height="54.2"/>
		<rect x="102.6" y="45.5" fill="#FFFFFF" width="3.6" height="54.2"/>
		<rect x="14" y="59.6" fill="#FFE36E" width="122" height="6.6"/>
	</g>
</g>
<g id="Capa_1_copia" display="none">
	<g display="inline">
		<path fill="#35A8E0" d="M90.6,50.5H54.2c-0.4,0-0.6,0.3-0.6,0.6v42.6c0,0.4,0.3,0.6,0.6,0.6h36.4c0.4,0,0.6-0.3,0.6-0.6V51.1
			C91.3,50.7,91,50.5,90.6,50.5z"/>
		<path fill="#FFFFFF" d="M86.6,53.8H58.8c-0.4,0-0.6,0.3-0.6,0.6v33.9c0,0.4,0.3,0.6,0.6,0.6h27.8c0.4,0,0.6-0.3,0.6-0.6V54.4
			C87.2,54.1,86.9,53.8,86.6,53.8z"/>
		<path fill="#1D9CD8" d="M83.3,48.5H77c-0.3-2.3-2.3-4-4.6-4c-2.3,0-4.3,1.7-4.6,4h-6.2c-0.4,0-0.6,0.3-0.6,0.6V56
			c0,0.4,0.3,0.6,0.6,0.6h21.7c0.4,0,0.6-0.3,0.6-0.6v-6.9C83.9,48.8,83.6,48.5,83.3,48.5z"/>
		<circle fill="#FCEA18" cx="63.5" cy="60.8" r="1.7"/>
		<g>
			<path fill="#35A8E0" d="M68.3,60.8h14H68.3z"/>
			<path fill="#35A8E0" d="M82.3,61.4h-14c-0.4,0-0.6-0.3-0.6-0.6c0-0.4,0.3-0.6,0.6-0.6h14c0.4,0,0.6,0.3,0.6,0.6
				C82.9,61.2,82.7,61.4,82.3,61.4z"/>
		</g>
		<circle fill="#FCEA18" cx="63.5" cy="66.4" r="1.7"/>
		<g>
			<path fill="#35A8E0" d="M68.3,66.4h14H68.3z"/>
			<path fill="#35A8E0" d="M82.3,67.1h-14c-0.4,0-0.6-0.3-0.6-0.6c0-0.4,0.3-0.6,0.6-0.6h14c0.4,0,0.6,0.3,0.6,0.6
				C82.9,66.8,82.7,67.1,82.3,67.1z"/>
		</g>
		<circle fill="#FCEA18" cx="63.5" cy="72" r="1.7"/>
		<g>
			<path fill="#35A8E0" d="M68.3,72h14H68.3z"/>
			<path fill="#35A8E0" d="M82.3,72.7h-14c-0.4,0-0.6-0.3-0.6-0.6c0-0.4,0.3-0.6,0.6-0.6h14c0.4,0,0.6,0.3,0.6,0.6
				C82.9,72.4,82.7,72.7,82.3,72.7z"/>
		</g>
		<circle fill="#FCEA18" cx="63.5" cy="77.7" r="1.7"/>
		<g>
			<path fill="#35A8E0" d="M68.3,77.7h14H68.3z"/>
			<path fill="#35A8E0" d="M82.3,78.3h-14c-0.4,0-0.6-0.3-0.6-0.6c0-0.4,0.3-0.6,0.6-0.6h14c0.4,0,0.6,0.3,0.6,0.6
				C82.9,78,82.7,78.3,82.3,78.3z"/>
		</g>
		<g>
			<path fill="#FCEA18" d="M90.1,71.1c0-0.2-0.1-0.3-0.3-0.4l-2.5-1.8c-0.3-0.2-0.7-0.1-0.9,0.2L79,79.8c-0.1,0.1-0.1,0.3-0.1,0.5
				c0,0.2,0.1,0.3,0.3,0.4l2.5,1.8c0.1,0.1,0.2,0.1,0.4,0.1c0.2,0,0.4-0.1,0.5-0.3L90,71.6C90.1,71.4,90.1,71.3,90.1,71.1z"/>
			<path fill="#FFEC00" d="M98.6,55.2c-0.6-0.4-1.4-0.6-2.1-0.4c-0.7,0.1-1.4,0.5-1.8,1.2l-8.9,12.9c-0.1,0.1-0.1,0.3-0.1,0.5
				c0,0.2,0.1,0.3,0.3,0.4l3.5,2.4c0.1,0.1,0.2,0.1,0.4,0.1c0.2,0,0.4-0.1,0.5-0.3l8.9-12.9C100.2,57.8,99.9,56,98.6,55.2z"/>
			<path fill="#FFEC00" d="M95.5,68.3c-0.1,0-0.3,0-0.4-0.1c-0.3-0.2-0.4-0.6-0.2-0.9l4-5.7l-1-2.2c-0.1-0.3,0-0.7,0.3-0.8
				c0.3-0.1,0.7,0,0.8,0.3l1.1,2.6c0.1,0.2,0.1,0.4-0.1,0.6l-4.2,6C95.9,68.2,95.7,68.3,95.5,68.3z"/>
			<polygon fill="#FFEC00" points="79,79.8 77,86.6 82.6,82.3 			"/>
		</g>
	</g>
</g>
<g id="Capa_4">
</g>
<g id="Capa_2">
</g>
</svg>
