<?xml version="1.0" encoding="utf-8"?>
<!-- Generator: Adobe Illustrator 18.0.0, SVG Export Plug-In . SVG Version: 6.00 Build 0)  -->
<!DOCTYPE svg PUBLIC "-//W3C//DTD SVG 1.1//EN" "http://www.w3.org/Graphics/SVG/1.1/DTD/svg11.dtd">
<svg version="1.1" xmlns="http://www.w3.org/2000/svg" xmlns:xlink="http://www.w3.org/1999/xlink" x="0px" y="0px"
	 viewBox="0 0 150 150" enable-background="new 0 0 150 150" xml:space="preserve">
<g id="Capa_1" display="none">
	<g display="inline">
		<path fill="#F29323" d="M98.7,56.1H85.1c-0.3,0-0.5,0.2-0.6,0.4L76,78.8c0,0.1,0,0.2,0,0.2v9.3c0,0.4,0.3,0.6,0.6,0.6h22
			c0.4,0,0.6-0.3,0.6-0.6V56.8C99.3,56.4,99,56.1,98.7,56.1z"/>
		<path fill="#22376C" d="M96.9,81.9c-3.5,0-6.4,2.9-6.4,6.4c0,3.5,2.9,6.4,6.4,6.4c3.5,0,6.4-2.9,6.4-6.4
			C103.4,84.8,100.5,81.9,96.9,81.9z"/>
		<path fill="#F8AE42" d="M73.7,55.3h-3.4c-0.4,0-0.6,0.3-0.6,0.6v28.4H47.3c-0.4,0-0.6,0.3-0.6,0.6v1.7c0,0.3,0.3,0.6,0.6,0.6
			l23,1.7c0,0,0,0,0,0h3.4c0.4,0,0.6-0.3,0.6-0.6V55.9C74.3,55.5,74,55.3,73.7,55.3z"/>
		<path fill="#22376C" d="M78.4,81.9c-3.5,0-6.4,2.9-6.4,6.4c0,3.5,2.9,6.4,6.4,6.4c3.5,0,6.4-2.9,6.4-6.4
			C84.8,84.8,81.9,81.9,78.4,81.9z"/>
		<circle fill="#124F9D" cx="96.9" cy="88.3" r="2.4"/>
		<circle fill="#124F9D" cx="78.4" cy="88.3" r="2.4"/>
		<path fill="#22376C" d="M92,56.1h-6.9c-0.3,0-0.5,0.2-0.6,0.4L76,78.8c-0.1,0.2,0,0.4,0.1,0.6c0.1,0.2,0.3,0.3,0.5,0.3H92
			c0.4,0,0.6-0.3,0.6-0.6V56.8C92.6,56.4,92.3,56.1,92,56.1z"/>
		<g>
			<path fill="#22376C" d="M65.1,62H51.6c-0.6,0-1.2,0.5-1.2,1.2v20c0,0.6,0.5,1.2,1.2,1.2h13.5c0.6,0,1.2-0.5,1.2-1.2v-20
				C66.3,62.5,65.8,62,65.1,62z"/>
			<path fill="#124F9D" d="M59,84.3h-1.4c-4,0-7.3-3.2-7.3-7.3l0,0h15.9l0,0C66.3,81.1,63.1,84.3,59,84.3z"/>
			<path fill="#124F9D" d="M66.3,69.3H50.4l0,0c0-4,3.2-7.3,7.3-7.3H59C63,62,66.3,65.3,66.3,69.3L66.3,69.3z"/>
		</g>
	</g>
</g>
<g id="Capa_5">
	<g>
		<path fill="#1D9CD8" d="M114.9,75.1c0,14.9,0,29.7,0,44.6c0,8.3-5.6,14.1-13.9,14.1c-17.4,0-34.9,0.1-52.3,0
			c-8,0-13.6-5.6-13.6-13.6c0-30.1,0-60.2,0-90.3c0-8,5.9-13.7,14.4-13.7c13.8-0.1,27.6,0,41.3,0c3.5,0,7.1-0.1,10.6,0.1
			c8.1,0.4,13.5,6.1,13.5,14.2C114.9,45.3,114.9,60.2,114.9,75.1z M46.2,45.4c-0.1,0.2-0.1,0.5,0.1,0.7c0.5,1.7,1.8,2.1,3.4,2.1
			c16.8,0,33.6,0,50.4,0c2.5,0,3.8-1.2,3.8-3.8c0-4.1-0.1-8.3,0-12.4c0-2.7-1.3-4-4-4c-16.6,0-33.1,0-49.7,0c-2.7,0-4.1,1-4.1,3.9
			C46.2,36.3,46.2,40.8,46.2,45.4z M59.9,93.5c0-3.7-2.9-6.9-6.5-7c-3.6-0.1-6.9,2.9-7,6.5c-0.1,3.5,3,6.9,6.6,7
			C56.5,100.1,59.8,97,59.9,93.5z M46.3,71.3c-0.1,3.5,3.2,6.9,6.7,6.9c3.7,0,6.9-3.1,6.9-6.7c0-3.7-3-6.8-6.7-6.9
			C49.6,64.6,46.4,67.7,46.3,71.3z M81.7,93.2c-0.1-3.8-3-6.8-6.7-6.8c-3.6,0-6.8,3.2-6.8,6.8c0,3.6,3.2,6.8,6.8,6.8
			C78.7,100,81.7,96.9,81.7,93.2z M75,78.2c3.6,0,6.8-3.2,6.7-6.8c-0.1-3.7-3.1-6.8-6.7-6.8c-3.6,0-6.8,3.2-6.8,6.8
			C68.2,75,71.5,78.2,75,78.2z M103.5,93.2c-0.1-3.9-2.9-6.8-6.6-6.8c-3.6,0-6.7,3.1-6.7,6.8c0,3.6,3.2,6.8,6.8,6.8
			C100.6,100,103.5,96.9,103.5,93.2z M103.5,71.5c0-3.9-2.8-6.8-6.6-6.8c-3.7,0-6.8,3-6.8,6.7c0,3.6,3.1,6.8,6.7,6.8
			C100.6,78.3,103.5,75.3,103.5,71.5z M81.7,115c-0.1-3.8-3-6.8-6.7-6.8c-3.7,0-6.8,3-6.8,6.7c0,3.6,3.1,6.8,6.7,6.8
			C78.7,121.7,81.8,118.6,81.7,115z M53.2,108.2c-3.7-0.1-6.8,2.9-6.9,6.6c-0.1,3.6,3,6.8,6.7,6.9c3.7,0.1,6.9-3,6.9-6.6
			C59.9,111.3,56.9,108.3,53.2,108.2z M103.5,115.1c0-3.9-2.7-6.8-6.4-6.9c-3.7-0.1-6.8,2.9-6.9,6.5c-0.1,3.6,2.9,6.8,6.5,6.9
			C100.5,121.7,103.4,118.9,103.5,115.1z"/>
		<path fill="#FFD500" d="M46.2,45.4c0-4.5,0-9-0.1-13.5c-0.1-2.9,1.4-3.9,4.1-3.9c16.6,0,33.1,0,49.7,0c2.7,0,4,1.3,4,4
			c0,4.1,0,8.3,0,12.4c0,2.6-1.3,3.8-3.8,3.8c-16.8,0-33.6,0-50.4,0c-1.6,0-2.9-0.4-3.4-2.1c0-0.1,0.1-0.2,0.1-0.2
			C46.4,45.7,46.3,45.5,46.2,45.4z"/>
		<path fill="#FFE36E" d="M59.9,93.5c0,3.6-3.3,6.6-7,6.5c-3.5-0.1-6.7-3.5-6.6-7c0.1-3.6,3.4-6.7,7-6.5
			C57,86.6,59.9,89.7,59.9,93.5z"/>
		<path fill="#FFE36E" d="M46.3,71.3c0.1-3.6,3.3-6.7,6.9-6.7c3.6,0.1,6.7,3.2,6.7,6.9c0,3.6-3.2,6.7-6.9,6.7
			C49.5,78.2,46.2,74.9,46.3,71.3z"/>
		<path fill="#FFE36E" d="M81.7,93.2c0.1,3.7-3,6.8-6.7,6.8c-3.5,0-6.8-3.3-6.8-6.8c0-3.6,3.2-6.8,6.8-6.8
			C78.7,86.4,81.6,89.4,81.7,93.2z"/>
		<path fill="#FFE36E" d="M75,78.2c-3.5,0-6.7-3.2-6.8-6.8c0-3.6,3.2-6.8,6.8-6.8c3.6,0,6.6,3.1,6.7,6.8C81.8,75,78.6,78.2,75,78.2z
			"/>
		<path fill="#FFE36E" d="M103.5,93.2c0.1,3.8-2.9,6.8-6.6,6.8c-3.6,0-6.7-3.1-6.8-6.8c0-3.7,3-6.8,6.7-6.8
			C100.5,86.4,103.4,89.3,103.5,93.2z"/>
		<path fill="#FFE36E" d="M103.5,71.5c0,3.8-2.9,6.8-6.6,6.7c-3.6,0-6.7-3.2-6.7-6.8c0-3.7,3.1-6.7,6.8-6.7
			C100.6,64.7,103.4,67.6,103.5,71.5z"/>
		<path fill="#FFE36E" d="M81.7,115c0.1,3.6-3.1,6.7-6.8,6.6c-3.6,0-6.8-3.2-6.7-6.8c0-3.6,3.2-6.7,6.8-6.7
			C78.7,108.2,81.7,111.2,81.7,115z"/>
		<path fill="#FFE36E" d="M53.2,108.2c3.7,0.1,6.6,3.1,6.6,6.9c0,3.6-3.2,6.6-6.9,6.6c-3.6-0.1-6.8-3.3-6.7-6.9
			C46.4,111.1,49.6,108.1,53.2,108.2z"/>
		<path fill="#FFE36E" d="M103.5,115.1c0,3.8-3,6.6-6.8,6.5c-3.6-0.1-6.7-3.3-6.5-6.9c0.1-3.7,3.2-6.6,6.9-6.5
			C100.8,108.3,103.5,111.3,103.5,115.1z"/>
		<path fill="#56A5E0" d="M46.2,45.4c0.1,0.2,0.1,0.3,0.2,0.5c0,0.1-0.1,0.2-0.1,0.2C46.2,45.8,46.2,45.6,46.2,45.4z"/>
	</g>
</g>
<g id="Capa_1_copia" display="none">
	<g display="inline">
		<path fill="#FFEC00" d="M98.7,56.1H85.1c-0.3,0-0.5,0.2-0.6,0.4L76,78.8c0,0.1,0,0.2,0,0.2v9.3c0,0.4,0.3,0.6,0.6,0.6h22
			c0.4,0,0.6-0.3,0.6-0.6V56.8C99.3,56.4,99,56.1,98.7,56.1z"/>
		<path fill="#35A8E0" d="M96.9,81.9c-3.5,0-6.4,2.9-6.4,6.4c0,3.5,2.9,6.4,6.4,6.4c3.5,0,6.4-2.9,6.4-6.4
			C103.4,84.8,100.5,81.9,96.9,81.9z"/>
		<path fill="#FCEA18" d="M73.7,55.3h-3.4c-0.4,0-0.6,0.3-0.6,0.6v28.4H47.3c-0.4,0-0.6,0.3-0.6,0.6v1.7c0,0.3,0.3,0.6,0.6,0.6
			l23,1.7c0,0,0,0,0,0h3.4c0.4,0,0.6-0.3,0.6-0.6V55.9C74.3,55.5,74,55.3,73.7,55.3z"/>
		<path fill="#35A8E0" d="M78.4,81.9c-3.5,0-6.4,2.9-6.4,6.4c0,3.5,2.9,6.4,6.4,6.4c3.5,0,6.4-2.9,6.4-6.4
			C84.8,84.8,81.9,81.9,78.4,81.9z"/>
		<circle fill="#1D9CD8" cx="96.9" cy="88.3" r="2.4"/>
		<circle fill="#1D9CD8" cx="78.4" cy="88.3" r="2.4"/>
		<path fill="#35A8E0" d="M92,56.1h-6.9c-0.3,0-0.5,0.2-0.6,0.4L76,78.8c-0.1,0.2,0,0.4,0.1,0.6c0.1,0.2,0.3,0.3,0.5,0.3H92
			c0.4,0,0.6-0.3,0.6-0.6V56.8C92.6,56.4,92.3,56.1,92,56.1z"/>
		<g>
			<path fill="#FFD500" d="M65.1,62H51.6c-0.6,0-1.2,0.5-1.2,1.2v20c0,0.6,0.5,1.2,1.2,1.2h13.5c0.6,0,1.2-0.5,1.2-1.2v-20
				C66.3,62.5,65.8,62,65.1,62z"/>
			<path fill="#1D9CD8" d="M59,84.3h-1.4c-4,0-7.3-3.2-7.3-7.3l0,0h15.9l0,0C66.3,81.1,63.1,84.3,59,84.3z"/>
			<path fill="#1D9CD8" d="M66.3,69.3H50.4l0,0c0-4,3.2-7.3,7.3-7.3H59C63,62,66.3,65.3,66.3,69.3L66.3,69.3z"/>
		</g>
	</g>
</g>
<g id="Capa_4">
</g>
<g id="Capa_2">
</g>
</svg>
