<?xml version="1.0" encoding="utf-8"?>
<!-- Generator: Adobe Illustrator 18.0.0, SVG Export Plug-In . SVG Version: 6.00 Build 0)  -->
<!DOCTYPE svg PUBLIC "-//W3C//DTD SVG 1.1//EN" "http://www.w3.org/Graphics/SVG/1.1/DTD/svg11.dtd">
<svg version="1.1" xmlns="http://www.w3.org/2000/svg" xmlns:xlink="http://www.w3.org/1999/xlink" x="0px" y="0px"
	 viewBox="0 0 150 150" enable-background="new 0 0 150 150" xml:space="preserve">
<g id="Capa_1">
	<g>
		<path fill="#214084" d="M116.7,31.8h-83c-0.8,0-1.5,0.7-1.5,1.5v97c0,0.8,0.7,1.5,1.5,1.5h83c0.8,0,1.5-0.7,1.5-1.5v-97
			C118.1,32.5,117.5,31.8,116.7,31.8z"/>
		<path fill="#FFFFFF" d="M107.4,39.4H44c-0.8,0-1.5,0.7-1.5,1.5v77.3c0,0.8,0.7,1.5,1.5,1.5h63.4c0.8,0,1.5-0.7,1.5-1.5V40.9
			C108.9,40.1,108.2,39.4,107.4,39.4z"/>
		<path fill="#5EB2D3" d="M99.9,27.3H85.7c-0.7-5.2-5.2-9.1-10.5-9.1c-5.4,0-9.8,4-10.5,9.1H50.4c-0.8,0-1.5,0.7-1.5,1.5v15.7
			c0,0.8,0.7,1.5,1.5,1.5h49.4c0.8,0,1.5-0.7,1.5-1.5V28.8C101.4,28,100.7,27.3,99.9,27.3z"/>
		<circle fill="#FFE36E" cx="54.8" cy="55.4" r="4"/>
		<g>
			<path fill="#22376C" d="M65.6,55.4h32H65.6z"/>
			<path fill="#22376C" d="M97.7,56.9h-32c-0.8,0-1.5-0.7-1.5-1.5c0-0.8,0.7-1.5,1.5-1.5h32c0.8,0,1.5,0.7,1.5,1.5
				C99.1,56.2,98.5,56.9,97.7,56.9z"/>
		</g>
		<circle fill="#FFE36E" cx="54.8" cy="68.2" r="4"/>
		<g>
			<path fill="#22376C" d="M65.6,68.2h32H65.6z"/>
			<path fill="#22376C" d="M97.7,69.7h-32c-0.8,0-1.5-0.7-1.5-1.5c0-0.8,0.7-1.5,1.5-1.5h32c0.8,0,1.5,0.7,1.5,1.5
				C99.1,69,98.5,69.7,97.7,69.7z"/>
		</g>
		<circle fill="#FFE36E" cx="54.8" cy="81.1" r="4"/>
		<g>
			<path fill="#22376C" d="M65.6,81.1h32H65.6z"/>
			<path fill="#22376C" d="M97.7,82.5h-32c-0.8,0-1.5-0.7-1.5-1.5c0-0.8,0.7-1.5,1.5-1.5h32c0.8,0,1.5,0.7,1.5,1.5
				C99.1,81.9,98.5,82.5,97.7,82.5z"/>
		</g>
		<circle fill="#FFE36E" cx="54.8" cy="93.9" r="4"/>
		<g>
			<path fill="#22376C" d="M65.6,93.9h32H65.6z"/>
			<path fill="#22376C" d="M97.7,95.4h-32c-0.8,0-1.5-0.7-1.5-1.5c0-0.8,0.7-1.5,1.5-1.5h32c0.8,0,1.5,0.7,1.5,1.5
				C99.1,94.7,98.5,95.4,97.7,95.4z"/>
		</g>
		<g>
			<path fill="#FFE36E" d="M115.4,78.9c-0.1-0.4-0.3-0.7-0.6-0.9l-5.8-4c-0.7-0.5-1.6-0.3-2,0.4L90.2,98.6c-0.2,0.3-0.3,0.7-0.2,1.1
				c0.1,0.4,0.3,0.7,0.6,0.9l5.8,4c0.3,0.2,0.5,0.3,0.8,0.3c0.5,0,0.9-0.2,1.2-0.6L115.2,80C115.4,79.7,115.5,79.3,115.4,78.9z"/>
			<path fill="#FFD500" d="M134.9,42.6c-1.4-1-3.1-1.3-4.8-1c-1.7,0.3-3.1,1.2-4.1,2.7l-20.2,29.4c-0.2,0.3-0.3,0.7-0.2,1.1
				c0.1,0.4,0.3,0.7,0.6,0.9l8.1,5.6c0.3,0.2,0.5,0.3,0.8,0.3c0.5,0,0.9-0.2,1.2-0.6l20.2-29.4C138.5,48.6,137.8,44.6,134.9,42.6z"
				/>
			<path fill="#FFD500" d="M127.7,72.6c-0.3,0-0.6-0.1-0.8-0.3c-0.7-0.5-0.8-1.4-0.4-2l9-13.1l-2.2-5.1c-0.3-0.7,0-1.6,0.8-1.9
				c0.7-0.3,1.6,0,1.9,0.8l2.5,5.8c0.2,0.5,0.1,1-0.1,1.4L129,72C128.7,72.4,128.2,72.6,127.7,72.6z"/>
			<polygon fill="#FFD500" points="90.2,98.7 85.5,114.2 98.4,104.4 			"/>
		</g>
	</g>
</g>
<g id="Capa_5">
</g>
<g id="Capa_1_copia" display="none">
	<g display="inline">
		<path fill="#FFEC00" d="M98.7,56.1H85.1c-0.3,0-0.5,0.2-0.6,0.4L76,78.8c0,0.1,0,0.2,0,0.2v9.3c0,0.4,0.3,0.6,0.6,0.6h22
			c0.4,0,0.6-0.3,0.6-0.6V56.8C99.3,56.4,99,56.1,98.7,56.1z"/>
		<path fill="#35A8E0" d="M96.9,81.9c-3.5,0-6.4,2.9-6.4,6.4c0,3.5,2.9,6.4,6.4,6.4c3.5,0,6.4-2.9,6.4-6.4
			C103.4,84.8,100.5,81.9,96.9,81.9z"/>
		<path fill="#FCEA18" d="M73.7,55.3h-3.4c-0.4,0-0.6,0.3-0.6,0.6v28.4H47.3c-0.4,0-0.6,0.3-0.6,0.6v1.7c0,0.3,0.3,0.6,0.6,0.6
			l23,1.7c0,0,0,0,0,0h3.4c0.4,0,0.6-0.3,0.6-0.6V55.9C74.3,55.5,74,55.3,73.7,55.3z"/>
		<path fill="#35A8E0" d="M78.4,81.9c-3.5,0-6.4,2.9-6.4,6.4c0,3.5,2.9,6.4,6.4,6.4c3.5,0,6.4-2.9,6.4-6.4
			C84.8,84.8,81.9,81.9,78.4,81.9z"/>
		<circle fill="#1D9CD8" cx="96.9" cy="88.3" r="2.4"/>
		<circle fill="#1D9CD8" cx="78.4" cy="88.3" r="2.4"/>
		<path fill="#35A8E0" d="M92,56.1h-6.9c-0.3,0-0.5,0.2-0.6,0.4L76,78.8c-0.1,0.2,0,0.4,0.1,0.6c0.1,0.2,0.3,0.3,0.5,0.3H92
			c0.4,0,0.6-0.3,0.6-0.6V56.8C92.6,56.4,92.3,56.1,92,56.1z"/>
		<g>
			<path fill="#FFD500" d="M65.1,62H51.6c-0.6,0-1.2,0.5-1.2,1.2v20c0,0.6,0.5,1.2,1.2,1.2h13.5c0.6,0,1.2-0.5,1.2-1.2v-20
				C66.3,62.5,65.8,62,65.1,62z"/>
			<path fill="#1D9CD8" d="M59,84.3h-1.4c-4,0-7.3-3.2-7.3-7.3l0,0h15.9l0,0C66.3,81.1,63.1,84.3,59,84.3z"/>
			<path fill="#1D9CD8" d="M66.3,69.3H50.4l0,0c0-4,3.2-7.3,7.3-7.3H59C63,62,66.3,65.3,66.3,69.3L66.3,69.3z"/>
		</g>
	</g>
</g>
<g id="Capa_4">
</g>
<g id="Capa_2">
</g>
</svg>
