<?xml version="1.0" encoding="utf-8"?>
<!-- Generator: Adobe Illustrator 18.0.0, SVG Export Plug-In . SVG Version: 6.00 Build 0)  -->
<!DOCTYPE svg PUBLIC "-//W3C//DTD SVG 1.1//EN" "http://www.w3.org/Graphics/SVG/1.1/DTD/svg11.dtd">
<svg version="1.1" id="Capa_1" xmlns="http://www.w3.org/2000/svg" xmlns:xlink="http://www.w3.org/1999/xlink" x="0px" y="0px"
	 viewBox="0 0 150 150" enable-background="new 0 0 150 150" xml:space="preserve">
<g>
	<path fill="#FFE36E" d="M139.5,73.2l-0.4-0.4c-8.3-9.4-20.2-14.8-32.8-14.8c-0.9,0-1.6,0.7-1.6,1.6l-0.4,31.9H17.8
		c-0.9,0-1.6,0.7-1.6,1.6v13c0,0.9,0.7,1.6,1.6,1.6h125.8c0.9,0,1.6-0.7,1.6-1.6V88.2C145.2,82.7,143.2,77.3,139.5,73.2z"/>
	<path fill="#214084" d="M87.2,27.8H21.4c-6.9,0-12.5,5.6-12.5,12.5v41.9c0,6.9,5.6,12.5,12.5,12.5h65.9c6.9,0,12.5-5.6,12.5-12.5
		V40.4C99.8,33.5,94.2,27.8,87.2,27.8z"/>
	<g>
		<circle fill="#214084" cx="122.7" cy="108.2" r="9.8"/>
		<path fill="#214084" d="M122.7,120.2c-6.6,0-11.9-5.4-11.9-11.9c0-6.6,5.4-11.9,11.9-11.9c6.6,0,11.9,5.4,11.9,11.9
			C134.6,114.8,129.3,120.2,122.7,120.2z M122.7,100.5c-4.2,0-7.7,3.4-7.7,7.7c0,4.2,3.4,7.7,7.7,7.7s7.7-3.4,7.7-7.7
			C130.4,104,126.9,100.5,122.7,100.5z"/>
	</g>
	<path fill="#5EB2D3" d="M87.3,28H21.6C14.7,28,9,33.5,9,40.3v23.1h90.7V40.3C99.8,33.5,94.2,28,87.3,28z"/>
	<path fill="#FFD500" d="M83.7,61.9L63.3,44.3c-0.6-0.5-1.5-0.7-2.3-0.3c-0.8,0.3-1.2,1.1-1.2,1.9v8.3H26.3c-1.2,0-2.1,1-2.1,2.1
		v13.3c0,1.2,1,2.1,2.1,2.1h33.5v8.3c0,0.8,0.5,1.6,1.2,1.9c0.3,0.1,0.6,0.2,0.9,0.2c0.5,0,1-0.2,1.3-0.5l20.5-16.5
		c0.5-0.4,0.8-1,0.8-1.6C84.5,62.9,84.2,62.3,83.7,61.9z"/>
	<path fill="#214084" d="M144.4,82.4c-0.9-3.4-2.6-6.6-4.9-9.3l-0.4-0.4c-5.6-6.3-12.9-10.9-21-13.2c-0.5-0.1-1,0-1.4,0.3
		c-0.4,0.3-0.6,0.8-0.6,1.3v21.7c0,0.9,0.7,1.6,1.6,1.6h25.2c0.5,0,1-0.2,1.3-0.6C144.5,83.4,144.6,82.9,144.4,82.4z"/>
	<path fill="#214084" d="M35.7,96.3c-6.6,0-11.9,5.4-11.9,11.9c0,6.6,5.4,11.9,11.9,11.9c6.6,0,11.9-5.4,11.9-11.9
		C47.6,101.6,42.3,96.3,35.7,96.3z"/>
	<path fill="#214084" d="M122.7,96.3c-6.6,0-11.9,5.4-11.9,11.9c0,6.6,5.4,11.9,11.9,11.9c6.6,0,11.9-5.4,11.9-11.9
		C134.6,101.6,129.3,96.3,122.7,96.3z"/>
	<path fill="#FFD500" d="M24.1,63v6.7c0,1.2,1,2.1,2.1,2.1h33.5v8.3c0,0.8,0.5,1.6,1.2,1.9c0.3,0.1,0.6,0.2,0.9,0.2
		c0.5,0,1-0.2,1.3-0.5l20.5-16.5c0.5-0.4,0.8-1,0.8-1.6c0-0.2,0-0.4-0.1-0.5H24.1z"/>
	<path fill="#5EB2D3" d="M35.7,99.8c-4.7,0-8.4,3.8-8.4,8.4c0,4.7,3.8,8.4,8.4,8.4c4.7,0,8.4-3.8,8.4-8.4
		C44.1,103.6,40.3,99.8,35.7,99.8z"/>
	<path fill="#5EB2D3" d="M122.7,99.8c-4.7,0-8.4,3.8-8.4,8.4c0,4.7,3.8,8.4,8.4,8.4c4.7,0,8.4-3.8,8.4-8.4
		C131.1,103.6,127.3,99.8,122.7,99.8z"/>
</g>
</svg>
