<?xml version="1.0" encoding="utf-8"?>
<!-- Generator: Adobe Illustrator 18.0.0, SVG Export Plug-In . SVG Version: 6.00 Build 0)  -->
<!DOCTYPE svg PUBLIC "-//W3C//DTD SVG 1.1//EN" "http://www.w3.org/Graphics/SVG/1.1/DTD/svg11.dtd">
<svg version="1.1" id="Capa_1" xmlns="http://www.w3.org/2000/svg" xmlns:xlink="http://www.w3.org/1999/xlink" x="0px" y="0px"
	 viewBox="0 0 150 150" enable-background="new 0 0 150 150" xml:space="preserve">
<g>
	<path fill="#5EB2D3" d="M119.2,30.8C107.4,19,91.7,12.5,75,12.5c-16.7,0-32.4,6.5-44.2,18.3C19,42.6,12.5,58.3,12.5,75
		s6.5,32.4,18.3,44.2C42.6,131,58.3,137.5,75,137.5c16.7,0,32.4-6.5,44.2-18.3c11.8-11.8,18.3-27.5,18.3-44.2S131,42.6,119.2,30.8z"
		/>
	<g>
		<path fill="#FFFFFF" d="M120.8,75c0,25.3-20.5,45.8-45.8,45.8c-25.3,0-45.8-20.5-45.8-45.8c0-25.3,20.5-45.8,45.8-45.8
			C100.3,29.2,120.8,49.7,120.8,75z"/>
		<path fill="#214084" d="M75,122.5c-26.2,0-47.5-21.3-47.5-47.5S48.8,27.5,75,27.5c26.2,0,47.5,21.3,47.5,47.5
			S101.2,122.5,75,122.5z M75,31c-24.2,0-44,19.7-44,44s19.7,44,44,44c24.2,0,44-19.7,44-44S99.2,31,75,31z"/>
	</g>
	<g>
		<path fill="#FFFFFF" d="M75,41.5V29.2V41.5z"/>
		<path fill="#214084" d="M75,43.3c-1,0-1.8-0.8-1.8-1.8V29.2c0-1,0.8-1.8,1.8-1.8c1,0,1.8,0.8,1.8,1.8v12.2
			C76.8,42.5,76,43.3,75,43.3z"/>
	</g>
	<g>
		<path fill="#FFFFFF" d="M75,120.8v-12.2V120.8z"/>
		<path fill="#214084" d="M75,122.5c-1,0-1.8-0.8-1.8-1.8v-12.2c0-1,0.8-1.8,1.8-1.8c1,0,1.8,0.8,1.8,1.8v12.2
			C76.8,121.7,76,122.5,75,122.5z"/>
	</g>
	<g>
		<path fill="#FFFFFF" d="M108.5,75h12.2H108.5z"/>
		<path fill="#214084" d="M120.8,76.8h-12.2c-1,0-1.8-0.8-1.8-1.8c0-1,0.8-1.8,1.8-1.8h12.2c1,0,1.8,0.8,1.8,1.8
			C122.5,76,121.7,76.8,120.8,76.8z"/>
	</g>
	<g>
		<path fill="#FFFFFF" d="M29.2,75h12.2H29.2z"/>
		<path fill="#214084" d="M41.5,76.8H29.2c-1,0-1.8-0.8-1.8-1.8c0-1,0.8-1.8,1.8-1.8h12.2c1,0,1.8,0.8,1.8,1.8
			C43.3,76,42.5,76.8,41.5,76.8z"/>
	</g>
	<path fill="#FFE36E" d="M100.8,49.2c-0.6-0.6-1.4-0.7-2.1-0.3L67.1,66.5c-0.3,0.2-0.5,0.4-0.7,0.7L48.9,98.7
		c-0.4,0.7-0.3,1.6,0.3,2.1c0.3,0.3,0.8,0.5,1.3,0.5c0.3,0,0.6-0.1,0.9-0.2l31.5-17.6c0.3-0.2,0.5-0.4,0.7-0.7l17.6-31.5
		C101.5,50.6,101.4,49.7,100.8,49.2z"/>
	<path fill="#FFD500" d="M82,82L82,82L82,82L68,68l0,0l0,0l-1.2-1.3c-0.1,0.1-0.2,0.3-0.3,0.4L48.9,98.7c-0.4,0.7-0.3,1.6,0.3,2.1
		c0.3,0.3,0.8,0.5,1.3,0.5c0.3,0,0.6-0.1,0.9-0.2l31.5-17.6c0.2-0.1,0.3-0.2,0.4-0.3L82,82z"/>
</g>
</svg>
