<?xml version="1.0" encoding="utf-8"?>
<!-- Generator: Adobe Illustrator 18.0.0, SVG Export Plug-In . SVG Version: 6.00 Build 0)  -->
<!DOCTYPE svg PUBLIC "-//W3C//DTD SVG 1.1//EN" "http://www.w3.org/Graphics/SVG/1.1/DTD/svg11.dtd">
<svg version="1.1" id="Capa_1" xmlns="http://www.w3.org/2000/svg" xmlns:xlink="http://www.w3.org/1999/xlink" x="0px" y="0px"
	 viewBox="0 0 150 150" enable-background="new 0 0 150 150" xml:space="preserve">
<g>
	<path fill="#FFD500" d="M75.1,39.4c0.9,0,1.6-0.8,1.6-1.7V26.4c0-0.5-0.2-0.9-0.5-1.2c-0.3-0.3-0.7-0.5-1.2-0.5
		c-6,0.1-11.6,2.5-15.8,6.8c-3.8,3.9-6.1,8.9-6.5,14.2H32.4c-0.8,0-1.4,0.5-1.6,1.2L10,123.2c-0.1,0.5,0,1,0.3,1.5
		c0.3,0.4,0.8,0.7,1.3,0.7H75c0.9,0,1.7-0.8,1.7-1.7V47.8c0-0.9-0.8-1.7-1.7-1.7h-7.9C67.9,42.4,71.1,39.5,75.1,39.4z"/>
	<path fill="#FFE36E" d="M140,123.2L119.2,47c-0.2-0.7-0.9-1.2-1.6-1.2H97.3c-0.4-5.4-2.6-10.4-6.5-14.2c-4.2-4.3-9.8-6.7-15.8-6.8
		c0,0,0,0,0,0v14.7c3.9,0.2,7.1,3,7.9,6.7H75v79.2h63.3c0.5,0,1-0.2,1.3-0.7C140,124.2,140.1,123.7,140,123.2z"/>
	<g>
		<g>
			<path fill="#214084" d="M74.4,98.1h-7.5l-4.8-9.4l-2,1.2v8.2h-6.7V73.6h6.7v10.6c0.3-0.7,1-1.7,2-3.1l5.1-7.5h7.2l-7.7,11
				L74.4,98.1z"/>
		</g>
		<g>
			<path fill="#214084" d="M86.9,83.7h10.6V97c-2.9,1-6,1.5-9.5,1.5c-3.8,0-6.7-1.1-8.8-3.3c-2.1-2.2-3.1-5.3-3.1-9.4
				c0-4,1.1-7,3.4-9.2c2.3-2.2,5.4-3.3,9.5-3.3c1.5,0,3,0.1,4.4,0.4c1.4,0.3,2.6,0.7,3.6,1.1L94.9,80c-1.8-0.9-3.7-1.3-5.8-1.3
				c-1.9,0-3.4,0.6-4.5,1.9c-1.1,1.3-1.6,3.1-1.6,5.4c0,2.3,0.5,4,1.4,5.2c1,1.2,2.3,1.8,4.1,1.8c1,0,1.9-0.1,2.7-0.3v-3.8h-4.4
				V83.7z"/>
		</g>
	</g>
</g>
</svg>
