<?xml version="1.0" encoding="utf-8"?>
<!-- Generator: Adobe Illustrator 18.0.0, SVG Export Plug-In . SVG Version: 6.00 Build 0)  -->
<!DOCTYPE svg PUBLIC "-//W3C//DTD SVG 1.1//EN" "http://www.w3.org/Graphics/SVG/1.1/DTD/svg11.dtd">
<svg version="1.1" id="Capa_1" xmlns="http://www.w3.org/2000/svg" xmlns:xlink="http://www.w3.org/1999/xlink" x="0px" y="0px"
	 viewBox="0 0 150 150" enable-background="new 0 0 150 150" xml:space="preserve">
<g>
	<path fill="#5EB2D3" d="M85.2,22H64.7c-0.8,0-1.5,0.7-1.5,1.5v12.4c0,0.8,0.7,1.5,1.5,1.5h20.5c0.8,0,1.5-0.7,1.5-1.5V23.5
		C86.7,22.7,86,22,85.2,22z"/>
	<path fill="#214084" d="M95.6,42h-6.7v-6.1c0-0.8-0.7-1.5-1.5-1.5H62.5c-0.8,0-1.5,0.7-1.5,1.5V42h-6.7c-0.8,0-1.5,0.7-1.5,1.5
		v25.6c0,0.8,0.7,1.5,1.5,1.5h8.2c0.8,0,1.5-0.7,1.5-1.5v-3.3h21.9v3.3c0,0.8,0.7,1.5,1.5,1.5h8.2c0.8,0,1.5-0.7,1.5-1.5V43.5
		C97,42.7,96.4,42,95.6,42z"/>
	<path fill="#FFD500" d="M75.8,44.9c-0.5-0.3-1.1-0.2-1.5,0.1L40.2,67.8c-0.5,0.4-0.8,1-0.6,1.7L53.5,112c0.2,0.5,0.6,0.9,1.2,1
		l9.1,1.5c0.1,0,0.2,0,0.2,0c0.1,0,0.2,0,0.3,0l11-2.6c0.7-0.2,1.1-0.7,1.1-1.4l0.2-64.2C76.6,45.6,76.3,45.1,75.8,44.9z"/>
	<path fill="#214084" d="M74.9,108.2c-1.8,0.3-3.5,1-5.1,2.2l0,0c-4.2,3-9.2,3-13.4,0.1l-0.3-0.2c-4.2-2.9-9.2-2.9-13.4,0.1
		l-6.7,4.8h38.9V108.2z"/>
	<path fill="#FFE36E" d="M110,67.8L75.9,45c-0.2-0.2-0.5-0.2-0.7-0.2v67.1c0.3-0.1,0.6-0.2,0.8-0.4c0.2,0.4,0.7,0.7,1.3,0.7
		c1.5,0,2.9,0.2,4.3,0.3c1.4,0.1,2.7,0.1,4.1,0.1c1.3,0.1,2.6,0.2,3.9,0.2h4.6c0.1,0,0.2,0,0.3,0c0.1,0.1,0.3,0.2,0.5,0.3
		c0.2,0,0.3,0.1,0.5,0.1c0.6,0,1.2-0.4,1.4-1l13.9-42.5C110.8,68.9,110.5,68.2,110,67.8z"/>
	<path fill="#214084" d="M136.2,123.2c-4.2-3-9.2-3-13.4-0.1l-0.3,0.2c-4.2,2.9-9.2,2.9-13.4-0.1l0,0c-4.2-3-9.2-3-13.4-0.1
		l-0.3,0.2c-4.2,2.9-9.2,2.9-13.4-0.1c-2.2-1.6-4.6-2.3-7-2.3c-2.4,0-4.8,0.7-7,2.3c-4.2,3-9.2,3-13.4,0.1l-0.3-0.2
		c-4.2-2.9-9.2-2.9-13.4,0.1l0,0c-4.2,3-9.2,3-13.4,0.1l-0.3-0.2c-4.2-2.9-9.2-2.9-13.4,0.1L7.1,128h67.8h0.2h67.8L136.2,123.2z"/>
	<path fill="#214084" d="M107.1,110.3c-4.2-3-9.2-3-13.4-0.1l-0.3,0.2c-4.2,2.9-9.2,2.9-13.4-0.1c-1.6-1.2-3.4-1.9-5.1-2.2l0,0l0,0
		l0,0l0,0c-1.8,0.3-3.5,1-5.1,2.2c-4.2,3-9.2,3-13.4,0.1l-0.3-0.2c-4.2-2.9-9.2-2.9-13.4,0.1l-6.7,4.8h38.9l0,0h38.9L107.1,110.3z"
		/>
</g>
</svg>
