<?xml version="1.0" encoding="utf-8"?>
<!-- Generator: Adobe Illustrator 18.0.0, SVG Export Plug-In . SVG Version: 6.00 Build 0)  -->
<!DOCTYPE svg PUBLIC "-//W3C//DTD SVG 1.1//EN" "http://www.w3.org/Graphics/SVG/1.1/DTD/svg11.dtd">
<svg version="1.1" id="Capa_1" xmlns="http://www.w3.org/2000/svg" xmlns:xlink="http://www.w3.org/1999/xlink" x="0px" y="0px"
	 viewBox="0 0 150 150" enable-background="new 0 0 150 150" xml:space="preserve">
<g>
	<path fill="#5EB2D3" d="M142.3,28.8H38c-1,0-1.8,0.8-1.8,1.8v92.2c0,1,0.8,1.8,1.8,1.8h104.2c1,0,1.8-0.8,1.8-1.8V30.6
		C144.1,29.6,143.3,28.8,142.3,28.8z"/>
	<path fill="#214084" d="M143.6,29.3l-16.9-16.5c-0.3-0.3-0.8-0.5-1.3-0.5H54.9c-0.5,0-0.9,0.2-1.3,0.5L36.8,29.3
		c-0.5,0.5-0.7,1.3-0.4,2c0.3,0.7,0.9,1.1,1.7,1.1h104.2c0.7,0,1.4-0.4,1.7-1.1C144.2,30.6,144.1,29.8,143.6,29.3z"/>
	<g>
		<path fill="#FFD500" d="M122.2,99.1c-5.2,0-9.4-4.2-9.4-9.4V77.4c0-1,0.8-1.8,1.8-1.8h15.3c1,0,1.8,0.8,1.8,1.8v12.2
			C131.7,94.8,127.5,99.1,122.2,99.1z M116.4,79.2v10.4c0,3.2,2.6,5.8,5.8,5.8l0,0c3.2,0,5.8-2.6,5.8-5.8V79.2H116.4z"/>
		<path fill="#FFD500" d="M129.9,114.4h-15.3c-1,0-1.8-0.8-1.8-1.8c0-1,0.8-1.8,1.8-1.8h15.3c1,0,1.8,0.8,1.8,1.8
			C131.7,113.6,130.9,114.4,129.9,114.4z"/>
		<path fill="#FFD500" d="M122.2,114.4c-1,0-1.8-0.8-1.8-1.8V97.3c0-1,0.8-1.8,1.8-1.8c1,0,1.8,0.8,1.8,1.8v15.4
			C124.1,113.6,123.2,114.4,122.2,114.4z"/>
	</g>
	<rect x="80.7" y="32.3" fill="#FFE36E" width="18.6" height="92.4"/>
	<g>
		<g>
			<path fill="#FFD500" d="M59.3,97.5l16,16L59.3,97.5z"/>
			<path fill="#FFD500" d="M75.3,115.4c-0.5,0-0.9-0.2-1.3-0.5l-16-16c-0.7-0.7-0.7-1.8,0-2.6c0.7-0.7,1.8-0.7,2.6,0l16,16
				c0.7,0.7,0.7,1.8,0,2.6C76.2,115.2,75.8,115.4,75.3,115.4z"/>
		</g>
		<path fill="#FFD500" d="M97,125.5l-18.2-18.2c-2.8-2.8-7.3-2.8-10,0c-1.3,1.3-2.1,3.1-2.1,5c0,1.9,0.7,3.7,2.1,5L87,135.6
			c1.4,1.4,3.2,2.1,5,2.1c1.8,0,3.6-0.7,5-2.1C99.8,132.8,99.8,128.3,97,125.5z"/>
		<path fill="#FFD500" d="M36.4,57.3c1,0,1.7-0.8,1.7-1.8l0-9.5c0-0.5-0.2-1-0.5-1.3c-0.3-0.3-0.8-0.5-1.3-0.5
			c-8,0.2-15.5,3.5-21.2,9.1c-12.2,12.2-12.2,32,0,44.2c5.7,5.7,13.2,8.9,21.2,9.1c0,0,0,0,0,0c0.5,0,0.9-0.2,1.3-0.5
			c0.3-0.3,0.5-0.8,0.5-1.3v-9.5c0-1-0.8-1.8-1.7-1.8c-4.6-0.2-8.9-2.1-12.1-5.3c-7.1-7.1-7.1-18.6,0-25.7
			C27.5,59.3,31.8,57.4,36.4,57.3z"/>
		<path fill="#FFE36E" d="M59.2,53.3c-6.1-6.1-14.3-9.4-22.9-9.1l0,0l0,13.1c0,0,0.1,0,0.1,0c5.1-0.2,10,1.7,13.6,5.3
			c7.1,7.1,7.1,18.6,0,25.7c-3.6,3.6-8.5,5.5-13.6,5.3c0,0-0.1,0-0.1,0v13.1h0c0.3,0,0.6,0,0.9,0c8.3,0,16.1-3.2,22.1-9.1
			C71.4,85.3,71.4,65.5,59.2,53.3z"/>
	</g>
	<polygon fill="#FFD500" points="95.5,12.4 84.6,12.4 80.7,32.3 99.3,32.3 	"/>
</g>
</svg>
