<?xml version="1.0" encoding="utf-8"?>
<!-- Generator: Adobe Illustrator 18.0.0, SVG Export Plug-In . SVG Version: 6.00 Build 0)  -->
<!DOCTYPE svg PUBLIC "-//W3C//DTD SVG 1.1//EN" "http://www.w3.org/Graphics/SVG/1.1/DTD/svg11.dtd">
<svg version="1.1" id="Capa_1" xmlns="http://www.w3.org/2000/svg" xmlns:xlink="http://www.w3.org/1999/xlink" x="0px" y="0px"
	 viewBox="0 0 150 150" enable-background="new 0 0 150 150" xml:space="preserve">
<g>
	<path fill="#214084" d="M116.5,25.8H22c-0.9,0-1.7,0.7-1.7,1.7V138c0,0.9,0.8,1.7,1.7,1.7h94.5c0.9,0,1.7-0.7,1.7-1.7V27.5
		C118.2,26.6,117.4,25.8,116.5,25.8z"/>
	<path fill="#FFFFFF" d="M106,34.5H33.8c-0.9,0-1.7,0.8-1.7,1.7v88.1c0,0.9,0.8,1.7,1.7,1.7H106c0.9,0,1.7-0.8,1.7-1.7V36.2
		C107.6,35.3,106.9,34.5,106,34.5z"/>
	<path fill="#5EB2D3" d="M97.4,20.7H81.2c-0.8-5.9-5.9-10.4-12-10.4c-6.1,0-11.2,4.5-12,10.4H41.1c-0.9,0-1.7,0.8-1.7,1.7v17.9
		c0,0.9,0.8,1.7,1.7,1.7h56.3c0.9,0,1.7-0.8,1.7-1.7V22.4C99.1,21.4,98.3,20.7,97.4,20.7z"/>
	<circle fill="#FFE36E" cx="46.1" cy="52.7" r="4.5"/>
	<g>
		<path fill="#214084" d="M58.4,52.7h36.5H58.4z"/>
		<path fill="#214084" d="M94.8,54.4H58.4c-0.9,0-1.7-0.8-1.7-1.7c0-0.9,0.8-1.7,1.7-1.7h36.5c0.9,0,1.7,0.8,1.7,1.7
			C96.5,53.6,95.8,54.4,94.8,54.4z"/>
	</g>
	<circle fill="#FFE36E" cx="46.1" cy="67.3" r="4.5"/>
	<g>
		<path fill="#214084" d="M58.4,67.3h36.5H58.4z"/>
		<path fill="#214084" d="M94.8,69H58.4c-0.9,0-1.7-0.8-1.7-1.7c0-0.9,0.8-1.7,1.7-1.7h36.5c0.9,0,1.7,0.8,1.7,1.7
			C96.5,68.2,95.8,69,94.8,69z"/>
	</g>
	<circle fill="#FFE36E" cx="46.1" cy="81.9" r="4.5"/>
	<g>
		<path fill="#214084" d="M58.4,81.9h36.5H58.4z"/>
		<path fill="#214084" d="M94.8,83.6H58.4c-0.9,0-1.7-0.7-1.7-1.7c0-0.9,0.8-1.7,1.7-1.7h36.5c0.9,0,1.7,0.8,1.7,1.7
			C96.5,82.8,95.8,83.6,94.8,83.6z"/>
	</g>
	<circle fill="#FFE36E" cx="46.1" cy="96.5" r="4.5"/>
	<g>
		<path fill="#214084" d="M58.4,96.5h36.5H58.4z"/>
		<path fill="#214084" d="M94.8,98.2H58.4c-0.9,0-1.7-0.8-1.7-1.7c0-0.9,0.8-1.7,1.7-1.7h36.5c0.9,0,1.7,0.8,1.7,1.7
			C96.5,97.4,95.8,98.2,94.8,98.2z"/>
	</g>
	<g>
		<path fill="#FFE36E" d="M115.1,79.5c-0.1-0.4-0.3-0.8-0.7-1.1l-6.6-4.6c-0.8-0.5-1.8-0.3-2.3,0.4l-19.1,27.7
			c-0.3,0.4-0.4,0.8-0.3,1.3c0.1,0.4,0.3,0.8,0.7,1.1l6.6,4.6c0.3,0.2,0.6,0.3,1,0.3c0.5,0,1.1-0.3,1.4-0.7l19.1-27.7
			C115,80.4,115.1,79.9,115.1,79.5z"/>
		<path fill="#FFD500" d="M137.3,38.1c-1.6-1.1-3.5-1.5-5.4-1.2c-1.9,0.4-3.6,1.4-4.7,3l-23.1,33.4c-0.3,0.4-0.4,0.8-0.3,1.3
			c0.1,0.4,0.3,0.8,0.7,1.1l9.2,6.3c0.3,0.2,0.6,0.3,1,0.3c0.5,0,1.1-0.3,1.4-0.7l23.1-33.4C141.4,44.9,140.6,40.3,137.3,38.1z"/>
		<path fill="#FFD500" d="M129.1,72.3c-0.3,0-0.7-0.1-1-0.3c-0.8-0.5-1-1.6-0.4-2.3L138,54.7l-2.5-5.8c-0.4-0.8,0-1.8,0.9-2.2
			c0.8-0.4,1.8,0,2.2,0.9l2.9,6.7c0.2,0.5,0.2,1.1-0.2,1.6l-10.8,15.7C130.2,72,129.7,72.3,129.1,72.3z"/>
		<polygon fill="#FFD500" points="86.3,102 81,119.7 95.7,108.4 		"/>
	</g>
</g>
</svg>
