<?xml version="1.0" encoding="utf-8"?>
<!-- Generator: Adobe Illustrator 18.0.0, SVG Export Plug-In . SVG Version: 6.00 Build 0)  -->
<!DOCTYPE svg PUBLIC "-//W3C//DTD SVG 1.1//EN" "http://www.w3.org/Graphics/SVG/1.1/DTD/svg11.dtd">
<svg version="1.1" id="Capa_1" xmlns="http://www.w3.org/2000/svg" xmlns:xlink="http://www.w3.org/1999/xlink" x="0px" y="0px"
	 viewBox="0 0 150 150" enable-background="new 0 0 150 150" xml:space="preserve">
<g>
	<path fill="#FFE36E" d="M33.5,53.2c-4.8,0-8.7,3.9-8.7,8.7v4.7c0,0.7,0.6,1.3,1.3,1.3h14.9c0.7,0,1.3-0.6,1.3-1.3v-4.7
		C42.2,57.1,38.3,53.2,33.5,53.2z"/>
	<path fill="#FFD500" d="M122.4,52.8h-15.2c-0.7,0-1.3,0.6-1.3,1.3v23.1c0,0.7,0.6,1.3,1.3,1.3h15.2c0.7,0,1.3-0.6,1.3-1.3V54.1
		C123.6,53.4,123.1,52.8,122.4,52.8z"/>
	<rect x="105.9" y="64.7" fill="#5EB2D3" width="17.7" height="12.2"/>
	<path fill="#FFD500" d="M102.4,52.8H87.2c-0.7,0-1.3,0.6-1.3,1.3v23.1c0,0.7,0.6,1.3,1.3,1.3h15.2c0.7,0,1.3-0.6,1.3-1.3V54.1
		C103.7,53.4,103.1,52.8,102.4,52.8z"/>
	<path fill="#5EB2D3" d="M102.2,52.9H87.4c-0.8,0-1.4,0.6-1.4,1.4v9.6h17.7v-9.6C103.7,53.5,103,52.9,102.2,52.9z"/>
	<path fill="#FFD500" d="M82.4,40.8H67.3c-0.7,0-1.3,0.6-1.3,1.3v35.1c0,0.7,0.6,1.3,1.3,1.3h15.2c0.7,0,1.3-0.6,1.3-1.3V42.1
		C83.7,41.4,83.1,40.8,82.4,40.8z"/>
	<path fill="#FFD500" d="M41.4,58.4l-0.3-0.8H25.8l-0.3,0.8c-0.5,1.1-0.8,2.3-0.8,3.5v5.9h17.4v-5.9C42.2,60.7,41.9,59.5,41.4,58.4z
		"/>
	<path fill="#214084" d="M51.7,65.3H21.6c-0.7,0-1.3,0.6-1.3,1.3v10.6c0,0.7,0.6,1.3,1.3,1.3h30.1c0.7,0,1.3-0.6,1.3-1.3V66.6
		C53,65.9,52.4,65.3,51.7,65.3z"/>
	<rect x="66" y="64.7" fill="#5EB2D3" width="17.7" height="12.2"/>
	<path fill="#FFE36E" d="M142.6,76.8c-0.2-0.5-0.7-0.9-1.2-0.9H16.2c-0.4,0-0.9,0.2-1.1,0.6c-0.2,0.4-0.2,0.8,0,1.2l7.4,14.5
		c0.2,0.4,0.7,0.7,1.1,0.7c0.2,0,0.4,0,0.6-0.1c0.4-0.2,0.7-0.7,0.7-1.1h92.9c0,0.2,0.1,0.5,0.2,0.7c0.4,0.6,1.2,0.8,1.8,0.4
		l22.3-14.5C142.5,78,142.8,77.4,142.6,76.8z"/>
	<polygon fill="#FFD500" points="17.2,82 22.9,93 119.4,93 136.3,82 	"/>
	<path fill="#214084" d="M133.9,94l-6.1-4.3c-3.6-2.5-8-2.5-11.6,0.1l0,0c-3.6,2.6-8,2.6-11.6,0.1l-0.3-0.2c-3.6-2.5-8-2.5-11.6,0.1
		l0,0c-3.6,2.6-8,2.6-11.6,0.1l-0.3-0.2c-3.6-2.5-8-2.5-11.6,0.1l0,0c-3.6,2.6-8,2.6-11.6,0.1l-0.3-0.2c-3.6-2.5-8-2.5-11.6,0.1l0,0
		c-3.6,2.6-8,2.6-11.6,0.1l-0.3-0.2c-3.6-2.5-8-2.5-11.6,0.1L16.5,94H133.9z"/>
	<path fill="#214084" d="M143.1,107.2l-6.1-4.3c-3.6-2.5-8-2.5-11.6,0.1l0,0c-3.6,2.6-8,2.6-11.6,0.1l-0.3-0.2
		c-3.6-2.5-8-2.5-11.6,0.1h0c-3.6,2.6-8,2.6-11.6,0.1l-0.3-0.2c-3.6-2.5-8-2.5-11.6,0.1l0,0c-3.6,2.6-8,2.6-11.6,0.1l-0.3-0.2
		c-3.6-2.5-8-2.5-11.6,0.1l0,0c-3.6,2.6-8,2.6-11.6,0.1l-0.3-0.2c-3.6-2.5-8-2.5-11.6,0.1l-5.8,4.2H143.1z"/>
	<path fill="#5EB2D3" d="M82.2,40.8H67.4c-0.8,0-1.4,0.6-1.4,1.4v9.6h17.7v-9.6C83.7,41.5,83,40.8,82.2,40.8z"/>
</g>
</svg>
