<?xml version="1.0" encoding="utf-8"?>
<!-- Generator: Adobe Illustrator 18.0.0, SVG Export Plug-In . SVG Version: 6.00 Build 0)  -->
<!DOCTYPE svg PUBLIC "-//W3C//DTD SVG 1.1//EN" "http://www.w3.org/Graphics/SVG/1.1/DTD/svg11.dtd">
<svg version="1.1" id="Capa_1" xmlns="http://www.w3.org/2000/svg" xmlns:xlink="http://www.w3.org/1999/xlink" x="0px" y="0px"
	 viewBox="0 0 150 150" enable-background="new 0 0 150 150" xml:space="preserve">
<g>
	<path fill="#5EB2D3" d="M136.5,32.3L75.6,10.4c-0.4-0.1-0.8-0.1-1.2,0L13.5,32.3c-0.7,0.3-1.2,0.9-1.2,1.7c0,0.8,0.5,1.4,1.2,1.7
		l60.9,21.9c0.2,0.1,0.4,0.1,0.6,0.1c0.2,0,0.4,0,0.6-0.1l60.9-21.9c0.7-0.3,1.2-0.9,1.2-1.7C137.7,33.3,137.2,32.6,136.5,32.3z"/>
	<path fill="#5EB2D3" d="M75.6,54.2L14.7,32.3c-0.6-0.2-1.2-0.1-1.6,0.2c-0.5,0.3-0.8,0.9-0.8,1.5v78c0,0.7,0.4,1.4,1.1,1.7
		l60.9,25.8c0.2,0.1,0.5,0.1,0.7,0.1c0.3,0,0.7-0.1,1-0.3c0.5-0.3,0.8-0.9,0.8-1.5V55.9C76.8,55.2,76.3,54.5,75.6,54.2z"/>
	<path fill="#214084" d="M136.9,32.6c-0.5-0.3-1.1-0.4-1.6-0.2L74.4,54.2c-0.7,0.3-1.2,0.9-1.2,1.7v81.9c0,0.6,0.3,1.2,0.8,1.5
		c0.3,0.2,0.6,0.3,1,0.3c0.3,0,0.5-0.1,0.7-0.2l60.9-27.3c0.6-0.3,1.1-0.9,1.1-1.6V34C137.7,33.4,137.4,32.9,136.9,32.6z"/>
	<path fill="#FFD500" d="M93.2,16.7L33.3,40.8v29.9c0,0.8,0.5,1.6,1.3,1.9l16.9,6.4c0.2,0.1,0.5,0.1,0.7,0.1c0.4,0,0.8-0.1,1.2-0.4
		c0.6-0.4,0.9-1,0.9-1.7V48.6L117,25.3L93.2,16.7z"/>
	<g>
		<path fill="#2AA9E0" d="M85,120.4l22.8-10.3L85,120.4z"/>
		<path fill="#FFD500" d="M85,122.2c-0.7,0-1.3-0.4-1.6-1.1c-0.4-0.9,0-2,0.9-2.4l22.8-10.3c0.9-0.4,2,0,2.4,0.9
			c0.4,0.9,0,2-0.9,2.4l-22.8,10.3C85.5,122.2,85.2,122.2,85,122.2z"/>
	</g>
	<path fill="#FFD500" d="M84,106.8c-0.4,0-0.8-0.1-1.1-0.4c-0.8-0.6-0.9-1.8-0.2-2.5l5-6.1c0.6-0.7,1.7-0.9,2.4-0.3l4,2.8
		c0.8,0.6,1,1.7,0.4,2.5c-0.6,0.8-1.7,1-2.5,0.4l-2.7-1.9l-4,4.8C85,106.6,84.5,106.8,84,106.8z"/>
	<path fill="#FFD500" d="M89,120.2c-1,0-1.8-0.8-1.8-1.8V98.9c0-1,0.8-1.8,1.8-1.8c1,0,1.8,0.8,1.8,1.8v19.5
		C90.8,119.3,90,120.2,89,120.2z"/>
	<path fill="#FFD500" d="M97.6,100.9c-0.4,0-0.8-0.1-1.1-0.4c-0.8-0.6-0.9-1.8-0.2-2.5l5-6.1c0.6-0.7,1.7-0.9,2.4-0.3l4,2.8
		c0.8,0.6,1,1.7,0.4,2.5c-0.6,0.8-1.7,1-2.5,0.4l-2.7-1.9l-4,4.8C98.6,100.7,98.1,100.9,97.6,100.9z"/>
	<path fill="#FFD500" d="M102.6,114.3c-1,0-1.8-0.8-1.8-1.8V93c0-1,0.8-1.8,1.8-1.8c1,0,1.8,0.8,1.8,1.8v19.5
		C104.4,113.5,103.6,114.3,102.6,114.3z"/>
	<path fill="#FFE36E" d="M52.5,47.8l-17.4-6.2L33.4,41c-0.1,0.2-0.1,0.4-0.1,0.6v29.1c0,0.8,0.5,1.6,1.3,1.9l16.9,6.4
		c0.2,0.1,0.5,0.1,0.7,0.1c0.4,0,0.8-0.1,1.2-0.4c0.6-0.4,0.9-1,0.9-1.7V48.5L52.5,47.8z"/>
</g>
</svg>
