<?xml version="1.0" encoding="utf-8"?>
<!-- Generator: Adobe Illustrator 18.0.0, SVG Export Plug-In . SVG Version: 6.00 Build 0)  -->
<!DOCTYPE svg PUBLIC "-//W3C//DTD SVG 1.1//EN" "http://www.w3.org/Graphics/SVG/1.1/DTD/svg11.dtd">
<svg version="1.1" id="Capa_1" xmlns="http://www.w3.org/2000/svg" xmlns:xlink="http://www.w3.org/1999/xlink" x="0px" y="0px"
	 viewBox="0 0 150 150" enable-background="new 0 0 150 150" xml:space="preserve">
<g>
	<path fill="#5EB2D3" d="M116.1,35.7c-11-11-25.6-17.1-41.2-17.1c-15.6,0-30.2,6.1-41.2,17.1c-11,11-17.1,25.6-17.1,41.2
		s6.1,30.2,17.1,41.2c11,11,25.6,17.1,41.2,17.1c15.6,0,30.2-6.1,41.2-17.1c11-11,17.1-25.6,17.1-41.2S127.1,46.7,116.1,35.7z"/>
	<path fill="#FFE36E" d="M133.7,71.7c-1.5-9.5-3.4-16.2-9.3-26.3c-2.2-3.7-4.9-7.2-9.8-7.6L103,37c-3.4-0.2-6.6,0.9-9.1,3.1
		c-2.5,2.2-4,5.3-4.2,8.7L89,60.1c-0.2,3.2,0.8,6.2,2.8,8.7c2,2.5,4.8,4.1,7.9,4.5l3.2,0.5c3.1,0.4,5.7,2.4,7,5.2l5.8,17.9
		c0,0.1,0,0.1,0.1,0.2c0.7,1.6,2.2,2.6,3.9,2.6c0,0,0.1,0,0.1,0c1.7,0,3.2-0.9,3.9-2.4c0.8-1.7,2.1-3.3,3.5-5
		C130.8,87.4,135.3,81.6,133.7,71.7z"/>
	<path fill="#FFE36E" d="M82.7,19.5c-0.2-0.7-0.8-1.2-1.5-1.2c-0.3,0-7.7-0.7-12.7,0c-0.6,0.1-1.1,0.5-1.3,1c-0.8,1.8-2.5,6.2-1,8.4
		c0.6,0.9,1.5,1.4,2.6,1.4c3.6,0,11.1-5.9,13.4-7.7C82.7,20.9,82.9,20.2,82.7,19.5z"/>
	<path fill="#FFD500" d="M69.1,92.6c1.2-2.4,1.1-5.1-0.3-7.4c-1.4-2.2-3.8-3.6-6.4-3.6h-6.1c-0.4,0-0.8-0.1-1.3-0.2l-14.3-4.6l0,0
		c-2.2-0.7-4.6-0.4-6.5,0.9c-1.9,1.3-3.2,3.4-3.3,5.7L30,93.8c-0.2,2.7,1,5.3,3.2,6.8l6.6,4.7c0.7,0.5,1.3,1.3,1.6,2.1l2.3,7.5
		c0.6,1.8,1.8,3.3,3.4,4.3l11.9,7c0.7,0.4,1.5,0.6,2.3,0.6c1.1,0,2.1-0.4,3-1.2c1.5-1.3,1.9-3.4,1.1-5.2l-4.1-8.9
		c-0.5-1.1-0.5-2.4,0.1-3.5L69.1,92.6z"/>
	<path fill="#FFD500" d="M59.7,35.1c-2.8-2.5-5.8-0.7-8.2,0.8c-1.6,1-3.3,2-4.9,2c-0.1,0-0.2,0-0.3,0c0.5-0.8,1.5-2.1,2.2-2.9
		c0.3-0.4,0.6-0.7,0.9-1.1c1.8-2.2,3.3-6.4,1.6-8.5c-0.3-0.4-1.6-1.6-3.8-0.5c-2.9,1.4-18.8,11.9-25.7,27.2
		c-3,6.6-1.6,13.6,3.9,20.5c4,5,8.8,8,9,8.1c0.3,0.2,0.6,0.3,0.9,0.3c0.5,0,0.9-0.2,1.2-0.5c0.6-0.6,0.7-1.5,0.2-2.2
		c-1.4-2.1-1-3-0.4-4.7c0.4-1.2,1-2.6,0.8-4.5c-0.1-1.3-0.5-2.3-1-3.2c2.1,1.3,3.9,2.3,5.4,1.8c2.1-0.6,3-3.5,4.4-7.4
		c0.8-2.3,1.7-4.9,2.7-6.5c1.1-1.7,2.3-1.8,4.3-2c1.4-0.1,2.9-0.2,4.6-0.9c2.2-0.9,3.9-3.4,4.4-6.7C62.7,40.5,61.8,36.9,59.7,35.1z"
		/>
	<g>
		<path fill="#2AA9E0" d="M116.9,57.8V14.5V57.8z"/>
		<path fill="#FFFFFF" d="M116.9,59.6c-1,0-1.7-0.8-1.7-1.7V14.5c0-1,0.8-1.7,1.7-1.7c1,0,1.7,0.8,1.7,1.7v43.3
			C118.7,58.8,117.9,59.6,116.9,59.6z"/>
	</g>
	<path fill="#FFE36E" d="M134.7,22.5l6.2-6.7c0.5-0.5,0.6-1.2,0.3-1.9c-0.3-0.6-0.9-1-1.6-1h-22.7c-1,0-1.7,0.8-1.7,1.7v15.8
		c0,1,0.8,1.7,1.7,1.7h22.7c0.7,0,1.3-0.4,1.6-1c0.3-0.6,0.2-1.4-0.3-1.9L134.7,22.5z"/>
	<path fill="#FFFFFF" d="M60.5,100.5c-0.6,0-1.2-0.3-1.5-0.9l-28.7-51c-0.3-0.5-0.3-1.1,0-1.6l2.5-5c0.4-0.7,1.2-1.1,2-0.9
		l76.1,18.3c0.5,0.1,0.9,0.4,1.1,0.8l5.4,9.3c0.2,0.4,0.3,0.9,0.2,1.4c-0.1,0.5-0.4,0.8-0.9,1.1L69,96.6c0,0,0,0-0.1,0l-7.7,3.6
		C61,100.4,60.7,100.5,60.5,100.5z M33.7,47.7l27.5,48.8l6.2-2.9l46-23.9l-4.1-7L35.2,44.7L33.7,47.7z"/>
	<path fill="#214084" d="M28,34.2c-4.7,0-8.5,3.8-8.5,8.5c0,4.7,3.8,8.5,8.5,8.5c4.7,0,8.5-3.8,8.5-8.5C36.6,38,32.7,34.2,28,34.2z"
		/>
	<path fill="#214084" d="M115.8,55.5c-4.7,0-8.5,3.8-8.5,8.5c0,4.7,3.8,8.5,8.5,8.5c4.7,0,8.5-3.8,8.5-8.5
		C124.4,59.4,120.5,55.5,115.8,55.5z"/>
	<path fill="#214084" d="M63.1,90.2c-4.7,0-8.5,3.8-8.5,8.5c0,4.7,3.8,8.5,8.5,8.5c4.7,0,8.5-3.8,8.5-8.5
		C71.7,94,67.8,90.2,63.1,90.2z"/>
</g>
</svg>
