<?xml version="1.0" encoding="utf-8"?>
<!-- Generator: Adobe Illustrator 18.0.0, SVG Export Plug-In . SVG Version: 6.00 Build 0)  -->
<!DOCTYPE svg PUBLIC "-//W3C//DTD SVG 1.1//EN" "http://www.w3.org/Graphics/SVG/1.1/DTD/svg11.dtd">
<svg version="1.1" id="Capa_1" xmlns="http://www.w3.org/2000/svg" xmlns:xlink="http://www.w3.org/1999/xlink" x="0px" y="0px"
	 viewBox="0 0 150 150" enable-background="new 0 0 150 150" xml:space="preserve">
<g>
	<path fill="#214084" d="M41.9,139.8H21.1c-0.8,0-1.5-0.7-1.5-1.5V35.9c0-0.8,0.7-1.5,1.5-1.5h20.8c0.8,0,1.5,0.7,1.5,1.5v102.3
		C43.4,139.1,42.7,139.8,41.9,139.8z M22.6,136.7h17.7V37.5H22.6V136.7z"/>
	<path fill="#214084" d="M41.9,57.9c-0.4,0-0.8-0.1-1.1-0.4L20,37c-0.6-0.6-0.6-1.6,0-2.2s1.6-0.6,2.2,0L43,55.3
		c0.6,0.6,0.6,1.6,0,2.2C42.7,57.8,42.3,57.9,41.9,57.9z"/>
	<path fill="#214084" d="M41.9,78.4c-0.4,0-0.8-0.1-1.1-0.4L20,57.5c-0.6-0.6-0.6-1.6,0-2.2s1.6-0.6,2.2,0L43,75.8
		c0.6,0.6,0.6,1.6,0,2.2C42.7,78.2,42.3,78.4,41.9,78.4z"/>
	<path fill="#214084" d="M41.9,98.8c-0.4,0-0.8-0.1-1.1-0.4L20,77.9c-0.6-0.6-0.6-1.6,0-2.2s1.6-0.6,2.2,0L43,96.2
		c0.6,0.6,0.6,1.6,0,2.2C42.7,98.7,42.3,98.8,41.9,98.8z"/>
	<path fill="#214084" d="M41.9,119.3c-0.4,0-0.8-0.1-1.1-0.4L20,98.4c-0.6-0.6-0.6-1.6,0-2.2s1.6-0.6,2.2,0L43,116.7
		c0.6,0.6,0.6,1.6,0,2.2C42.7,119.1,42.3,119.3,41.9,119.3z"/>
	<path fill="#214084" d="M41.9,139.8c-0.4,0-0.8-0.1-1.1-0.4L20,118.9c-0.6-0.6-0.6-1.6,0-2.2c0.6-0.6,1.6-0.6,2.2,0L43,137.1
		c0.6,0.6,0.6,1.6,0,2.2C42.7,139.6,42.3,139.8,41.9,139.8z"/>
	<path fill="#214084" d="M21.1,57.9c-0.4,0-0.8-0.2-1.1-0.5c-0.6-0.6-0.6-1.6,0-2.2l20.8-20.5c0.6-0.6,1.6-0.6,2.2,0
		c0.6,0.6,0.6,1.6,0,2.2L22.2,57.5C21.9,57.8,21.5,57.9,21.1,57.9z"/>
	<path fill="#214084" d="M21.1,78.4c-0.4,0-0.8-0.2-1.1-0.5c-0.6-0.6-0.6-1.6,0-2.2l20.8-20.5c0.6-0.6,1.6-0.6,2.2,0
		c0.6,0.6,0.6,1.6,0,2.2L22.2,77.9C21.9,78.2,21.5,78.4,21.1,78.4z"/>
	<path fill="#214084" d="M21.1,98.8c-0.4,0-0.8-0.2-1.1-0.5c-0.6-0.6-0.6-1.6,0-2.2l20.8-20.5c0.6-0.6,1.6-0.6,2.2,0
		c0.6,0.6,0.6,1.6,0,2.2L22.2,98.4C21.9,98.7,21.5,98.8,21.1,98.8z"/>
	<path fill="#214084" d="M21.1,119.3c-0.4,0-0.8-0.2-1.1-0.5c-0.6-0.6-0.6-1.6,0-2.2l20.8-20.5c0.6-0.6,1.6-0.6,2.2,0
		c0.6,0.6,0.6,1.6,0,2.2l-20.8,20.5C21.9,119.2,21.5,119.3,21.1,119.3z"/>
	<path fill="#214084" d="M21.1,139.8c-0.4,0-0.8-0.2-1.1-0.5c-0.6-0.6-0.6-1.6,0-2.2l20.8-20.5c0.6-0.6,1.6-0.6,2.2,0
		c0.6,0.6,0.6,1.6,0,2.2l-20.8,20.5C21.9,139.6,21.5,139.8,21.1,139.8z"/>
	<path fill="#214084" d="M41.9,57.9H21.1c-0.8,0-1.5-0.7-1.5-1.5c0-0.8,0.7-1.5,1.5-1.5h20.8c0.8,0,1.5,0.7,1.5,1.5
		C43.4,57.2,42.7,57.9,41.9,57.9z"/>
	<path fill="#214084" d="M41.9,78.4H21.1c-0.8,0-1.5-0.7-1.5-1.5c0-0.8,0.7-1.5,1.5-1.5h20.8c0.8,0,1.5,0.7,1.5,1.5
		C43.4,77.7,42.7,78.4,41.9,78.4z"/>
	<path fill="#214084" d="M41.9,98.8H21.1c-0.8,0-1.5-0.7-1.5-1.5c0-0.8,0.7-1.5,1.5-1.5h20.8c0.8,0,1.5,0.7,1.5,1.5
		C43.4,98.2,42.7,98.8,41.9,98.8z"/>
	<path fill="#214084" d="M41.9,119.3H21.1c-0.8,0-1.5-0.7-1.5-1.5c0-0.8,0.7-1.5,1.5-1.5h20.8c0.8,0,1.5,0.7,1.5,1.5
		C43.4,118.6,42.7,119.3,41.9,119.3z"/>
	<path fill="#214084" d="M108.1,37.5H63.3c-0.8,0-1.5-0.7-1.5-1.5v-6.7c0-0.8,0.7-1.5,1.5-1.5h44.8c0.8,0,1.5,0.7,1.5,1.5v6.7
		C109.7,36.8,109,37.5,108.1,37.5z M64.9,34.4h41.7v-3.7H64.9V34.4z"/>
	<g>
		<circle fill="#FFFFFF" cx="108.8" cy="32.6" r="3.3"/>
		<path fill="#214084" d="M108.8,37.5c-2.7,0-4.9-2.2-4.9-4.9c0-2.7,2.2-4.9,4.9-4.9c2.7,0,4.9,2.2,4.9,4.9
			C113.7,35.3,111.5,37.5,108.8,37.5z M108.8,30.8c-1,0-1.8,0.8-1.8,1.8c0,1,0.8,1.8,1.8,1.8c1,0,1.8-0.8,1.8-1.8
			C110.6,31.6,109.8,30.8,108.8,30.8z"/>
	</g>
	<path fill="#214084" d="M108.8,58.8c-0.8,0-1.5-0.7-1.5-1.5V35.9c0-0.8,0.7-1.5,1.5-1.5c0.8,0,1.5,0.7,1.5,1.5v21.3
		C110.4,58.1,109.7,58.8,108.8,58.8z"/>
	<path fill="#214084" d="M112.3,67.5h-2.5c-2.4,0-4.3-1.9-4.3-4.3c0-0.8,0.7-1.5,1.5-1.5c0.8,0,1.5,0.7,1.5,1.5
		c0,0.7,0.6,1.3,1.3,1.3h2.5c0.7,0,1.3-0.6,1.3-1.3v-2.3c0-0.7-0.6-1.3-1.3-1.3h-3.4c-0.8,0-1.5-0.7-1.5-1.5v-6.2
		c0-0.8,0.7-1.5,1.5-1.5c0.8,0,1.5,0.7,1.5,1.5v4.7h1.9c2.4,0,4.3,1.9,4.3,4.3v2.3C116.7,65.6,114.7,67.5,112.3,67.5z"/>
	<path fill="#214084" d="M122.9,80.5c-0.4,0-0.8-0.1-1-0.4l-11.6-10.8L99.5,80c-0.6,0.6-1.6,0.6-2.2,0c-0.6-0.6-0.6-1.6,0-2.2
		L109.2,66c0.6-0.6,1.5-0.6,2.1,0L124,77.8c0.6,0.6,0.7,1.5,0.1,2.2C123.8,80.3,123.3,80.5,122.9,80.5z"/>
	<path fill="#F8B133" d="M63.9,22.5l-21.1-8.2c-0.2-0.1-0.4-0.1-0.6-0.1H21.1c-0.8,0-1.5,0.7-1.5,1.5v20.2c0,0.8,0.7,1.5,1.5,1.5
		h42.3c0.8,0,1.5-0.7,1.5-1.5v-12C64.9,23.3,64.5,22.7,63.9,22.5z"/>
	<path fill="#FFE36E" d="M131.5,77.2H89.8c-0.8,0-1.5,0.7-1.5,1.5v26c0,0.8,0.7,1.5,1.5,1.5h41.7c0.8,0,1.5-0.7,1.5-1.5v-26
		C133.1,77.9,132.4,77.2,131.5,77.2z"/>
	<path fill="#FFD500" d="M88.3,90.2v14.4c0,0.9,0.7,1.6,1.6,1.6h41.6c0.9,0,1.6-0.7,1.6-1.6V90.2H88.3z"/>
</g>
</svg>
