<?xml version="1.0" encoding="utf-8"?>
<!-- Generator: Adobe Illustrator 18.0.0, SVG Export Plug-In . SVG Version: 6.00 Build 0)  -->
<!DOCTYPE svg PUBLIC "-//W3C//DTD SVG 1.1//EN" "http://www.w3.org/Graphics/SVG/1.1/DTD/svg11.dtd">
<svg version="1.1" id="Capa_1" xmlns="http://www.w3.org/2000/svg" xmlns:xlink="http://www.w3.org/1999/xlink" x="0px" y="0px"
	 viewBox="0 0 150 150" enable-background="new 0 0 150 150" xml:space="preserve">
<g>
	<path fill="#FFD500" d="M135.8,28.7h-32.6c-0.6,0-1.2,0.4-1.4,1L81.5,83.1c-0.1,0.2-0.1,0.4-0.1,0.5v22.2c0,0.9,0.7,1.5,1.5,1.5
		h52.9c0.9,0,1.5-0.7,1.5-1.5V30.2C137.4,29.4,136.7,28.7,135.8,28.7z"/>
	<path fill="#214084" d="M131.7,90.6c-8.5,0-15.4,6.9-15.4,15.4s6.9,15.4,15.4,15.4c8.5,0,15.4-6.9,15.4-15.4S140.2,90.6,131.7,90.6
		z"/>
	<path fill="#FFE36E" d="M75.8,26.6h-8.1c-0.9,0-1.5,0.7-1.5,1.5v68.1H12.4c-0.9,0-1.6,0.7-1.6,1.5v4c0,0.8,0.6,1.5,1.4,1.5
		l55.2,4.1c0,0,0.1,0,0.1,0h8.1c0.9,0,1.5-0.7,1.5-1.5V28.2C77.3,27.3,76.6,26.6,75.8,26.6z"/>
	<path fill="#214084" d="M87.1,90.6c-8.5,0-15.4,6.9-15.4,15.4s6.9,15.4,15.4,15.4c8.5,0,15.4-6.9,15.4-15.4S95.6,90.6,87.1,90.6z"
		/>
	<path fill="#5EB2D3" d="M131.7,100.3c-3.1,0-5.7,2.5-5.7,5.7c0,3.1,2.5,5.7,5.7,5.7c3.1,0,5.7-2.6,5.7-5.7
		C137.4,102.8,134.8,100.3,131.7,100.3z"/>
	<path fill="#5EB2D3" d="M87.1,100.3c-3.1,0-5.7,2.5-5.7,5.7c0,3.1,2.5,5.7,5.7,5.7c3.1,0,5.7-2.6,5.7-5.7
		C92.8,102.8,90.2,100.3,87.1,100.3z"/>
	<path fill="#214084" d="M119.7,28.7h-16.5c-0.6,0-1.2,0.4-1.4,1L81.5,83.1c-0.2,0.5-0.1,1,0.2,1.4c0.3,0.4,0.8,0.7,1.3,0.7h36.8
		c0.9,0,1.5-0.7,1.5-1.5V30.2C121.3,29.4,120.6,28.7,119.7,28.7z"/>
	<g>
		<path fill="#FFD500" d="M55.3,42.8H22.8c-1.5,0-2.8,1.3-2.8,2.8v48c0,1.5,1.3,2.8,2.8,2.8h32.5c1.5,0,2.8-1.3,2.8-2.8v-48
			C58.1,44.1,56.9,42.8,55.3,42.8z"/>
		<path fill="#5EB2D3" d="M40.7,96.4h-3.3C27.8,96.4,20,88.6,20,79l0,0h38.1l0,0C58.1,88.6,50.3,96.4,40.7,96.4z"/>
		<path fill="#5EB2D3" d="M58,60.3H19.9l0,0c0-9.6,7.8-17.4,17.4-17.4h3.3C50.2,42.8,58,50.6,58,60.3L58,60.3z"/>
	</g>
</g>
</svg>
