<?xml version="1.0" encoding="utf-8"?>
<!-- Generator: Adobe Illustrator 18.0.0, SVG Export Plug-In . SVG Version: 6.00 Build 0)  -->
<!DOCTYPE svg PUBLIC "-//W3C//DTD SVG 1.1//EN" "http://www.w3.org/Graphics/SVG/1.1/DTD/svg11.dtd">
<svg version="1.1" id="Capa_1" xmlns="http://www.w3.org/2000/svg" xmlns:xlink="http://www.w3.org/1999/xlink" x="0px" y="0px"
	 viewBox="0 0 150 150" enable-background="new 0 0 150 150" xml:space="preserve">
<g>
	<path fill="#214084" d="M76.1,53.3h-3.6c-3.1,0-5.7-2.5-5.7-5.7c0-1,0.8-1.7,1.7-1.7c1,0,1.7,0.8,1.7,1.7c0,1.2,1,2.2,2.2,2.2h3.6
		c1.2,0,2.2-1,2.2-2.2v-3.3c0-1.2-1-2.2-2.2-2.2h-4.9c-1,0-1.7-0.8-1.7-1.7V29.2c0-1,0.8-1.7,1.7-1.7c1,0,1.7,0.8,1.7,1.7v9.4h3.2
		c3.1,0,5.7,2.5,5.7,5.7v3.3C81.8,50.8,79.2,53.3,76.1,53.3z"/>
	<path fill="#214084" d="M30.3,66c-0.7,0-1.4-0.5-1.7-1.3c-0.3-0.9,0.3-1.9,1.2-2.1l42.9-12.1c0.3-0.1,0.6-0.1,0.9,0l46.1,12.1
		c0.9,0.2,1.5,1.2,1.2,2.1c-0.2,0.9-1.2,1.5-2.1,1.2L73.2,54l-42.4,12C30.6,66,30.4,66,30.3,66z"/>
	<path fill="#FFE36E" d="M133.5,62.5h-117c-1,0-1.7,0.8-1.7,1.7v70c0,1,0.8,1.7,1.7,1.7h117c1,0,1.7-0.8,1.7-1.7v-70
		C135.2,63.3,134.4,62.5,133.5,62.5z"/>
	<path fill="#FFD500" d="M14.8,97.6v36.5c0,1.1,0.9,2,2,2h116.5c1.1,0,1.9-0.9,1.9-2V97.6H14.8z"/>
	<g>
		<path fill="#FFFFFF" d="M93.1,21.4h-39H93.1z"/>
		<path fill="#221E20" d="M93.1,23.7h-39c-1.3,0-2.3-1-2.3-2.3s1-2.3,2.3-2.3h39c1.3,0,2.3,1,2.3,2.3S94.4,23.7,93.1,23.7z"/>
	</g>
	<path fill="#5EB2D3" d="M103.3,14H46.2c-1,0-1.7,0.8-1.7,1.7v13.1c0,1,0.8,1.7,1.7,1.7h57.1c1,0,1.7-0.8,1.7-1.7V15.7
		C105,14.7,104.3,14,103.3,14z"/>
</g>
</svg>
