<?xml version="1.0" encoding="utf-8"?>
<!-- Generator: Adobe Illustrator 18.0.0, SVG Export Plug-In . SVG Version: 6.00 Build 0)  -->
<!DOCTYPE svg PUBLIC "-//W3C//DTD SVG 1.1//EN" "http://www.w3.org/Graphics/SVG/1.1/DTD/svg11.dtd">
<svg version="1.1" id="Capa_1" xmlns="http://www.w3.org/2000/svg" xmlns:xlink="http://www.w3.org/1999/xlink" x="0px" y="0px"
	 viewBox="0 0 150 150" enable-background="new 0 0 150 150" xml:space="preserve">
<g>
	<path fill="#214084" d="M139.8,32.3H10.2c-0.8,0-1.5,0.7-1.5,1.5v82.5c0,0.8,0.7,1.5,1.5,1.5h129.5c0.8,0,1.5-0.7,1.5-1.5V33.7
		C141.2,32.9,140.6,32.3,139.8,32.3z"/>
	<rect x="21.9" y="42.7" fill="#FFFFFF" width="5.7" height="64.8"/>
	<rect x="71.8" y="42.7" fill="#FFFFFF" width="5.7" height="64.8"/>
	<rect x="123.6" y="42.7" fill="#FFFFFF" width="5.7" height="64.8"/>
	<rect x="31.3" y="43" fill="#FFFFFF" width="2.8" height="58.9"/>
	<rect x="54" y="43" fill="#FFFFFF" width="2.8" height="58.9"/>
	<rect x="48.6" y="43" fill="#FFFFFF" width="1.4" height="58.9"/>
	<rect x="61" y="43" fill="#FFFFFF" width="3.4" height="58.9"/>
	<rect x="67.8" y="43" fill="#FFFFFF" width="1.4" height="58.9"/>
	<rect x="36.9" y="43" fill="#FFFFFF" width="1.4" height="58.9"/>
	<rect x="41.3" y="43" fill="#FFFFFF" width="3.9" height="58.9"/>
	<rect x="116.1" y="43" fill="#FFFFFF" width="2.8" height="58.9"/>
	<rect x="93.4" y="43" fill="#FFFFFF" width="2.8" height="58.9"/>
	<rect x="100.1" y="43" fill="#FFFFFF" width="1.4" height="58.9"/>
	<rect x="85.8" y="43" fill="#FFFFFF" width="3.4" height="58.9"/>
	<rect x="81" y="43" fill="#FFFFFF" width="1.4" height="58.9"/>
	<rect x="111.9" y="43" fill="#FFFFFF" width="1.4" height="58.9"/>
	<rect x="105" y="43" fill="#FFFFFF" width="3.9" height="58.9"/>
	<rect x="8.8" y="58.3" fill="#FFE36E" width="132.5" height="7.2"/>
</g>
</svg>
