<?xml version="1.0" encoding="utf-8"?>
<!-- Generator: Adobe Illustrator 18.0.0, SVG Export Plug-In . SVG Version: 6.00 Build 0)  -->
<!DOCTYPE svg PUBLIC "-//W3C//DTD SVG 1.1//EN" "http://www.w3.org/Graphics/SVG/1.1/DTD/svg11.dtd">
<svg version="1.1" id="Capa_1" xmlns="http://www.w3.org/2000/svg" xmlns:xlink="http://www.w3.org/1999/xlink" x="0px" y="0px"
	 viewBox="0 0 150 150" enable-background="new 0 0 150 150" xml:space="preserve">
<g>
	<path fill="#5EB2D3" d="M120.8,29.9H43.5c-7.1,0-12.8,5.7-12.8,12.8V134c0,1.1,0.9,1.9,1.9,1.9h99c1.1,0,1.9-0.9,1.9-1.9V42.7
		C133.6,35.6,127.9,29.9,120.8,29.9z"/>
	<g>
		<path fill="#214084" d="M45.9,16.6v14.6V16.6z"/>
		<path fill="#214084" d="M45.9,33.8c-1.4,0-2.6-1.2-2.6-2.6V16.6c0-1.4,1.2-2.6,2.6-2.6c1.4,0,2.6,1.2,2.6,2.6v14.6
			C48.5,32.6,47.3,33.8,45.9,33.8z"/>
	</g>
	<g>
		<path fill="#214084" d="M119.1,16.6v14.6V16.6z"/>
		<path fill="#214084" d="M119.1,33.8c-1.4,0-2.6-1.2-2.6-2.6V16.6c0-1.4,1.2-2.6,2.6-2.6c1.4,0,2.6,1.2,2.6,2.6v14.6
			C121.7,32.6,120.5,33.8,119.1,33.8z"/>
	</g>
	<rect x="64.8" y="83.9" fill="#FFFFFF" width="34.4" height="26"/>
	<rect x="30.4" y="83.9" fill="#214084" width="34.4" height="26"/>
	<rect x="65" y="57.9" fill="#214084" width="34.4" height="26"/>
	<rect x="65" y="109.9" fill="#214084" width="34.4" height="26"/>
	<rect x="99.1" y="83.9" fill="#214084" width="34.4" height="26"/>
	<g>
		<path fill="#FFE36E" d="M100.8,74.1L89.2,62.5c-0.4-0.4-0.9-0.6-1.4-0.6c-0.5,0-1,0.2-1.4,0.6l-38.7,38.7L30.2,83.7
			c-0.8-0.8-2-0.8-2.8,0L16.9,94.2c-0.4,0.4-0.6,0.9-0.6,1.4c0,0.5,0.2,1,0.6,1.4l30.4,30.4c0.4,0.4,0.9,0.6,1.4,0.6
			c0.5,0,1-0.2,1.4-0.6l50.6-50.6C101.5,76.1,101.5,74.8,100.8,74.1z"/>
		<path fill="#FFD500" d="M48.2,101.2c-0.1,0-0.3,0.1-0.4,0.1L30.2,83.7c-0.8-0.8-2-0.8-2.8,0L16.9,94.2c-0.8,0.8-0.8,2,0,2.8
			l30.3,30.3c0.3,0.3,0.6,0.5,1,0.5V101.2z"/>
	</g>
	<path fill="#FFE36E" d="M120.8,29.9H43.5c-7.1,0-12.8,5.7-12.8,12.8v13.7c0,1.1,0.9,1.9,1.9,1.9h99c1.1,0,1.9-0.9,1.9-1.9V42.7
		C133.6,35.6,127.9,29.9,120.8,29.9z"/>
</g>
</svg>
