<?xml version="1.0" encoding="utf-8"?>
<!-- Generator: Adobe Illustrator 18.0.0, SVG Export Plug-In . SVG Version: 6.00 Build 0)  -->
<!DOCTYPE svg PUBLIC "-//W3C//DTD SVG 1.1//EN" "http://www.w3.org/Graphics/SVG/1.1/DTD/svg11.dtd">
<svg version="1.1" id="Capa_1" xmlns="http://www.w3.org/2000/svg" xmlns:xlink="http://www.w3.org/1999/xlink" x="0px" y="0px"
	 viewBox="0 0 150 150" enable-background="new 0 0 150 150" xml:space="preserve">
<g>
	<path fill="#214084" d="M124.3,119.6H25.7c-0.8,0-1.4-0.6-1.4-1.4V85.8c0-0.8,0.6-1.4,1.4-1.4h98.5c0.8,0,1.4,0.6,1.4,1.4v32.4
		C125.7,119,125.1,119.6,124.3,119.6z M27.2,116.7h95.7V87.2H27.2V116.7z"/>
	<path fill="#214084" d="M124.3,84.3c-9.7,0-17.6,7.9-17.6,17.6s7.9,17.6,17.6,17.6s17.6-7.9,17.6-17.6S134,84.3,124.3,84.3z"/>
	<path fill="#5EB2D3" d="M124.3,93.2c-4.8,0-8.7,3.9-8.7,8.7c0,4.8,3.9,8.7,8.7,8.7c4.8,0,8.7-3.9,8.7-8.7
		C133,97.1,129.1,93.2,124.3,93.2z"/>
	<path fill="#214084" d="M57.7,96.1c-0.8,0-1.4-0.6-1.4-1.4v-8.9c0-0.8,0.6-1.4,1.4-1.4c0.8,0,1.4,0.6,1.4,1.4v8.9
		C59.1,95.5,58.5,96.1,57.7,96.1z"/>
	<path fill="#214084" d="M71.2,96.1c-0.8,0-1.4-0.6-1.4-1.4v-8.9c0-0.8,0.6-1.4,1.4-1.4c0.8,0,1.4,0.6,1.4,1.4v8.9
		C72.6,95.5,71.9,96.1,71.2,96.1z"/>
	<path fill="#214084" d="M84.6,96.1c-0.8,0-1.4-0.6-1.4-1.4v-8.9c0-0.8,0.6-1.4,1.4-1.4c0.8,0,1.4,0.6,1.4,1.4v8.9
		C86.1,95.5,85.4,96.1,84.6,96.1z"/>
	<path fill="#214084" d="M98.1,96.1c-0.8,0-1.4-0.6-1.4-1.4v-8.9c0-0.8,0.6-1.4,1.4-1.4c0.8,0,1.4,0.6,1.4,1.4v8.9
		C99.5,95.5,98.9,96.1,98.1,96.1z"/>
	<path fill="#214084" d="M50.9,119.3c-0.8,0-1.4-0.6-1.4-1.4V109c0-0.8,0.6-1.4,1.4-1.4c0.8,0,1.4,0.6,1.4,1.4v8.9
		C52.4,118.7,51.7,119.3,50.9,119.3z"/>
	<path fill="#214084" d="M64.4,119.3c-0.8,0-1.4-0.6-1.4-1.4V109c0-0.8,0.6-1.4,1.4-1.4c0.8,0,1.4,0.6,1.4,1.4v8.9
		C65.9,118.7,65.2,119.3,64.4,119.3z"/>
	<path fill="#214084" d="M77.9,119.3c-0.8,0-1.4-0.6-1.4-1.4V109c0-0.8,0.6-1.4,1.4-1.4c0.8,0,1.4,0.6,1.4,1.4v8.9
		C79.3,118.7,78.7,119.3,77.9,119.3z"/>
	<path fill="#214084" d="M91.4,119.3c-0.8,0-1.4-0.6-1.4-1.4V109c0-0.8,0.6-1.4,1.4-1.4c0.8,0,1.4,0.6,1.4,1.4v8.9
		C92.8,118.7,92.2,119.3,91.4,119.3z"/>
	<path fill="#FFD500" d="M65.8,45.4h-36c-0.8,0-1.4,0.6-1.4,1.4v36c0,0.8,0.6,1.4,1.4,1.4h36c0.8,0,1.4-0.6,1.4-1.4v-36
		C67.2,46.1,66.6,45.4,65.8,45.4z"/>
	<path fill="#FFE36E" d="M118.8,30.4H76.3c-0.8,0-1.4,0.6-1.4,1.4v51c0,0.8,0.6,1.4,1.4,1.4h42.4c0.8,0,1.4-0.6,1.4-1.4v-51
		C120.2,31,119.6,30.4,118.8,30.4z"/>
	<path fill="#214084" d="M41.6,45.4v19.2c0,0.9,0.7,1.6,1.6,1.6h8.5c0.9,0,1.6-0.7,1.6-1.6V45.4H41.6z"/>
	<path fill="#214084" d="M91.6,30.5v19.2c0,0.9,0.7,1.6,1.6,1.6h8.5c0.9,0,1.6-0.7,1.6-1.6V30.5H91.6z"/>
	<path fill="#214084" d="M25.7,84.3c-9.7,0-17.6,7.9-17.6,17.6s7.9,17.6,17.6,17.6c9.7,0,17.6-7.9,17.6-17.6S35.4,84.3,25.7,84.3z"
		/>
	<path fill="#5EB2D3" d="M25.7,93.2c-4.8,0-8.7,3.9-8.7,8.7c0,4.8,3.9,8.7,8.7,8.7c4.8,0,8.7-3.9,8.7-8.7
		C34.4,97.1,30.5,93.2,25.7,93.2z"/>
</g>
</svg>
