<?xml version="1.0" encoding="utf-8"?>
<!-- Generator: Adobe Illustrator 18.0.0, SVG Export Plug-In . SVG Version: 6.00 Build 0)  -->
<!DOCTYPE svg PUBLIC "-//W3C//DTD SVG 1.1//EN" "http://www.w3.org/Graphics/SVG/1.1/DTD/svg11.dtd">
<svg version="1.1" id="Capa_1" xmlns="http://www.w3.org/2000/svg" xmlns:xlink="http://www.w3.org/1999/xlink" x="0px" y="0px"
	 viewBox="0 0 150 150" enable-background="new 0 0 150 150" xml:space="preserve">
<g>
	<path fill="#5EB2D3" d="M131.7,30.7L75.6,10.5c-0.4-0.1-0.8-0.1-1.1,0L18.3,30.7c-0.7,0.2-1.1,0.9-1.1,1.6c0,0.7,0.4,1.3,1.1,1.6
		L74.4,54c0.2,0.1,0.4,0.1,0.6,0.1c0.2,0,0.4,0,0.6-0.1l56.2-20.2c0.7-0.2,1.1-0.9,1.1-1.6C132.8,31.6,132.4,31,131.7,30.7z"/>
	<path fill="#5EB2D3" d="M75.6,50.9L19.4,30.7c-0.5-0.2-1.1-0.1-1.5,0.2c-0.4,0.3-0.7,0.8-0.7,1.4v71.9c0,0.7,0.4,1.3,1,1.5
		l56.2,23.8c0.2,0.1,0.4,0.1,0.6,0.1c0.3,0,0.6-0.1,0.9-0.3c0.5-0.3,0.7-0.8,0.7-1.4V52.5C76.7,51.8,76.2,51.2,75.6,50.9z"/>
	<path fill="#214084" d="M132.1,30.9c-0.4-0.3-1-0.4-1.5-0.2L74.4,50.9c-0.7,0.2-1.1,0.9-1.1,1.6V128c0,0.6,0.3,1.1,0.8,1.4
		c0.3,0.2,0.6,0.3,0.9,0.3c0.2,0,0.5,0,0.7-0.1l56.2-25.2c0.6-0.3,1-0.9,1-1.5V32.3C132.8,31.8,132.5,31.2,132.1,30.9z"/>
	<path fill="#FFD500" d="M126,101.3H90.6c-0.9,0-1.7,0.7-1.7,1.7v22.2c0,7.9,6.5,14.4,14.4,14.4h9.9c7.9,0,14.4-6.5,14.4-14.4V103
		C127.6,102,126.9,101.3,126,101.3z"/>
	<path fill="#FFD500" d="M121,105.2H96c-1.2,0-2.2-1-2.2-2.2V88.4c0-8.1,6.6-14.7,14.7-14.7c8.1,0,14.7,6.6,14.7,14.7V103
		C123.2,104.2,122.2,105.2,121,105.2z M98.2,100.7h20.5V88.4c0-5.7-4.6-10.3-10.3-10.3c-5.7,0-10.3,4.6-10.3,10.3V100.7z"/>
	<path fill="#FFFFFF" d="M113.2,115.9c0-2.7-2.2-4.9-4.9-4.9c-2.7,0-4.9,2.2-4.9,4.9c0,2,1.3,3.8,3,4.5l0,0v6.7h3.6v-6.7
		C111.9,119.8,113.2,118,113.2,115.9z"/>
	<polygon fill="#FFD500" points="55.9,45.6 111,23.3 93.2,16.9 36.6,38.7 	"/>
	<polygon fill="#FFE36E" points="36.6,38.7 36.6,113.7 55.9,121.8 55.9,45.6 	"/>
</g>
</svg>
