<?xml version="1.0" encoding="utf-8"?>
<!-- Generator: Adobe Illustrator 18.0.0, SVG Export Plug-In . SVG Version: 6.00 Build 0)  -->
<!DOCTYPE svg PUBLIC "-//W3C//DTD SVG 1.1//EN" "http://www.w3.org/Graphics/SVG/1.1/DTD/svg11.dtd">
<svg version="1.1" id="Capa_1" xmlns="http://www.w3.org/2000/svg" xmlns:xlink="http://www.w3.org/1999/xlink" x="0px" y="0px"
	 viewBox="0 0 150 150" enable-background="new 0 0 150 150" xml:space="preserve">
<g>
	<path fill="#FFD500" d="M97.1,42.2L79.8,28.7c-0.4-0.3-1-0.4-1.5-0.2c-0.5,0.2-0.8,0.7-0.8,1.2V37c-20.8,0.7-37.5,17.9-37.5,38.8
		c0,0.8,0.6,1.4,1.4,1.4H52c0.8,0,1.4-0.6,1.4-1.4c0-13.7,10.8-24.9,24.3-25.6v6.5c0,0.5,0.3,1,0.8,1.2s1,0.2,1.5-0.2l17.3-13.5
		c0.3-0.3,0.5-0.7,0.5-1.1C97.6,42.8,97.4,42.4,97.1,42.2z"/>
	<path fill="#FFD500" d="M116.5,74.5H106c-0.8,0-1.4,0.6-1.4,1.4c0,14.2-11.5,25.7-25.7,25.7c-14.1,0-25.7-11.5-25.7-25.7
		c0-0.8-0.6-1.4-1.4-1.4H41.5c-0.8,0-1.4,0.6-1.4,1.4c0,21.4,17.4,38.8,38.8,38.8c21.4,0,38.8-17.4,38.8-38.8
		C117.8,75.1,117.2,74.5,116.5,74.5z"/>
	<g>
		<path fill="#5EB2D3" d="M78.7,83H66.5v-3l4.1-4.1c1.2-1.2,1.9-2.1,2.3-2.5c0.4-0.4,0.6-0.8,0.8-1.2c0.1-0.3,0.2-0.7,0.2-1
			c0-0.4-0.1-0.8-0.4-1c-0.3-0.3-0.7-0.4-1.2-0.4c-0.5,0-1.1,0.2-1.6,0.5c-0.5,0.3-1.2,0.7-1.8,1.3l-2.5-2.9
			c0.9-0.8,1.6-1.3,2.2-1.7c0.6-0.3,1.2-0.6,1.9-0.8c0.7-0.2,1.5-0.3,2.3-0.3c1.1,0,2.1,0.2,2.9,0.6c0.9,0.4,1.5,0.9,2,1.6
			c0.5,0.7,0.7,1.5,0.7,2.4c0,0.7-0.1,1.3-0.2,1.8c-0.2,0.6-0.4,1.1-0.8,1.6c-0.3,0.5-0.8,1.1-1.4,1.7c-0.6,0.6-1.8,1.7-3.6,3.4v0.1
			h6.4V83z"/>
		<path fill="#5EB2D3" d="M93,79.8h-1.8V83h-4.5v-3.3H80v-3.3l7-10.2h4.2v10.2H93V79.8z M86.7,76.4v-2c0-0.4,0-0.9,0-1.5
			c0-0.6,0-1,0.1-1h-0.1c-0.3,0.6-0.6,1.1-0.9,1.7l-1.9,2.8H86.7z"/>
	</g>
	<g>
		<path fill="#5EB2D3" d="M23.7,72.2h-6.2c-1,0-1.8,0.8-1.8,1.8c0,1,0.8,1.8,1.8,1.8h6.2c1,0,1.8-0.8,1.8-1.8
			C25.5,73,24.7,72.2,23.7,72.2z"/>
		<path fill="#5EB2D3" d="M140.6,72.2h-6.2c-1,0-1.8,0.8-1.8,1.8c0,1,0.8,1.8,1.8,1.8h6.2c1,0,1.8-0.8,1.8-1.8
			C142.4,73,141.6,72.2,140.6,72.2z"/>
		<path fill="#5EB2D3" d="M79,10.6c-1,0-1.8,0.8-1.8,1.8v6.2c0,1,0.8,1.8,1.8,1.8c1,0,1.8-0.8,1.8-1.8v-6.2
			C80.8,11.4,80,10.6,79,10.6z"/>
		<path fill="#5EB2D3" d="M79,127.5c-1,0-1.8,0.8-1.8,1.8v6.2c0,1,0.8,1.8,1.8,1.8c1,0,1.8-0.8,1.8-1.8v-6.2
			C80.8,128.3,80,127.5,79,127.5z"/>
		<path fill="#5EB2D3" d="M36.8,29.2c-0.7-0.7-1.9-0.7-2.6,0c-0.7,0.7-0.7,1.9,0,2.6l4.4,4.4c0.4,0.4,0.8,0.5,1.3,0.5
			c0.5,0,0.9-0.2,1.3-0.5c0.7-0.7,0.7-1.9,0-2.6L36.8,29.2z"/>
		<path fill="#5EB2D3" d="M119.4,111.8c-0.7-0.7-1.9-0.7-2.6,0c-0.7,0.7-0.7,1.9,0,2.6l4.4,4.4c0.4,0.4,0.8,0.5,1.3,0.5
			c0.5,0,0.9-0.2,1.3-0.5c0.7-0.7,0.7-1.9,0-2.6L119.4,111.8z"/>
		<path fill="#5EB2D3" d="M121.2,29.2l-4.4,4.4c-0.7,0.7-0.7,1.9,0,2.6c0.4,0.4,0.8,0.5,1.3,0.5c0.5,0,0.9-0.2,1.3-0.5l4.4-4.4
			c0.7-0.7,0.7-1.9,0-2.6C123.1,28.4,122,28.4,121.2,29.2z"/>
		<path fill="#5EB2D3" d="M38.6,111.8l-4.4,4.4c-0.7,0.7-0.7,1.9,0,2.6c0.4,0.4,0.8,0.5,1.3,0.5s0.9-0.2,1.3-0.5l4.4-4.4
			c0.7-0.7,0.7-1.9,0-2.6C40.5,111.1,39.3,111.1,38.6,111.8z"/>
	</g>
</g>
</svg>
