<?xml version="1.0" encoding="utf-8"?>
<!-- Generator: Adobe Illustrator 18.0.0, SVG Export Plug-In . SVG Version: 6.00 Build 0)  -->
<!DOCTYPE svg PUBLIC "-//W3C//DTD SVG 1.1//EN" "http://www.w3.org/Graphics/SVG/1.1/DTD/svg11.dtd">
<svg version="1.1" id="Capa_1" xmlns="http://www.w3.org/2000/svg" xmlns:xlink="http://www.w3.org/1999/xlink" x="0px" y="0px"
	 viewBox="0 0 150 150" enable-background="new 0 0 150 150" xml:space="preserve">
<g>
	<path fill="#FFE36E" d="M125.9,49.6H25c-0.8,0-1.5,0.7-1.5,1.5v74.7c0,0.8,0.7,1.5,1.5,1.5h101c0.8,0,1.5-0.7,1.5-1.5V51.1
		C127.5,50.2,126.8,49.6,125.9,49.6z"/>
	<path fill="#214084" d="M112,70.2H40.2c-0.8,0-1.5,0.7-1.5,1.5v54.1c0,0.8,0.7,1.5,1.5,1.5H112c0.8,0,1.5-0.7,1.5-1.5V71.7
		C113.5,70.8,112.8,70.2,112,70.2z"/>
	<path fill="#FFE36E" d="M101.6,88.6H50.5c-1.1,0-2,0.9-2,2v34.7c0,1.1,0.9,2,2,2h51.1c1.1,0,2-0.9,2-2V90.6
		C103.6,89.5,102.7,88.6,101.6,88.6z"/>
	<path fill="#FFD500" d="M91.1,127.3H76.1v-12.6h27.5l0,0C103.6,121.7,98,127.3,91.1,127.3z"/>
	<rect x="48.6" y="101.1" fill="#FFD500" width="27.5" height="13.6"/>
	<path fill="#FFD500" d="M103.6,101.2H76.1V88.6H91C98,88.6,103.6,94.2,103.6,101.2L103.6,101.2z"/>
	<path fill="#5EB2D3" d="M138.7,57.9l-7.3-15.1c-0.2-0.4-0.5-0.6-0.9-0.8L74.8,22.8c-0.3-0.1-0.7-0.1-1,0L20.4,42
		c-0.3,0.1-0.6,0.4-0.8,0.7l-8.3,15.1c-0.3,0.5-0.2,1,0,1.5c0.3,0.5,0.8,0.7,1.3,0.7h124.7c0.5,0,1-0.3,1.3-0.7
		C138.9,58.9,138.9,58.4,138.7,57.9z"/>
	<path fill="#214084" d="M138.7,57.9l-7.3-15.1c-0.3-0.5-0.8-0.9-1.4-0.9H20.9c-0.6,0-1.1,0.3-1.3,0.8l-8.3,15.1
		c-0.3,0.5-0.2,1,0,1.5c0.3,0.5,0.8,0.7,1.3,0.7h124.7c0.5,0,1-0.3,1.3-0.7C138.9,58.9,138.9,58.4,138.7,57.9z"/>
</g>
</svg>
