<?xml version="1.0" encoding="utf-8"?>
<!-- Generator: Adobe Illustrator 18.0.0, SVG Export Plug-In . SVG Version: 6.00 Build 0)  -->
<!DOCTYPE svg PUBLIC "-//W3C//DTD SVG 1.1//EN" "http://www.w3.org/Graphics/SVG/1.1/DTD/svg11.dtd">
<svg version="1.1" id="Capa_1" xmlns="http://www.w3.org/2000/svg" xmlns:xlink="http://www.w3.org/1999/xlink" x="0px" y="0px"
	 viewBox="0 0 150 150" enable-background="new 0 0 150 150" xml:space="preserve">
<g>
	<path fill="#274587" d="M75.3,16.7c13.6,0,27.2,0,40.8,0c11.2,0,17.6,6.4,17.6,17.6c0,18.9,0,37.9,0,56.8
		c0,10.5-6.4,17.3-16.9,17.4c-27.9,0.2-55.8,0.1-83.7,0c-10.4,0-16.9-6.9-17-17.4c-0.1-19.1-0.1-38.2,0-57.3
		c0.1-10.4,6.8-17,17.2-17.1C47.4,16.6,61.4,16.7,75.3,16.7z M75.4,34.1c-15.5,0-31,0.1-46.5-0.1c-3.2,0-4.1,0.9-4.1,4
		c0.2,15,0.2,29.9,0,44.9c0,3.6,1.3,4.2,4.5,4.2c30.6-0.1,61.2-0.1,91.9,0c3.4,0,4.4-0.9,4.3-4.3c-0.2-14.8-0.2-29.6,0-44.4
		c0.1-3.8-1.3-4.5-4.7-4.5C105.7,34.2,90.6,34.1,75.4,34.1z"/>
	<path fill="#274587" d="M75.1,133.3c-7.6,0-15.1,0-22.7,0c-2.6,0-4.9-0.2-4.9-3.7c0.1-3.2,2.3-3.1,4.7-3.3c5.7-0.3,7.7-2.2,7.3-8.1
		c-0.4-5.1,1.3-6.5,6.2-6.1c7,0.4,14.1,0.2,21.1,0.1c2.7-0.1,3.5,0.9,3.5,3.6c0.3,9.3,0.4,9.3,9.1,10.6c2,0.3,3.2,1.1,3.2,3.2
		c0,2.6-1.5,3.7-3.9,3.7C90.9,133.3,83,133.3,75.1,133.3z"/>
	<path fill="#FEFEFE" d="M75.4,34.1c15.1,0,30.3,0.1,45.4-0.1c3.4,0,4.8,0.7,4.7,4.5c-0.2,14.8-0.2,29.6,0,44.4c0,3.4-1,4.3-4.3,4.3
		c-30.6-0.1-61.2-0.1-91.9,0c-3.2,0-4.5-0.6-4.5-4.2c0.2-15,0.2-29.9,0-44.9c0-3.2,0.9-4.1,4.1-4C44.4,34.2,59.9,34.1,75.4,34.1z
		 M77.8,69.3c20-0.4,14.2,3,22.9-14.5c0.2-0.3,0.3-0.6,0.4-0.9c2.5-5.4,1.7-6.8-4.3-6.8c-11.5-0.1-23,0-34.6-0.1
		c-1.8,0-4.2,0.9-4.9-1.6c-1.7-5.7-6.1-5-10.4-5c-2.1,0-4,0.3-3.9,2.9c0.1,2.2,1.9,2.9,3.7,2.6c3.9-0.6,5.6,1.5,6.7,4.7
		c0.5,1.5,1.2,2.8,1.9,4.2C63.8,72.5,58.7,68.8,77.8,69.3z M92.3,76.4c0-1.7-0.8-2.9-2.2-3.8c-1.9-1.3-3.5-0.5-5.2,0.6
		c-4.6,2.9-9.2,3-13.7-0.1c-2.2-1.5-4.2-1.6-6,0.3c-1.8,1.8-1.9,4.1-0.2,6c1.7,1.9,3.8,2,6,0.6c4.8-3,9.5-2.7,14.3,0.1
		C88.7,81.9,92.2,80.1,92.3,76.4z"/>
	<path fill="#FED70F" d="M77.8,69.3c-19.1-0.4-14,3.2-22.4-14.4c-0.7-1.4-1.4-2.8-1.9-4.2c-1.1-3.2-2.8-5.4-6.7-4.7
		c-1.8,0.3-3.6-0.4-3.7-2.6c-0.1-2.6,1.8-2.9,3.9-2.9c4.3-0.1,8.7-0.7,10.4,5c0.7,2.5,3.2,1.6,4.9,1.6c11.5,0.1,23,0,34.6,0.1
		c5.9,0,6.7,1.4,4.3,6.8c-0.1,0.3-0.3,0.6-0.4,0.9C92,72.3,97.8,68.9,77.8,69.3z M71.9,58.5c0-1.4,0-2.7,0-4.1c0-2-1.3-2.4-2.7-2
		c-3.7,1.1-1.6,4.3-1.9,6.5c-0.2,1.7-1.3,4.4,2,4.8c1.6,0.2,2.7-0.3,2.6-2.2C71.8,60.5,71.9,59.5,71.9,58.5z M80.2,58
		c0-0.9,0-1.7,0-2.6c0-1.6,0.1-3.2-2.3-3c-2,0.1-1.9,1.6-1.9,2.9c0,2.1,0,4.1,0,6.2c0,1.4,0.5,2.2,2.1,2.3c1.5,0,2.2-0.7,2.1-2.2
		C80.1,60.4,80.1,59.2,80.2,58z M88.6,58.4c0-1,0-2.1,0-3.1c0-1.4,0.1-2.8-1.9-2.9c-2.4-0.1-2.3,1.5-2.3,3.1c0,2.1,0,4.1,0,6.2
		c0,1.5,0.6,2.2,2.2,2.1c1.6,0,2.1-0.9,2.1-2.3C88.5,60.4,88.6,59.4,88.6,58.4z"/>
	<path fill="#274587" d="M92.3,76.4c0,3.7-3.5,5.6-7,3.6c-4.8-2.7-9.5-3.1-14.3-0.1c-2.2,1.4-4.3,1.3-6-0.6c-1.6-1.9-1.6-4.2,0.2-6
		c1.8-1.8,3.8-1.8,6-0.3c4.5,3.1,9.1,3,13.7,0.1c1.7-1.1,3.3-1.8,5.2-0.6C91.4,73.4,92.3,74.7,92.3,76.4z"/>
	<path fill="#FEFEFE" d="M71.9,58.5c0,1,0,2,0,3.1c0.1,1.9-1,2.4-2.6,2.2c-3.3-0.5-2.2-3.1-2-4.8c0.2-2.2-1.8-5.3,1.9-6.5
		c1.4-0.4,2.7,0,2.7,2C71.8,55.8,71.9,57.1,71.9,58.5z"/>
	<path fill="#FEFEFE" d="M80.1,58c0,1.2,0,2.4,0,3.6c0,1.5-0.6,2.2-2.1,2.2c-1.6,0-2.1-0.8-2.1-2.3c0-2.1,0-4.1,0-6.2
		c0-1.4-0.1-2.8,1.9-2.9c2.4-0.1,2.3,1.4,2.3,3C80.1,56.2,80.2,57.1,80.1,58z"/>
	<path fill="#FEFEFE" d="M88.6,58.4c0,1,0,2.1,0,3.1c0,1.4-0.5,2.3-2.1,2.3c-1.5,0-2.2-0.6-2.2-2.1c0-2.1,0-4.1,0-6.2
		c0-1.6-0.1-3.2,2.3-3.1c2,0.1,1.9,1.5,1.9,2.9C88.6,56.3,88.6,57.3,88.6,58.4z"/>
</g>
</svg>
