<?xml version="1.0" encoding="utf-8"?>
<!-- Generator: Adobe Illustrator 18.0.0, SVG Export Plug-In . SVG Version: 6.00 Build 0)  -->
<!DOCTYPE svg PUBLIC "-//W3C//DTD SVG 1.1//EN" "http://www.w3.org/Graphics/SVG/1.1/DTD/svg11.dtd">
<svg version="1.1" id="Capa_1" xmlns="http://www.w3.org/2000/svg" xmlns:xlink="http://www.w3.org/1999/xlink" x="0px" y="0px"
	 viewBox="0 0 150 150" enable-background="new 0 0 150 150" xml:space="preserve">
<g>
	<path fill="#214084" d="M122.3,84.3c0,0.8,0,1.7-0.1,2.5c-0.5,12-5,23.4-12.8,32.5c-0.9,1.1-1.9,2.1-2.9,3.1
		c-0.2,0.2-0.5,0.5-0.7,0.7c-6.1,5.9-13.3,10.2-21.2,12.6h0c-2.5,0.8-5.1,1.4-7.7,1.8h0c-2,0.3-4,0.5-6,0.6c-0.8,0-1.6,0.1-2.5,0.1
		c-0.8,0-1.7,0-2.5-0.1c-1.7-0.1-3.4-0.2-5.1-0.5c-2.6-0.4-5.1-0.9-7.6-1.6h0c-8.3-2.4-15.9-6.9-22.3-13c-0.2-0.2-0.4-0.4-0.6-0.6
		c-1-1-2-2.1-2.9-3.2c-7.8-9.1-12.2-20.4-12.8-32.4c0-0.8-0.1-1.6-0.1-2.5c0-0.8,0-1.7,0.1-2.5c0.5-11.9,4.9-23.1,12.5-32.1
		c1-1.2,2.1-2.4,3.2-3.5c0.1-0.1,0.2-0.2,0.3-0.3c6.1-6,13.5-10.4,21.5-13c2.6-0.8,5.2-1.4,7.9-1.8h0c1.9-0.3,3.9-0.5,5.9-0.6
		c0.8,0,1.6-0.1,2.5-0.1c0.8,0,1.7,0,2.5,0.1c2.3,0.1,4.5,0.3,6.8,0.7c2.7,0.5,5.4,1.1,8,2c7.7,2.6,14.7,6.9,20.6,12.7
		c0.1,0.1,0.2,0.2,0.2,0.2c1.1,1.1,2.2,2.3,3.2,3.5c7.6,9,11.9,20.2,12.5,32C122.3,82.7,122.3,83.5,122.3,84.3z"/>
	<path fill="#5EB2D3" d="M106.5,122.4c10.2-10.2,15.8-23.7,15.8-38.1c0-14.4-5.6-27.9-15.8-38.1C96.3,36.1,82.8,30.5,68.4,30.5
		v107.6C82.8,138.2,96.3,132.6,106.5,122.4z"/>
	<g>
		<path fill="#FFFFFF" d="M70.9,30.6v107.5c-0.8,0-1.6,0.1-2.5,0.1c-0.8,0-1.7,0-2.5-0.1V30.6c0.8,0,1.6-0.1,2.5-0.1
			C69.3,30.5,70.1,30.5,70.9,30.6z"/>
	</g>
	<g>
		<path fill="#FFFFFF" d="M122.3,84.3c0,0.8,0,1.7-0.1,2.5H14.7c0-0.8-0.1-1.6-0.1-2.5l0.1-2.5h107.5
			C122.3,82.7,122.3,83.5,122.3,84.3z"/>
	</g>
	<path fill="#FFFFFF" d="M60.8,137.6c-2.6-0.4-5.1-0.9-7.6-1.6h0c-4.4-5.8-8-11.7-10.8-17.7v0c-0.7-1.5-1.4-3-2-4.5
		c-2.2-5.4-3.8-10.8-4.8-16.3c-0.6-3.5-1-7-1.1-10.6c-0.1-1.6-0.1-3.3,0-4.9c0.2-7.1,1.4-14.2,3.6-21.3c0.6-2,1.3-3.9,2-5.7
		c0.6-1.6,1.3-3.1,1.9-4.6C45.3,43,49.2,37.1,52.2,33c2.6-0.8,5.2-1.4,7.9-1.8c-1.3,1.5-3.4,4-5.8,7.6c-2.4,3.4-5,7.8-7.4,12.9
		c-0.7,1.5-1.4,3-2,4.6c-0.8,1.9-1.5,3.9-2.1,6c-2,6.5-3.1,13.1-3.3,19.6c-0.1,1.7,0,3.3,0,4.9c0.1,3.3,0.5,6.6,1.1,9.8
		c1,5.3,2.5,10.5,4.7,15.6c0.6,1.5,1.3,3.1,2.1,4.6C50.6,123.9,55.2,130.8,60.8,137.6z"/>
	<path fill="#FFFFFF" d="M103.2,86.8c-0.1,3.5-0.5,7.1-1.1,10.6c-1,5.7-2.7,11.4-5.1,17c-0.6,1.5-1.3,3-2.1,4.5
		c-2.8,5.7-6.2,11.3-10.3,16.8h0c-2.5,0.8-5.1,1.4-7.7,1.8c5.4-6.5,9.8-13.2,13.2-19.9c0.8-1.5,1.5-3,2.1-4.6c2.3-5.4,4-10.9,5-16.4
		c0.6-3.3,1-6.5,1.1-9.8c0.1-1.6,0.1-3.3,0-4.9c-0.2-6.5-1.3-13.1-3.3-19.6c-0.6-2-1.3-3.8-2-5.7c-0.6-1.6-1.3-3.1-2-4.6
		c-4.8-10.4-10.7-17.7-13.3-20.7c2.7,0.5,5.4,1.1,8,2c3.1,4.1,6.8,10,10.1,17.2c0.7,1.5,1.3,3,1.9,4.6c0.7,1.8,1.3,3.6,1.9,5.5
		c2.2,7.1,3.4,14.2,3.6,21.3C103.3,83.5,103.3,85.2,103.2,86.8z"/>
	<path fill="#FFFFFF" d="M109.7,49.8c-3.9,2.1-7.9,3.9-12.1,5.3c-1.6,0.5-3.1,1-4.7,1.5c-4.2,1.2-8.5,2-12.9,2.5
		c-3,0.3-6.1,0.5-9.2,0.5c-0.2,0-0.5,0-0.7,0c-0.6,0-1.2,0-1.8,0c-0.8,0-1.6,0-2.5-0.1c-4.5-0.2-9-0.7-13.6-1.6
		c-2.7-0.5-5.2-1.1-7.6-1.7c-1.7-0.4-3.3-0.9-4.8-1.4c-6-1.9-10.5-3.9-12.9-5.1c1-1.2,2.1-2.4,3.2-3.5c0.1-0.1,0.2-0.2,0.3-0.3
		c1.1,0.5,2.5,1.1,4.2,1.8c2,0.8,4.4,1.7,7.1,2.5c1.5,0.5,3.1,0.9,4.8,1.4c2.1,0.5,4.3,1,6.7,1.5c4.2,0.8,8.4,1.3,12.5,1.5
		c0.8,0,1.7,0.1,2.5,0.1c0.8,0,1.7,0,2.5,0c2.9,0,5.8-0.2,8.7-0.5C83.5,53.7,87.3,53,91,52c1.6-0.4,3.2-0.9,4.8-1.5
		c3.6-1.2,7.1-2.7,10.5-4.5c0.1,0.1,0.2,0.2,0.2,0.2C107.6,47.4,108.7,48.6,109.7,49.8z"/>
	<path fill="#FFFFFF" d="M31,123c3.7-1.9,7.5-3.5,11.4-4.7v0c1.6-0.5,3.2-1,4.8-1.4c3.3-0.8,6.7-1.4,10.1-1.8
		c2.9-0.3,5.8-0.5,8.7-0.5c1.6,0,3.3,0,4.9,0.1c4.1,0.2,8.3,0.7,12.5,1.5c2.3,0.4,4.6,0.9,6.7,1.5c1.7,0.4,3.3,0.9,4.8,1.4
		c4.7,1.5,8.4,3,10.9,4.1c0.2-0.2,0.5-0.5,0.7-0.7c1-1,2-2,2.9-3.1c-2.4-1.2-6.7-3.1-12.4-4.9c-1.5-0.5-3.1-0.9-4.8-1.4
		c-2.4-0.6-5-1.2-7.7-1.8c-4.6-0.9-9.1-1.4-13.6-1.6c-1.7-0.1-3.3-0.1-4.9-0.1c-3.1,0-6.1,0.2-9.2,0.5c-4,0.5-7.9,1.2-11.7,2.2
		c-1.6,0.4-3.2,0.9-4.8,1.4c-4.4,1.5-8.8,3.3-12.9,5.5L31,123z"/>
	<path fill="#FFE36E" d="M143.1,47.3c-0.4-0.9-1.3-1.4-2.2-1.4H127V12.4c0-1.4-1.1-2.5-2.5-2.5h-21c-1.4,0-2.5,1.1-2.5,2.5v33.4
		H87.2c-1,0-1.8,0.5-2.2,1.4c-0.4,0.9-0.3,1.9,0.3,2.6l26,32.2c0.5,0.6,1.2,0.9,1.9,0.9c0,0,0,0,0,0c0.7,0,1.4-0.3,1.9-0.9
		l27.6-32.2C143.4,49.2,143.6,48.2,143.1,47.3z"/>
	<path fill="#FFD500" d="M112.9,9.8h-9.3c-1.4,0-2.6,1.2-2.6,2.6v33.3H87.2c-1,0-1.9,0.6-2.3,1.5c-0.4,0.9-0.3,2,0.3,2.7l26,32.2
		c0.4,0.5,1,0.8,1.7,0.9V9.8z"/>
</g>
</svg>
