<?xml version="1.0" encoding="utf-8"?>
<!-- Generator: Adobe Illustrator 18.0.0, SVG Export Plug-In . SVG Version: 6.00 Build 0)  -->
<!DOCTYPE svg PUBLIC "-//W3C//DTD SVG 1.1//EN" "http://www.w3.org/Graphics/SVG/1.1/DTD/svg11.dtd">
<svg version="1.1" id="Capa_1" xmlns="http://www.w3.org/2000/svg" xmlns:xlink="http://www.w3.org/1999/xlink" x="0px" y="0px"
	 viewBox="0 0 150 150" enable-background="new 0 0 150 150" xml:space="preserve">
<g>
	<path fill="#214084" d="M61.8,31.7c-0.5,0-1.1-0.1-1.6-0.2v6.3c0,0.9,0.7,1.6,1.6,1.6c0.9,0,1.6-0.7,1.6-1.6v-6.3
		C62.9,31.6,62.4,31.7,61.8,31.7z"/>
	<g>
		<path fill="#214084" d="M61.8,33.3c-5.4,0-9.7-4.4-9.7-9.7s4.4-9.7,9.7-9.7c5.4,0,9.7,4.4,9.7,9.7S67.2,33.3,61.8,33.3z
			 M61.8,16.9c-3.6,0-6.6,3-6.6,6.6s3,6.6,6.6,6.6c3.6,0,6.6-3,6.6-6.6S65.5,16.9,61.8,16.9z"/>
	</g>
	<path fill="#214084" d="M42,46.5l-6.1-8.3c-0.5-0.7-1.5-0.8-2.2-0.3l-7.3,5.4c-0.3,0.2-0.6,0.6-0.6,1c-0.1,0.4,0,0.8,0.3,1.2
		l6.1,8.3c0.3,0.4,0.8,0.6,1.3,0.6c0.3,0,0.7-0.1,0.9-0.3l7.3-5.4c0.3-0.2,0.6-0.6,0.6-1C42.4,47.3,42.3,46.9,42,46.5z"/>
	<path fill="#214084" d="M97.4,43.3l-7.3-5.4c-0.3-0.2-0.8-0.4-1.2-0.3c-0.4,0.1-0.8,0.3-1,0.6l-6.1,8.3c-0.5,0.7-0.4,1.7,0.3,2.2
		l7.3,5.4c0.3,0.2,0.6,0.3,0.9,0.3c0.1,0,0.2,0,0.2,0c0.4-0.1,0.8-0.3,1-0.6l6.1-8.3C98.3,44.8,98.1,43.8,97.4,43.3z"/>
	<path fill="#5EB2D3" d="M96.2,51.2C87.1,42,74.8,36.9,61.8,36.9c-13,0-25.2,5.1-34.4,14.3c-9.2,9.2-14.3,21.4-14.3,34.4
		c0,13,5.1,25.2,14.3,34.4c9.2,9.2,21.4,14.3,34.4,14.3c13,0,25.2-5.1,34.4-14.3c9.2-9.2,14.3-21.4,14.3-34.4
		C110.5,72.6,105.4,60.3,96.2,51.2z"/>
	<g>
		<circle fill="#FFFFFF" cx="61.8" cy="85.6" r="35.5"/>
		<path fill="#214084" d="M61.8,122.6c-20.4,0-37-16.6-37-37c0-20.4,16.6-37,37-37c20.4,0,37,16.6,37,37
			C98.9,106,82.3,122.6,61.8,122.6z M61.8,51.7C43.2,51.7,28,66.9,28,85.6c0,18.7,15.2,33.9,33.9,33.9c18.7,0,33.9-15.2,33.9-33.9
			C95.7,66.9,80.5,51.7,61.8,51.7z"/>
	</g>
	<path fill="#214084" d="M61.8,48.5c-0.9,0-1.6,0.7-1.6,1.6v9.5c0,0.9,0.7,1.6,1.6,1.6c0.9,0,1.6-0.7,1.6-1.6v-9.5
		C63.4,49.2,62.7,48.5,61.8,48.5z"/>
	<path fill="#214084" d="M61.8,110c-0.9,0-1.6,0.7-1.6,1.6v9.5c0,0.9,0.7,1.6,1.6,1.6c0.9,0,1.6-0.7,1.6-1.6v-9.5
		C63.4,110.7,62.7,110,61.8,110z"/>
	<path fill="#214084" d="M97.3,84h-9.5c-0.9,0-1.6,0.7-1.6,1.6c0,0.9,0.7,1.6,1.6,1.6h9.5c0.9,0,1.6-0.7,1.6-1.6
		C98.9,84.7,98.2,84,97.3,84z"/>
	<path fill="#214084" d="M35.9,84h-9.5c-0.9,0-1.6,0.7-1.6,1.6c0,0.9,0.7,1.6,1.6,1.6h9.5c0.9,0,1.6-0.7,1.6-1.6
		C37.4,84.7,36.7,84,35.9,84z"/>
	<path fill="#FFD500" d="M83.3,62.5c-0.4-0.4-1-0.5-1.5-0.3c-13.3,4.3-21,22-21.4,22.7c-0.3,0.6-0.1,1.3,0.4,1.8
		c0.3,0.3,0.7,0.4,1.1,0.4c0.3,0,0.5-0.1,0.7-0.2c0.2-0.1,4.7-2.5,9.5-6.5c6.6-5.5,10.6-11,11.7-16.4C83.9,63.5,83.7,62.9,83.3,62.5
		z"/>
	<g>
		<path fill="#FFE36E" d="M144.4,90.3l-9.4-9.4c-0.3-0.3-0.7-0.5-1.1-0.5c-0.4,0-0.8,0.2-1.1,0.5l-31.4,31.4L87.2,98.1
			c-0.6-0.6-1.6-0.6-2.2,0l-8.5,8.5c-0.6,0.6-0.6,1.6,0,2.2l24.7,24.7c0.3,0.3,0.7,0.5,1.1,0.5c0.4,0,0.8-0.2,1.1-0.5l41-41
			C145,91.9,145,90.9,144.4,90.3z"/>
		<path fill="#FFD500" d="M101.8,112.3c-0.1,0-0.2,0.1-0.3,0.1L87.2,98.1c-0.6-0.6-1.6-0.6-2.2,0l-8.5,8.5c-0.6,0.6-0.6,1.6,0,2.2
			l24.6,24.5c0.2,0.2,0.5,0.4,0.8,0.4V112.3z"/>
	</g>
</g>
</svg>
