<?xml version="1.0" encoding="utf-8"?>
<!-- Generator: Adobe Illustrator 18.0.0, SVG Export Plug-In . SVG Version: 6.00 Build 0)  -->
<!DOCTYPE svg PUBLIC "-//W3C//DTD SVG 1.1//EN" "http://www.w3.org/Graphics/SVG/1.1/DTD/svg11.dtd">
<svg version="1.1" id="Capa_1" xmlns="http://www.w3.org/2000/svg" xmlns:xlink="http://www.w3.org/1999/xlink" x="0px" y="0px"
	 viewBox="0 0 150 150" enable-background="new 0 0 150 150" xml:space="preserve">
<g>
	<path fill="#FFE36E" d="M141.4,56.9c-0.7-3.4-2.8-6.3-5.8-8l-0.3-0.2c-7.5-4.3-16.4-5.1-24.5-2.3l0,0l-73.6,30
		c-1.3,0.5-2.7,0-3.3-1.3l-3.1-6.6l0-0.1c-1.2-2.2-3.7-3.3-6.2-2.8c-3.1,0.6-5.1,3.7-4.5,6.8l2.8,13.5c1.1,5.4,5.9,9.1,11.2,9.1
		c0.7,0,1.4-0.1,2.2-0.2l79.9-15.4c9.1-0.8,17.5-5.4,23.1-12.7C141.3,63.8,142.1,60.3,141.4,56.9z"/>
	<path fill="#FFD500" d="M140.4,54.1l-0.5-1.1L70,74.3L23.5,88.5l1.2,1.6c2.2,3,5.7,4.8,9.3,4.8c0.7,0,1.4-0.1,2.2-0.2l79.9-15.4
		c9.1-0.8,17.5-5.4,23.1-12.7C142,63,142.4,58.2,140.4,54.1z"/>
	<path fill="#5EB2D3" d="M104.5,64.3L39.3,43.6c-2.4-0.8-5-0.5-7.2,0.8c-2.2,1.3-3.7,3.4-4.2,5.9c-0.2,0.8,0.2,1.6,0.9,2l40.7,25
		c0.3,0.2,0.7,0.3,1,0.3c0.2,0,0.4,0,0.5-0.1l33.5-9.5c0.8-0.2,1.4-1,1.4-1.8C105.8,65.3,105.3,64.6,104.5,64.3z"/>
	<path fill="#214084" d="M140.4,53.9c-1.1-2.1-2.7-3.8-4.8-5l0,0l-0.3-0.2c-5.3-3.1-11.4-4.4-17.5-3.8c-0.5,0-0.9,0.3-1.1,0.7
		c-0.2,0.4-0.3,0.9-0.1,1.3l0,0.1c0,0,0,0,0,0l5.2,12.5c0.2,0.5,0.8,0.9,1.3,0.9c0.1,0,0.3,0,0.4-0.1l16-4.4
		c0.4-0.1,0.8-0.4,0.9-0.8C140.6,54.8,140.6,54.3,140.4,53.9z"/>
	<path fill="#214084" d="M29.7,106.8c-0.7,0-1.3-0.5-1.4-1.1c-0.2-0.8,0.3-1.5,1.1-1.7l19.5-4.3c0.8-0.2,1.5,0.3,1.7,1.1
		c0.2,0.8-0.3,1.5-1.1,1.7L30,106.7C29.9,106.8,29.8,106.8,29.7,106.8z"/>
	<path fill="#214084" d="M9.8,94.4c-0.7,0-1.3-0.5-1.4-1.1c-0.2-0.8,0.3-1.5,1.1-1.7l31-6.9c0.8-0.2,1.5,0.3,1.7,1.1
		c0.2,0.8-0.3,1.5-1.1,1.7l-31,6.9C10,94.4,9.9,94.4,9.8,94.4z"/>
	<path fill="#214084" d="M89.2,72.3L30.4,48.9c-0.9-0.4-2,0-2.4,0.9c-0.4,0.9-0.1,2,0.7,2.5l40.7,25c0.3,0.2,0.7,0.3,1,0.3
		c0.2,0,0.4,0,0.5-0.1L89.2,72.3z"/>
</g>
</svg>
