<?xml version="1.0" encoding="utf-8"?>
<!-- Generator: Adobe Illustrator 18.0.0, SVG Export Plug-In . SVG Version: 6.00 Build 0)  -->
<!DOCTYPE svg PUBLIC "-//W3C//DTD SVG 1.1//EN" "http://www.w3.org/Graphics/SVG/1.1/DTD/svg11.dtd">
<svg version="1.1" id="Capa_1" xmlns="http://www.w3.org/2000/svg" xmlns:xlink="http://www.w3.org/1999/xlink" x="0px" y="0px"
	 viewBox="0 0 150 150" enable-background="new 0 0 150 150" xml:space="preserve">
<g>
	<path fill="#214084" d="M49.2,51.9c-0.6-0.4-1.4-0.4-2.1-0.1L20.2,64.9c-0.7,0.4-1.2,1.1-1.2,2v65.4c0,0.8,0.4,1.4,1,1.8
		c0.4,0.2,0.8,0.3,1.2,0.3c0.3,0,0.7-0.1,1-0.2L49,121.1c0.7-0.4,1.2-1.1,1.2-2V53.7C50.3,53,49.9,52.3,49.2,51.9z"/>
	<path fill="#214084" d="M103.1,51.9c-0.6-0.4-1.4-0.4-2.1-0.1L74,64.9c-0.7,0.4-1.2,1.1-1.2,2v65.4c0,0.8,0.4,1.4,1,1.8
		c0.4,0.2,0.8,0.3,1.2,0.3c0.3,0,0.7-0.1,1-0.2l26.9-13.1c0.7-0.4,1.2-1.1,1.2-2V53.7C104.1,53,103.7,52.3,103.1,51.9z"/>
	<path fill="#FFE36E" d="M99.9,40.3c0-13.7-11.1-24.7-24.7-24.7c-13.7,0-24.7,11.1-24.7,24.7c0,0-0.6,24.9,24.7,50.2
		C100.5,65.1,99.9,40.3,99.9,40.3z"/>
	<path fill="#5EB2D3" d="M129.8,64.9l-26.9-13.1c-0.3-0.1-0.6-0.2-1-0.2v70l26,12.7c0.3,0.1,0.6,0.2,1,0.2c0.4,0,0.8-0.1,1.2-0.3
		c0.6-0.4,1-1.1,1-1.8V66.9C131,66,130.5,65.3,129.8,64.9z"/>
	<path fill="#5EB2D3" d="M75,64.4L49,51.8c-0.1-0.1-0.3-0.1-0.4-0.1v69.8L74,134.2c0.3,0.1,0.6,0.2,1,0.2l0,0V64.4z"/>
	<path fill="#FFD500" d="M75.5,15.5c-0.1,0-0.2,0-0.4,0c-13.7,0-24.7,11.1-24.7,24.7c0,0-0.6,24.9,24.7,50.2
		c0.1-0.1,0.2-0.2,0.4-0.4V15.5z"/>
	<circle fill="#FFFFFF" cx="75.1" cy="40.2" r="10.1"/>
</g>
</svg>
