<?xml version="1.0" encoding="utf-8"?>
<!-- Generator: Adobe Illustrator 18.0.0, SVG Export Plug-In . SVG Version: 6.00 Build 0)  -->
<!DOCTYPE svg PUBLIC "-//W3C//DTD SVG 1.1//EN" "http://www.w3.org/Graphics/SVG/1.1/DTD/svg11.dtd">
<svg version="1.1" id="Capa_1" xmlns="http://www.w3.org/2000/svg" xmlns:xlink="http://www.w3.org/1999/xlink" x="0px" y="0px"
	 viewBox="0 0 150 150" enable-background="new 0 0 150 150" xml:space="preserve">
<g>
	<path fill="#FFD500" d="M104.3,38.4c-0.2-0.4-0.5-0.7-0.8-0.9L75.4,25.7c-0.8-0.3-1.7,0-2.1,0.8l-9.7,22.8c-0.2,0.4-0.2,0.8,0,1.2
		c0.2,0.4,0.5,0.7,0.8,0.9l28.1,11.9c0.2,0.1,0.4,0.1,0.6,0.1c0.6,0,1.2-0.4,1.4-1l9.7-22.8C104.4,39.3,104.5,38.8,104.3,38.4z"/>
	<path fill="#FFE36E" d="M94.6,61.3c-0.2-0.4-0.5-0.7-0.8-0.9l-50-21.2c-0.8-0.3-1.7,0-2.1,0.8L26.3,76.5c-0.3,0.8,0,1.7,0.8,2.1
		l50,21.2c0.2,0.1,0.4,0.1,0.6,0.1c0.2,0,0.4,0,0.6-0.1c0.4-0.2,0.7-0.5,0.9-0.8l15.4-36.4C94.8,62.1,94.8,61.6,94.6,61.3z"/>
	
		<rect x="64.2" y="36.7" transform="matrix(0.3903 -0.9207 0.9207 0.3903 8.9756 97.6428)" fill="#FFD500" width="27.9" height="10.6"/>
	<g>
		<path fill="#214084" d="M72.2,111.3l38.6-91.1L72.2,111.3z"/>
		<path fill="#214084" d="M72.2,112.9c-0.2,0-0.4,0-0.6-0.1c-0.8-0.3-1.2-1.3-0.8-2.1l38.6-91.1c0.3-0.8,1.3-1.2,2.1-0.8
			c0.8,0.3,1.2,1.3,0.8,2.1l-38.6,91.1C73.4,112.5,72.8,112.9,72.2,112.9z"/>
	</g>
	<path fill="#5EB2D3" d="M141.3,31.4l-29.9-12.7c-0.4-0.2-0.8-0.2-1.2,0c-0.4,0.2-0.7,0.5-0.9,0.8l-3.1,7.3c-0.3,0.8,0,1.7,0.8,2.1
		L137,41.6c0.2,0.1,0.4,0.1,0.6,0.1c0.2,0,0.4,0,0.6-0.1c0.4-0.2,0.7-0.5,0.9-0.8l3.1-7.3C142.5,32.7,142.1,31.8,141.3,31.4z"/>
	
		<rect x="28" y="59.4" transform="matrix(0.3902 -0.9207 0.9207 0.3902 -29.5297 84.8538)" fill="#FFD500" width="42.7" height="10.6"/>
	<path fill="#5EB2D3" d="M78.4,96.8L15.5,70.1c-0.4-0.2-0.8-0.2-1.2,0c-0.4,0.2-0.7,0.5-0.9,0.8L7.9,84.1c-0.2,0.4-0.2,0.8,0,1.2
		c0.2,0.4,0.5,0.7,0.8,0.9l62.9,26.7c0.2,0.1,0.4,0.1,0.6,0.1c0.2,0,0.4,0,0.6-0.1c0.4-0.2,0.7-0.5,0.9-0.8l5.5-13.1
		C79.5,98.1,79.2,97.1,78.4,96.8z"/>
	<path fill="#214084" d="M80,92.9c-10.2-4.3-21.9,0.5-26.3,10.6c-4.3,10.2,0.5,21.9,10.6,26.3c2.5,1.1,5.2,1.6,7.8,1.6
		c7.8,0,15.2-4.6,18.5-12.2C95,109,90.2,97.2,80,92.9z"/>
	<path fill="#5EB2D3" d="M75,104.8c-3.6-1.5-7.8,0.2-9.3,3.8c-1.5,3.6,0.2,7.8,3.8,9.3c0.9,0.4,1.8,0.6,2.8,0.6
		c2.8,0,5.4-1.6,6.6-4.3C80.3,110.5,78.6,106.3,75,104.8z"/>
</g>
</svg>
